<?xml version="1.0" encoding="utf-8"?>
<!-- Generator: Adobe Illustrator 17.1.0, SVG Export Plug-In . SVG Version: 6.00 Build 0)  -->
<!DOCTYPE svg PUBLIC "-//W3C//DTD SVG 1.1//EN" "http://www.w3.org/Graphics/SVG/1.1/DTD/svg11.dtd">
<svg version="1.1" id="Layer_1" xmlns="http://www.w3.org/2000/svg" xmlns:xlink="http://www.w3.org/1999/xlink" x="0px" y="0px"
	 viewBox="0 0 100 55.2" enable-background="new 0 0 100 55.2" xml:space="preserve">
<path fill="#FFFFFF" d="M78,11.1c-3.7,0-7.3,0.9-10.5,2.7C63.5,5.5,55.1,0,45.7,0c-12.8,0-23.4,10.1-24,22.8
	c-5.9,0.7-11,4.6-13.1,10.1C3.6,34.2,0,38.6,0,43.9c0,6.2,5.1,11.3,11.3,11.3h33c0-5.9,0-11.8,0-17.7c-1.4,0-4.1,0-5.5,0
	c-1.1,0-1.4-1.2-0.8-1.9c3.3-4,7.9-7.9,11.2-11.9c0.2-0.3,0.5-0.4,0.8-0.4c0.3,0,0.6,0.1,0.8,0.4c3.3,4,7.9,7.9,11.2,11.9
	c0.6,0.7,0.3,1.9-0.8,1.9c-1.4,0-4.1,0-5.5,0c0,5.9,0,11.8,0,17.7H78c12.2,0,22-9.9,22-22S90.1,11.1,78,11.1z"/>
</svg>
