<?xml version="1.0" encoding="utf-8"?>
<!-- Generator: Adobe Illustrator 17.1.0, SVG Export Plug-In . SVG Version: 6.00 Build 0)  -->
<!DOCTYPE svg PUBLIC "-//W3C//DTD SVG 1.1//EN" "http://www.w3.org/Graphics/SVG/1.1/DTD/svg11.dtd">
<svg version="1.1" id="Layer_1" xmlns="http://www.w3.org/2000/svg" xmlns:xlink="http://www.w3.org/1999/xlink" x="0px" y="0px"
	 viewBox="0 44.8 200 110.4" enable-background="new 0 44.8 200 110.4" xml:space="preserve">
<path fill="#999999" d="M156,67c-7.4,0-14.6,1.8-21,5.4c-8-16.6-24.8-27.6-43.6-27.6c-25.6,0-46.8,20.2-48,45.6
	c-11.8,1.4-22,9.2-26.2,20.2C7.2,113.2,0,122,0,132.6c0,12.4,10.2,22.6,22.6,22.6h66c0-11.8,0-23.6,0-35.4c-2.8,0-8.2,0-11,0
	c-2.2,0-2.8-2.4-1.6-3.8c6.6-8,15.8-15.8,22.4-23.8c0.4-0.6,1-0.8,1.6-0.8s1.2,0.2,1.6,0.8c6.6,8,15.8,15.8,22.4,23.8
	c1.2,1.4,0.6,3.8-1.6,3.8c-2.8,0-8.2,0-11,0c0,11.8,0,23.6,0,35.4H156c24.4,0,44-19.8,44-44S180.2,67,156,67z"/>
</svg>
