<?xml version="1.0" encoding="utf-8"?>
<!-- Generator: Adobe Illustrator 17.1.0, SVG Export Plug-In . SVG Version: 6.00 Build 0)  -->
<!DOCTYPE svg PUBLIC "-//W3C//DTD SVG 1.1//EN" "http://www.w3.org/Graphics/SVG/1.1/DTD/svg11.dtd">
<svg version="1.1" id="Layer_1" xmlns="http://www.w3.org/2000/svg" xmlns:xlink="http://www.w3.org/1999/xlink" x="0px" y="0px"
	 viewBox="0 0 200 200" enable-background="new 0 0 200 200" xml:space="preserve">
<g>
	<ellipse fill="#999999" cx="82" cy="30.4" rx="77.6" ry="20"/>
	<path fill="#999999" d="M81.8,97.4c9.4,0,15.8-0.2,17.4-0.4c0.6-6.4,4-18.4,14.6-27c5.6-4,14.8-11.2,32-9.4
		c1.8,0.4,7.6,0.8,13.6,4.2c0-1.4,0.2-24,0.2-24S159.2,62.4,82,62.4S4.4,40.8,4.4,40.8v28.8C4.4,69.6,4.4,97.4,81.8,97.4z"/>
	<path fill="#999999" d="M81.8,144.6c28.8,0,32-1.2,42-4.4c-8-4-12.8-8.4-18.4-15.6c-3-5-4.8-8.8-6.4-17.8c-3.2,0.4-7.8,0.4-17,0.4
		c-77.2,0-77.6-25.4-77.6-25.4V115C4.4,115,4.4,144.6,81.8,144.6z"/>
	<path fill="#999999" d="M137,143.2c-1,0.4-8.2,10.2-55,10.2c-77.2,0.2-77.6-26.6-77.6-26.6l0.2,34.6c0,0,0,30,77.2,30
		s77.8-29.6,77.8-29.6s0-21.6,0-23C151.6,142.6,144.4,143.8,137,143.2z"/>
	<path fill="#999999" d="M196,146.8L181,131l-14.6-6.4c5.4-6.2,8.2-13.6,8.4-21.4c0.2-8.4-2.8-17-9.2-23.6
		c-6.2-6.6-14.6-9.8-23.2-10c-17.8-0.4-33.2,14.4-33.6,32.2c-0.4,18,14,33.4,32,33.8c7.8,0.2,15.4-2.4,21.8-7.4l5.8,15.2l15,15.6
		c1.4,1.2,3.4,1.8,5.2,1.8c4.8,0.2,9.2-3.8,9.2-8.6C197.8,150.2,197.2,148.4,196,146.8z M155.6,117.2c-4,4-9.4,5.8-14.6,5.6
		c-10.8-0.2-20-9.6-19.8-20.8c0.2-10.8,9.6-20,20.6-19.8c11.2,0.2,20.2,9.6,20,20.6C161.8,108.2,159.6,113.4,155.6,117.2z"/>
</g>
</svg>
