<?xml version="1.0" encoding="utf-8"?>
<!-- Generator: Adobe Illustrator 17.1.0, SVG Export Plug-In . SVG Version: 6.00 Build 0)  -->
<!DOCTYPE svg PUBLIC "-//W3C//DTD SVG 1.1//EN" "http://www.w3.org/Graphics/SVG/1.1/DTD/svg11.dtd">
<svg version="1.1" xmlns="http://www.w3.org/2000/svg" xmlns:xlink="http://www.w3.org/1999/xlink" x="0px" y="0px"
	 viewBox="0 0 96.4 40.6" enable-background="new 0 0 96.4 40.6" xml:space="preserve">
<g id="References">
	<g id="Shape_37_">
		<path id="_x23__1_37_" fill="#85BAE4" d="M640.2-222.6c-3.2,1.5-7,0.2-8.5-2.9c-1.5-3.2-0.2-7,2.9-8.5c3.2-1.5,7-0.2,8.5,2.9
			C644.7-228,643.4-224.2,640.2-222.6z M645.8-255.5c-0.9-1.8-3.1-2.6-4.9-1.7c-1.8,0.9-2.6,3.1-1.7,4.9c0.9,1.8,3.1,2.6,4.9,1.7
			C645.9-251.5,646.6-253.7,645.8-255.5z M630.9-183c3.5-1.7,4.9-5.9,3.2-9.3c-1.7-3.5-5.9-4.9-9.3-3.2c-3.5,1.7-4.9,5.9-3.2,9.3
			C623.3-182.8,627.5-181.3,630.9-183z M596.9-185.6c2.9-1.4,4-4.8,2.6-7.7c-1.4-2.9-4.8-4-7.7-2.6c-2.9,1.4-4,4.8-2.6,7.7
			C590.6-185.4,594.1-184.2,596.9-185.6z M620.8-164c-0.6-1.2-2-1.6-3.1-1.1c-1.2,0.6-1.6,2-1.1,3.1c0.6,1.2,2,1.6,3.1,1.1
			C620.9-161.4,621.4-162.8,620.8-164z M644.3-214.2c1.9-0.9,2.7-3.2,1.7-5.1c-0.9-1.9-3.2-2.7-5.1-1.7c-1.9,0.9-2.7,3.2-1.7,5.1
			C640.2-214.1,642.5-213.3,644.3-214.2z M596.2-214.3c4.4-2.1,6.2-7.4,4-11.8c-2.1-4.4-7.4-6.2-11.8-4c-4.4,2.1-6.2,7.4-4,11.8
			C586.6-214,591.9-212.2,596.2-214.3z M579.7-194.3c1.7-0.8,2.4-2.9,1.6-4.6c-0.8-1.7-2.9-2.4-4.6-1.6c-1.7,0.8-2.4,2.9-1.6,4.6
			C575.9-194.1,578-193.4,579.7-194.3z M616.6-253.2c1.6-0.8,2.2-2.7,1.5-4.3c-0.8-1.6-2.7-2.2-4.3-1.5c-1.6,0.8-2.2,2.7-1.5,4.3
			C613.1-253,615-252.4,616.6-253.2z M608.5-245.4c1.4-0.7,1.9-2.3,1.3-3.6c-0.7-1.4-2.3-1.9-3.7-1.3c-1.3,0.7-1.9,2.3-1.3,3.6
			C605.5-245.3,607.1-244.8,608.5-245.4z M646.1-174.1c0.7-0.3,1-1.1,0.6-1.8c-0.3-0.7-1.1-1-1.8-0.6c-0.7,0.3-1,1.1-0.6,1.8
			C644.6-174,645.4-173.8,646.1-174.1z M670.5-191c3.2-1.5,4.5-5.4,2.9-8.5c-1.5-3.2-5.4-4.5-8.5-2.9c-3.2,1.5-4.5,5.4-2.9,8.5
			C663.5-190.8,667.3-189.5,670.5-191z M665.8-235.8c2-1,2.8-3.3,1.8-5.3c-1-2-3.3-2.8-5.3-1.8c-2,1-2.8,3.3-1.8,5.3
			C661.5-235.7,663.8-234.9,665.8-235.8z"/>
		<path id="_x23__2_37_" fill="#2775BB" d="M615.7-208.3c-2.4-4.8-0.4-10.6,4.4-13c4.8-2.4,10.6-0.4,13,4.4c2.4,4.8,0.4,10.6-4.4,13
			C623.9-201.5,618-203.5,615.7-208.3z M608.4-206.8c3.2-1.5,4.5-5.4,2.9-8.5c-1.5-3.2-5.4-4.5-8.5-2.9c-3.2,1.5-4.5,5.4-2.9,8.5
			C601.4-206.5,605.2-205.2,608.4-206.8z M614.4-227.6c3.6-1.8,5.1-6.1,3.3-9.7c-1.8-3.6-6.1-5.1-9.7-3.3c-3.6,1.8-5.1,6.1-3.3,9.7
			C606.4-227.3,610.8-225.8,614.4-227.6z M636.9-244.3c-1.1-2.3-3.8-3.2-6.1-2.1c-2.3,1.1-3.2,3.8-2.1,6.1c1.1,2.3,3.8,3.2,6.1,2.1
			C637-239.4,638-242.1,636.9-244.3z M584.8-207.1c2-1,2.8-3.3,1.8-5.3c-1-1.9-3.3-2.8-5.3-1.8c-2,1-2.8,3.3-1.8,5.3
			C580.5-207,582.8-206.1,584.8-207.1z M582.3-229.1c2-1,2.8-3.3,1.8-5.3c-1-2-3.3-2.8-5.3-1.8c-2,1-2.8,3.3-1.8,5.3
			C577.9-228.9,580.3-228.1,582.3-229.1z M659.7-174.6c1.8-0.9,2.6-3.1,1.7-4.9c-0.9-1.8-3.1-2.6-4.9-1.7c-1.8,0.9-2.5,3.1-1.7,4.9
			C655.7-174.4,657.9-173.7,659.7-174.6z M618-170.2c3.1-1.5,4.4-5.2,2.8-8.3c-1.5-3.1-5.2-4.3-8.3-2.8c-3.1,1.5-4.4,5.2-2.9,8.3
			C611.2-169.9,614.9-168.7,618-170.2z M665.9-231.3c-3,1.5-4.3,5.1-2.8,8.1c1.5,3,5.1,4.3,8.1,2.8c3-1.5,4.3-5.1,2.8-8.1
			C672.5-231.5,668.9-232.8,665.9-231.3z M596.5-250.1c1.3-0.6,1.8-2.2,1.2-3.4c-0.6-1.3-2.2-1.8-3.4-1.2c-1.3,0.6-1.8,2.1-1.2,3.4
			C593.7-250,595.2-249.4,596.5-250.1z M600.6-231.6c1.3-0.6,1.8-2.2,1.2-3.4c-0.6-1.3-2.2-1.8-3.4-1.2c-1.3,0.6-1.8,2.2-1.2,3.4
			C597.8-231.5,599.3-231,600.6-231.6z M607.6-184.5c1.3-0.7,1.9-2.3,1.2-3.6c-0.7-1.3-2.3-1.9-3.6-1.2c-1.3,0.7-1.9,2.3-1.2,3.6
			C604.7-184.4,606.3-183.9,607.6-184.5z"/>
		<path id="_x23__3_37_" fill="#304094" d="M573.3-215.6c-0.6-1.2-0.1-2.7,1.1-3.2c1.2-0.6,2.7-0.1,3.2,1.1c0.6,1.2,0.1,2.7-1.1,3.2
			C575.4-213.9,573.9-214.4,573.3-215.6z M651-180.3c3.8-1.9,5.4-6.5,3.5-10.3c-1.9-3.8-6.5-5.4-10.3-3.5c-3.8,1.9-5.4,6.5-3.5,10.3
			C642.6-180,647.2-178.4,651-180.3z M648.3-199.3c-0.5-1.1-1.8-1.5-2.8-1c-1,0.5-1.5,1.8-1,2.8c0.5,1.1,1.8,1.5,2.8,1
			C648.4-197,648.8-198.3,648.3-199.3z M609.8-168.7c-0.5-1.1-1.8-1.5-2.8-1c-1.1,0.5-1.5,1.8-1,2.8c0.5,1,1.8,1.5,2.8,1
			C609.9-166.4,610.3-167.6,609.8-168.7z M632.7-251.8c-0.5-1-1.8-1.5-2.8-1c-1,0.5-1.5,1.8-1,2.8c0.5,1.1,1.8,1.5,2.8,1
			C632.8-249.5,633.2-250.7,632.7-251.8z M654.7-223.7c2.2-1.1,3.1-3.7,2-5.9c-1.1-2.2-3.7-3.1-5.9-2c-2.2,1.1-3.1,3.7-2,5.9
			C649.9-223.6,652.5-222.7,654.7-223.7z M595.6-238.2c2.8-1.4,3.9-4.7,2.6-7.5c-1.4-2.8-4.7-3.9-7.5-2.6c-2.8,1.4-3.9,4.7-2.6,7.5
			C589.5-237.9,592.8-236.8,595.6-238.2z M660.7-231.2c0.8-0.4,1.2-1.4,0.8-2.2c-0.4-0.8-1.4-1.2-2.2-0.8c-0.8,0.4-1.2,1.4-0.8,2.2
			C658.9-231.1,659.9-230.8,660.7-231.2z"/>
		<path id="_x23__4_37_" fill="#2669B3" d="M634.8-202.3c-1.4-2.8-0.2-6.1,2.6-7.5c2.8-1.4,6.1-0.2,7.5,2.6c1.4,2.8,0.2,6.1-2.6,7.5
			C639.5-198.4,636.2-199.6,634.8-202.3z M611.5-192.9c2.8-1.4,3.9-4.7,2.6-7.5c-1.4-2.8-4.7-3.9-7.5-2.6c-2.8,1.4-3.9,4.7-2.6,7.5
			C605.3-192.7,608.7-191.6,611.5-192.9z M639.1-162.9c2-1,2.8-3.3,1.8-5.3c-1-2-3.3-2.8-5.3-1.8c-2,1-2.8,3.3-1.8,5.3
			C634.8-162.8,637.1-162,639.1-162.9z M651.7-234.7c3.6-1.8,5.1-6.1,3.3-9.7c-1.8-3.6-6.1-5.1-9.7-3.3c-3.6,1.8-5.1,6.1-3.3,9.7
			C643.7-234.4,648.1-232.9,651.7-234.7z M591.5-197.5c2.6-1.2,3.6-4.3,2.4-6.9c-1.3-2.6-4.3-3.6-6.9-2.4c-2.6,1.2-3.6,4.3-2.4,6.9
			C585.9-197.3,588.9-196.2,591.5-197.5z M585.8-183.7c2-1,2.9-3.5,1.9-5.5c-1-2-3.5-2.9-5.5-1.9c-2,1-2.9,3.5-1.9,5.5
			C581.3-183.6,583.8-182.7,585.8-183.7z M638.3-173.5c2.5-1.2,3.5-4.2,2.3-6.7c-1.2-2.5-4.2-3.5-6.7-2.3c-2.5,1.2-3.5,4.2-2.3,6.7
			C632.8-173.3,635.8-172.3,638.3-173.5z M623.1-241.1c2.8-1.4,3.9-4.7,2.6-7.5c-1.4-2.8-4.7-3.9-7.5-2.6c-2.8,1.4-3.9,4.7-2.6,7.5
			C617-240.9,620.3-239.8,623.1-241.1z M631.1-255.3c2.3-1.1,3.3-3.9,2.2-6.3c-1.1-2.3-3.9-3.3-6.3-2.2c-2.3,1.1-3.3,3.9-2.1,6.3
			C625.9-255.1,628.7-254.2,631.1-255.3z"/>
		<path id="_x23__5_37_" fill="#3DA6DE" d="M623.1-229.8c-0.8-1.7-0.1-3.7,1.5-4.5c1.7-0.8,3.7-0.1,4.5,1.5c0.8,1.7,0.1,3.7-1.5,4.5
			C625.9-227.5,623.9-228.2,623.1-229.8z M653.4-248.4c0.8,1.7,2.8,2.3,4.5,1.5c1.7-0.8,2.3-2.8,1.5-4.5c-0.8-1.7-2.8-2.3-4.5-1.5
			C653.3-252,652.6-250.1,653.4-248.4z M606.4-257.8c-0.9-1.8-3.1-2.5-4.9-1.7c-1.8,0.9-2.6,3.1-1.7,4.9c0.9,1.8,3.1,2.6,4.9,1.7
			C606.5-253.8,607.2-255.9,606.4-257.8z M656.4-195.7c2-1,2.8-3.3,1.8-5.3c-1-2-3.3-2.8-5.3-1.8c-2,1-2.8,3.3-1.8,5.3
			C652.1-195.6,654.5-194.8,656.4-195.7z M603-169.6c4-1.9,5.6-6.8,3.7-10.7c-2-4-6.8-5.6-10.7-3.7c-4,2-5.6,6.8-3.7,10.7
			C594.2-169.3,599-167.7,603-169.6z M600.8-200.1c1.2-0.6,1.7-2,1.1-3.3c-0.6-1.2-2-1.7-3.3-1.1c-1.2,0.6-1.7,2-1.1,3.3
			C598.2-200.1,599.6-199.6,600.8-200.1z M628.4-169c1.3-0.6,1.8-2.2,1.2-3.4c-0.6-1.3-2.2-1.8-3.4-1.2c-1.3,0.6-1.8,2.2-1.2,3.4
			C625.5-168.9,627.1-168.4,628.4-169z M616.6-185c1.7-0.8,2.4-2.9,1.6-4.7c-0.8-1.7-2.9-2.4-4.7-1.6c-1.7,0.8-2.4,2.9-1.6,4.7
			C612.8-184.9,614.9-184.2,616.6-185z M604.3-239.9c0.7-0.3,1-1.2,0.6-1.8c-0.3-0.7-1.2-1-1.8-0.6c-0.7,0.3-1,1.1-0.6,1.8
			C602.8-239.8,603.6-239.5,604.3-239.9z M613.9-220.3c1.5-0.7,2.1-2.5,1.4-4c-0.7-1.5-2.5-2.1-4-1.4c-1.5,0.7-2.1,2.5-1.4,4
			C610.6-220.2,612.4-219.6,613.9-220.3z M650.5-167.5c1.5-0.7,2.1-2.5,1.4-4c-0.7-1.5-2.5-2.1-4-1.4c-1.5,0.7-2.1,2.5-1.4,4
			C647.3-167.4,649-166.8,650.5-167.5z M619.8-196.5c1.4-0.7,1.9-2.3,1.3-3.7c-0.7-1.4-2.3-1.9-3.7-1.3c-1.4,0.7-1.9,2.3-1.3,3.7
			C616.8-196.4,618.5-195.8,619.8-196.5z"/>
		<circle fill="#F26722" cx="656.2" cy="-212.5" r="8.3"/>
		<path fill="#F26722" d="M672.3-209.1c2-1,2.8-3.3,1.8-5.3c-1-2-3.3-2.8-5.3-1.8c-2,1-2.8,3.3-1.8,5.3
			C668-208.9,670.4-208.1,672.3-209.1z"/>
	</g>
</g>
<g id="Desktop">
	<g>
		<rect x="49.3" y="36.6" fill="#DCDBDB" width="16.3" height="0.4"/>
	</g>
	<g>
		<polygon fill="#BCBEC0" points="49.3,36.6 51.1,36.3 63.9,36.3 65.6,36.6 		"/>
	</g>
	<g>
		<polygon fill="#B7B7B7" points="62.4,31.2 52.6,31.2 52.3,32.2 62.7,32.2 		"/>
	</g>
	<g>
		<polygon fill="#E2E2E2" points="52.3,32.2 51.1,36.3 56.3,36.3 58.7,36.3 63.9,36.3 62.7,32.2 		"/>
	</g>
	<g>
		<path fill="#464E5D" d="M82.3,29.6c0,0.8-0.7,1.5-1.5,1.5H34.2c-0.8,0-1.5-0.7-1.5-1.5v-27c0-0.8,0.7-1.5,1.5-1.5h46.5
			c0.8,0,1.5,0.7,1.5,1.5V29.6z"/>
	</g>
	<g>
		<circle fill="#FFFFFF" cx="57.5" cy="30.1" r="0.5"/>
	</g>
	<g display="none">
		<rect x="236.4" y="59.3" display="inline" fill="#D8DCE3" width="267.7" height="152.5"/>
	</g>
	<g>
		<circle fill="#FFFFFF" cx="57.5" cy="2.1" r="0.1"/>
	</g>
	<path fill="#E3E5E5" d="M80.4,5.3c0,0.2-0.4,0.3-0.9,0.3H35.4c-0.5,0-0.9-0.1-0.9-0.3V3.4c0-0.2,0.4-0.3,0.9-0.3h44.1
		c0.5,0,0.9,0.1,0.9,0.3V5.3z"/>
	<g>
		<rect x="34.6" y="4.6" fill="#F4F4F4" width="45.8" height="24.6"/>
	</g>
	<g>
		<g>
			<circle fill="#F16673" cx="35.3" cy="3.9" r="0.2"/>
		</g>
		<g>
			<circle fill="#FFD14E" cx="36.1" cy="3.9" r="0.2"/>
		</g>
		<g>
			<circle fill="#6CC175" cx="36.8" cy="3.9" r="0.2"/>
		</g>
	</g>
	<rect x="36.1" y="5.4" fill="#D8D8D8" width="43" height="10.5"/>
	<g>
		<g>
			<rect x="36" y="16.7" fill="#BCBEC0" width="13.9" height="11.5"/>
		</g>
		<g>
			<rect x="50.6" y="16.7" fill="#BCBEC0" width="13.9" height="11.5"/>
		</g>
		<g>
			<rect x="65.1" y="16.7" fill="#BCBEC0" width="13.9" height="11.5"/>
		</g>
	</g>
	<g opacity="0.2">
		<polygon fill="#FFFFFF" points="34.6,29.1 80.3,29.1 80.3,3.3 		"/>
	</g>
	<g id="EKG" display="none">
		
			<polyline display="inline" fill="none" stroke="#808285" stroke-width="1.5" stroke-linecap="round" stroke-linejoin="round" stroke-miterlimit="10" points="
			245,86.8 248.4,86.8 253.1,86.7 256,78.9 257,90.4 258,86.7 260.6,86.7 262.5,86.7 268.2,86.7 272.2,86.7 274.2,86.7 274.2,86.7 
			278.2,86.7 281.6,83.1 282.6,90.9 283.7,86.6 286.6,86.6 288.6,86.5 288.6,86.5 290.2,86.5 291,84.9 291.7,86.2 294.4,86.2 
			297,78.9 298.4,91.5 299.9,86.2 310.7,86.2 312.7,86.3 312.7,86.3 315.4,86.3 317.4,86.2 317.4,86.2 318.4,85.2 319.5,86.3 
			326.6,86.3 328.8,85.2 329.4,91.5 331,86.2 335.6,86.2 336.6,84.5 338.2,86.2 346.5,86.2 351.7,76.3 354.2,86.4 356.2,82.4 
			357.9,86.2 359.2,84.3 361.1,86.1 362.7,86.1 364.1,84.1 365.2,86.2 370.7,86.2 371.9,84.2 372.9,86.1 384.4,86.1 385.6,81.9 
			390.4,87.4 395.3,78.9 396.6,86 398.1,83.7 399.7,86 415.1,86 418.1,78.9 423,86.9 423.7,85.8 425.6,85.8 427.6,83.5 429.5,85.8 
			438.5,85.8 440.7,85.6 442,86 444,85.9 446.1,85.9 453.5,85.9 455.5,78.9 456.7,87 459.5,85.8 466.9,85.8 468.2,83.4 469.9,85.9 
			477.6,86.1 480.5,83.9 485.5,91.5 486.7,85.6 489.9,85.6 490.5,77.6 491.4,85.6 495.5,85.6 		"/>
		
			<polyline display="inline" fill="none" stroke="#808285" stroke-width="1.5" stroke-linecap="round" stroke-linejoin="round" stroke-miterlimit="10" points="
			245,105.3 248.4,105.3 253.1,105.2 256,97.4 257,108.9 258,105.2 260.6,105.2 262.5,105.2 263.2,105.2 267.2,105.2 268.1,103.1 
			269.2,105.2 273.2,105.2 274.8,103.9 277.6,109.4 279.7,105.1 294.4,104.7 297.7,103.9 298.4,110 299.9,104.7 310.7,104.7 
			311.9,103.1 312.7,104.8 318.6,104.8 322,93.2 323.1,105.9 323,104.7 335.6,104.7 336.6,103 338.2,104.7 349.5,104.7 353.3,93.4 
			356,104.7 356,104.7 361.1,104.6 370.7,104.6 370.7,104.7 372.9,104.6 372.9,104.6 384.4,104.6 388.1,97.4 389.1,105.9 
			391.1,104.5 396.6,104.5 398.1,102.2 399.7,104.5 407.1,104.5 410.1,97.4 411.6,106 413.7,104.3 417.6,104.3 419.6,102 
			421.5,104.3 429.5,104.3 431,103.9 433,104.5 437.1,104.4 437.1,104.4 444.5,104.4 445.7,93.8 448.2,104.9 451.1,100.8 
			466.9,104.3 468.2,98.9 469.9,104.4 473.7,104.4 476.4,97.4 477.6,105.4 478.7,104.1 489.9,104.1 490.5,102.2 491.4,104.1 
			495.5,104.1 		"/>
		
			<polyline display="inline" fill="none" stroke="#808285" stroke-width="1.5" stroke-linecap="round" stroke-linejoin="round" stroke-miterlimit="10" points="
			245,123.8 247.1,123.7 248.7,112.6 250.3,123.2 252,123.7 260.6,123.7 262.5,118.7 264.2,123.7 272.2,123.7 273.1,121.6 
			274.2,123.7 278.2,123.7 280,121.8 282.6,127.9 283.7,123.6 286.6,123.6 290.2,123.5 291,121.9 291.7,123.2 294.4,123.2 
			295.7,119.7 297.5,125.8 299.9,123.2 310.7,123.2 311.5,124.9 312.7,123.3 315.4,123.3 316.6,121.5 317.4,123.2 318.4,122.2 
			319.5,123.3 326.6,123.3 328.2,115.9 329.4,128.5 331,123.2 335.6,123.2 336.6,121.5 338.2,123.2 346.5,123.2 349.1,115.9 
			351.5,128.5 353,123.2 357.9,123.2 361.1,123.1 361.1,123.1 370.7,123.2 370.7,123.2 370.7,123.2 374.5,124.9 378.9,116.4 
			381.7,129.4 382.1,123 388.6,123 390.4,114.6 391.7,123 415.1,123 418.1,115.9 420.2,128.5 421.7,122.8 425.6,122.8 427.6,120.5 
			429.5,122.8 438.5,122.8 440.7,122.6 442,123 444,125.9 446.1,122.9 453.5,122.9 455.5,115.9 458.6,125.2 459.5,122.8 
			466.9,122.8 468.2,120.4 469.9,122.9 477.7,122.9 480.4,115.9 482.3,125 482.7,122.6 491.4,122.6 495.5,122.6 		"/>
	</g>
	<g id="Bar_Graph">
		<g>
			<rect x="67.6" y="22.6" fill="#85BAE4" width="1.2" height="3.7"/>
			<rect x="69.5" y="21.9" fill="#85BAE4" width="1.2" height="4.4"/>
			<rect x="71.5" y="23" fill="#85BAE4" width="1.2" height="3.3"/>
			<rect x="73.4" y="21.8" fill="#85BAE4" width="1.2" height="4.5"/>
			<rect x="75.3" y="19.4" fill="#85BAE4" width="1.2" height="6.9"/>
		</g>
	</g>
	<g id="Pie_Chart">
		<g>
			<g>
				<g>
					<g>
						<path fill="#FFFAF1" d="M59,24.4c-0.1-0.8-0.8-1.4-1.6-1.4c-0.9,0-1.6,0.7-1.6,1.6c0,0.2,0,0.4,0.1,0.5
							c0.2,0.6,0.8,1.1,1.5,1.1c0.7,0,1.4-0.5,1.6-1.2c0-0.2,0.1-0.3,0.1-0.5C59.1,24.6,59.1,24.5,59,24.4z"/>
					</g>
					<g>
						<path fill="#F16723" d="M59,24.4l-1.6,0.2l1.6,0.5c0-0.2,0.1-0.3,0.1-0.5C59.1,24.6,59.1,24.5,59,24.4z"/>
					</g>
					<g>
						<path fill="#85BAE4" d="M59,24.4c-0.1-0.8-0.8-1.4-1.6-1.4c-0.9,0-1.6,0.7-1.6,1.6c0,0.2,0,0.4,0.1,0.5l1.5-0.5L59,24.4z"/>
					</g>
					<g>
						<path fill="#FFFFFF" d="M55.9,25.2c0.2,0.6,0.8,1.1,1.5,1.1c0.7,0,1.4-0.5,1.6-1.2l-1.6-0.5L55.9,25.2z"/>
					</g>
				</g>
			</g>
			<g>
				<g>
					<path fill="#FFFAF1" d="M63.4,24.4c-0.1-0.8-0.8-1.4-1.6-1.4c-0.9,0-1.6,0.7-1.6,1.6c0,0.2,0,0.4,0.1,0.5
						c0.2,0.6,0.8,1.1,1.5,1.1c0.7,0,1.4-0.5,1.6-1.2c0-0.2,0.1-0.3,0.1-0.5C63.4,24.6,63.4,24.5,63.4,24.4z"/>
				</g>
				<g>
					<path fill="#85BAE4" d="M61.8,23c-0.9,0-1.6,0.7-1.6,1.6c0,0.2,0,0.4,0.1,0.5l1.5-0.5C61.8,24.7,61.8,23.9,61.8,23z"/>
				</g>
				<g>
					<path fill="#F16723" d="M61.5,23.1l0.2,1.6l0.8-1.4c-0.2-0.1-0.4-0.2-0.8-0.2C61.7,23,61.6,23,61.5,23.1z"/>
				</g>
				<g>
					<path fill="#FFFFFF" d="M60.2,25.2c0.2,0.6,0.8,1.1,1.5,1.1c0.7,0,1.4-0.5,1.6-1.2l-1.6-0.5L60.2,25.2z"/>
				</g>
			</g>
			<g>
				<g>
					<path fill="#F1F2F2" d="M54.7,24.4c-0.1-0.8-0.8-1.4-1.6-1.4c-0.9,0-1.6,0.7-1.6,1.6c0,0.2,0,0.4,0.1,0.5
						c0.2,0.6,0.8,1.1,1.5,1.1c0.7,0,1.4-0.5,1.6-1.2c0-0.2,0.1-0.3,0.1-0.5C54.7,24.6,54.7,24.5,54.7,24.4z"/>
				</g>
				<g>
					<path fill="#F16723" d="M53.1,23c-0.9,0-1.6,0.7-1.6,1.6c0,0.2,0,0.4,0.1,0.5l1.5-0.5C53.1,24.7,53.1,23.9,53.1,23z"/>
				</g>
				<g>
					<path fill="#FFFFFF" d="M52.8,23.1l0.2,1.6l0.8-1.4c-0.2-0.1-0.4-0.2-0.8-0.2C53,23,52.9,23,52.8,23.1z"/>
				</g>
				<g>
					<path fill="#85BAE4" d="M51.5,25.2c0.2,0.6,0.8,1.1,1.5,1.1c0.7,0,1.4-0.5,1.6-1.2l-1.6-0.5L51.5,25.2z"/>
				</g>
			</g>
		</g>
		<g>
			<g>
				<g>
					<g>
						<path fill="#FFFAF1" d="M57.2,18.6c-0.8,0.1-1.4,0.8-1.4,1.6c0,0.9,0.7,1.6,1.6,1.6c0.2,0,0.4,0,0.5-0.1
							c0.6-0.2,1.1-0.8,1.1-1.5c0-0.7-0.5-1.4-1.2-1.6c-0.2,0-0.3-0.1-0.5-0.1C57.3,18.6,57.3,18.6,57.2,18.6z"/>
					</g>
					<g>
						<path fill="#F16723" d="M57.2,18.6l0.2,1.6l0.5-1.6c-0.2,0-0.3-0.1-0.5-0.1C57.3,18.6,57.3,18.6,57.2,18.6z"/>
					</g>
					<g>
						<path fill="#85BAE4" d="M57.2,18.6c-0.8,0.1-1.4,0.8-1.4,1.6c0,0.9,0.7,1.6,1.6,1.6c0.2,0,0.4,0,0.5-0.1l-0.5-1.5L57.2,18.6z"
							/>
					</g>
					<g>
						<path fill="#FFFFFF" d="M58,21.8c0.6-0.2,1.1-0.8,1.1-1.5c0-0.7-0.5-1.4-1.2-1.6l-0.5,1.6L58,21.8z"/>
					</g>
				</g>
			</g>
			<g>
				<g>
					<path fill="#FFFAF1" d="M51.4,20.5c0.1,0.8,0.8,1.4,1.6,1.4c0.9,0,1.6-0.7,1.6-1.6c0-0.2,0-0.4-0.1-0.5
						c-0.2-0.6-0.8-1.1-1.5-1.1c-0.7,0-1.4,0.5-1.6,1.2c0,0.2-0.1,0.3-0.1,0.5C51.4,20.3,51.4,20.4,51.4,20.5z"/>
				</g>
				<g>
					<path fill="#85BAE4" d="M53.1,21.9c0.9,0,1.6-0.7,1.6-1.6c0-0.2,0-0.4-0.1-0.5l-1.5,0.5C53.1,20.2,53.1,21,53.1,21.9z"/>
				</g>
				<g>
					<path fill="#F16723" d="M53.3,21.9l-0.2-1.6l-0.8,1.4c0.2,0.1,0.4,0.2,0.8,0.2C53.2,21.9,53.2,21.9,53.3,21.9z"/>
				</g>
				<g>
					<path fill="#FFFFFF" d="M54.6,19.7c-0.2-0.6-0.8-1.1-1.5-1.1c-0.7,0-1.4,0.5-1.6,1.2l1.6,0.5L54.6,19.7z"/>
				</g>
			</g>
			<g>
				<g>
					<path fill="#F1F2F2" d="M62,21.9c0.8-0.1,1.4-0.8,1.4-1.6c0-0.9-0.7-1.6-1.6-1.6c-0.2,0-0.4,0-0.5,0.1
						c-0.6,0.2-1.1,0.8-1.1,1.5c0,0.7,0.5,1.4,1.2,1.6c0.2,0,0.3,0.1,0.5,0.1C61.9,21.9,61.9,21.9,62,21.9z"/>
				</g>
				<g>
					<path fill="#85BAE4" d="M63.4,20.2c0-0.9-0.7-1.6-1.6-1.6c-0.2,0-0.4,0-0.5,0.1l0.5,1.5C61.8,20.2,62.6,20.2,63.4,20.2z"/>
				</g>
				<g>
					<path fill="#F16723" d="M63.4,20l-1.6,0.2l1.4,0.8c0.1-0.2,0.2-0.4,0.2-0.8C63.4,20.1,63.4,20.1,63.4,20z"/>
				</g>
				<g>
					<path fill="#85BAE4" d="M61.2,18.7c-0.6,0.2-1.1,0.8-1.1,1.5c0,0.7,0.5,1.4,1.2,1.6l0.5-1.6L61.2,18.7z"/>
				</g>
			</g>
		</g>
	</g>
	<g>
		<line fill="none" stroke="#808285" stroke-width="1.4989" stroke-miterlimit="10" x1="36.1" y1="7.3" x2="79.1" y2="7.3"/>
		<line fill="none" stroke="#808285" stroke-width="1.4989" stroke-miterlimit="10" x1="36.1" y1="9" x2="79.1" y2="9"/>
		<line fill="none" stroke="#808285" stroke-width="1.4989" stroke-miterlimit="10" x1="36.1" y1="10.6" x2="79.1" y2="10.6"/>
		<line fill="none" stroke="#808285" stroke-width="1.4989" stroke-miterlimit="10" x1="36.1" y1="12.3" x2="79.1" y2="12.3"/>
		<line fill="none" stroke="#808285" stroke-width="1.4989" stroke-miterlimit="10" x1="36.1" y1="14" x2="79.1" y2="14"/>
	</g>
</g>
<g id="Line_Graph">
	<polyline fill="none" stroke="#FFFFFF" stroke-width="2" stroke-miterlimit="10" points="36,25.1 38,25.1 38.6,23 39.9,23.7 
		41.6,21.6 44,22.7 45.8,18.5 49.5,17.7 49.9,17.7 	"/>
	<path fill="none" stroke="#85BAE4" stroke-width="2" stroke-miterlimit="10" d="M46.7,19.2"/>
	<circle fill="#F16723" cx="45.8" cy="18.5" r="0.4"/>
	<circle fill="#F16723" cx="41.6" cy="21.5" r="0.4"/>
</g>
<g id="Laptop_1_">
	<g id="Laptop">
		<g>
			<path fill="#464E5D" d="M6.3,36.9V15.8c0-0.6,0.5-1.1,1.1-1.1H38c0.6,0,1.1,0.5,1.1,1.1v21.1H6.3z"/>
		</g>
		<g>
			<path fill="#D6D6D6" d="M1.4,36.1c0.4,0.6,1.1,1,1.9,1h38.9c0.8,0,1.5-0.4,1.9-1H1.4z"/>
		</g>
		<g>
			<rect x="7.8" y="16.2" fill="#D8DCE3" width="29.9" height="18.8"/>
		</g>
		<g>
			<path fill="#AAAFB5" d="M19.8,36.1c0.1,0.2,0.3,0.4,0.6,0.4H25c0.3,0,0.5-0.1,0.6-0.4H19.8z"/>
		</g>
		<g>
			<circle fill="#FFFFFF" cx="22.7" cy="15.4" r="0.1"/>
		</g>
		<g>
			<circle fill="#FFFFFF" cx="28.6" cy="24.5" r="0.2"/>
		</g>
		<g opacity="0.2">
			<polygon fill="#FFFFFF" points="7.8,35 7.8,35 37.7,35 37.7,16.2 			"/>
		</g>
	</g>
	<g>
		<circle fill="#FFFFFF" cx="22.7" cy="15.5" r="0.1"/>
	</g>
	<path fill="#E3E5E5" d="M37.7,17.7c0,0.1-0.3,0.2-0.6,0.2H8.4c-0.3,0-0.6-0.1-0.6-0.2v-1.3c0-0.1,0.3-0.2,0.6-0.2h28.7
		c0.3,0,0.6,0.1,0.6,0.2V17.7z"/>
	<g>
		<rect x="7.8" y="17.2" fill="#F4F4F4" width="29.9" height="17.8"/>
	</g>
	<g>
		<g>
			<circle fill="#F16673" cx="8.3" cy="16.7" r="0.1"/>
		</g>
		<g>
			<circle fill="#FFD14E" cx="8.7" cy="16.7" r="0.1"/>
		</g>
		<g>
			<circle fill="#6CC175" cx="9.2" cy="16.7" r="0.1"/>
		</g>
	</g>
	<path fill="none" stroke="#85BAE4" stroke-width="1.3031" stroke-miterlimit="10" d="M15.7,26.7"/>
	<g>
		<g>
			<g>
				<rect x="8.8" y="26.4" fill="#BCBEC0" width="9" height="7.5"/>
			</g>
			<g>
				<rect x="18.2" y="26.4" fill="#BCBEC0" width="9" height="7.5"/>
			</g>
			<g>
				<rect x="27.7" y="26.4" fill="#BCBEC0" width="9" height="7.5"/>
			</g>
		</g>
		<polyline fill="none" stroke="#FFFFFF" stroke-width="1.3031" stroke-miterlimit="10" points="8.7,31.9 10,31.9 10.5,30.5 
			11.3,31 12.4,29.6 13.9,30.3 15.1,27.6 17.5,27 17.8,27 		"/>
		<circle fill="#F16723" cx="15.1" cy="27.6" r="0.3"/>
		<circle fill="#F16723" cx="12.4" cy="29.6" r="0.3"/>
	</g>
	<g>
		<rect x="29.4" y="30.3" fill="#85BAE4" width="0.8" height="2.4"/>
		<rect x="30.6" y="29.8" fill="#85BAE4" width="0.8" height="2.9"/>
		<rect x="31.8" y="30.5" fill="#85BAE4" width="0.8" height="2.1"/>
		<rect x="33.1" y="29.7" fill="#85BAE4" width="0.8" height="2.9"/>
		<rect x="34.3" y="28.2" fill="#85BAE4" width="0.8" height="4.5"/>
	</g>
	<g>
		<g>
			<g>
				<g>
					<path fill="#FFFAF1" d="M23.8,31.5c-0.1-0.5-0.5-0.9-1.1-0.9c-0.6,0-1.1,0.5-1.1,1.1c0,0.1,0,0.2,0.1,0.4
						c0.1,0.4,0.5,0.7,1,0.7c0.5,0,0.9-0.3,1-0.8c0-0.1,0-0.2,0-0.3C23.8,31.6,23.8,31.5,23.8,31.5z"/>
				</g>
				<g>
					<path fill="#F16723" d="M23.8,31.5l-1.1,0.1l1,0.3c0-0.1,0-0.2,0-0.3C23.8,31.6,23.8,31.5,23.8,31.5z"/>
				</g>
				<g>
					<path fill="#85BAE4" d="M23.8,31.5c-0.1-0.5-0.5-0.9-1.1-0.9c-0.6,0-1.1,0.5-1.1,1.1c0,0.1,0,0.2,0.1,0.4l1-0.4L23.8,31.5z"/>
				</g>
				<g>
					<path fill="#FFFFFF" d="M21.7,32c0.1,0.4,0.5,0.7,1,0.7c0.5,0,0.9-0.3,1-0.8l-1-0.3L21.7,32z"/>
				</g>
			</g>
		</g>
		<g>
			<g>
				<path fill="#FFFAF1" d="M26.6,31.5c-0.1-0.5-0.5-0.9-1.1-0.9c-0.6,0-1.1,0.5-1.1,1.1c0,0.1,0,0.2,0.1,0.4c0.1,0.4,0.5,0.7,1,0.7
					c0.5,0,0.9-0.3,1-0.8c0-0.1,0-0.2,0-0.3C26.6,31.6,26.6,31.5,26.6,31.5z"/>
			</g>
			<g>
				<path fill="#85BAE4" d="M25.5,30.5c-0.6,0-1.1,0.5-1.1,1.1c0,0.1,0,0.2,0.1,0.4l1-0.4C25.5,31.6,25.5,31.1,25.5,30.5z"/>
			</g>
			<g>
				<path fill="#F16723" d="M25.4,30.6l0.2,1.1l0.5-0.9c-0.1-0.1-0.3-0.1-0.5-0.1C25.5,30.5,25.4,30.5,25.4,30.6z"/>
			</g>
			<g>
				<path fill="#FFFFFF" d="M24.5,32c0.1,0.4,0.5,0.7,1,0.7c0.5,0,0.9-0.3,1-0.8l-1-0.3L24.5,32z"/>
			</g>
		</g>
		<g>
			<g>
				<path fill="#F1F2F2" d="M20.9,31.5c-0.1-0.5-0.5-0.9-1.1-0.9c-0.6,0-1.1,0.5-1.1,1.1c0,0.1,0,0.2,0.1,0.4c0.1,0.4,0.5,0.7,1,0.7
					c0.5,0,0.9-0.3,1-0.8c0-0.1,0-0.2,0-0.3C20.9,31.6,20.9,31.5,20.9,31.5z"/>
			</g>
			<g>
				<path fill="#F16723" d="M19.9,30.5c-0.6,0-1.1,0.5-1.1,1.1c0,0.1,0,0.2,0.1,0.4l1-0.4C19.9,31.6,19.9,31.1,19.9,30.5z"/>
			</g>
			<g>
				<path fill="#FFFFFF" d="M19.7,30.6l0.2,1.1l0.5-0.9c-0.1-0.1-0.3-0.1-0.5-0.1C19.8,30.5,19.8,30.5,19.7,30.6z"/>
			</g>
			<g>
				<path fill="#85BAE4" d="M18.9,32c0.1,0.4,0.5,0.7,1,0.7c0.5,0,0.9-0.3,1-0.8l-1-0.3L18.9,32z"/>
			</g>
		</g>
	</g>
	<g>
		<g>
			<g>
				<g>
					<path fill="#FFFAF1" d="M22.5,27.7c-0.5,0.1-0.9,0.5-0.9,1.1c0,0.6,0.5,1.1,1.1,1.1c0.1,0,0.2,0,0.4-0.1c0.4-0.1,0.7-0.5,0.7-1
						c0-0.5-0.3-0.9-0.8-1c-0.1,0-0.2,0-0.3,0C22.6,27.6,22.6,27.7,22.5,27.7z"/>
				</g>
				<g>
					<path fill="#F16723" d="M22.5,27.7l0.1,1.1l0.3-1c-0.1,0-0.2,0-0.3,0C22.6,27.6,22.6,27.7,22.5,27.7z"/>
				</g>
				<g>
					<path fill="#85BAE4" d="M22.5,27.7c-0.5,0.1-0.9,0.5-0.9,1.1c0,0.6,0.5,1.1,1.1,1.1c0.1,0,0.2,0,0.4-0.1l-0.4-1L22.5,27.7z"/>
				</g>
				<g>
					<path fill="#FFFFFF" d="M23,29.7c0.4-0.1,0.7-0.5,0.7-1c0-0.5-0.3-0.9-0.8-1l-0.3,1L23,29.7z"/>
				</g>
			</g>
		</g>
		<g>
			<g>
				<path fill="#FFFAF1" d="M18.8,28.9c0.1,0.5,0.5,0.9,1.1,0.9c0.6,0,1.1-0.5,1.1-1.1c0-0.1,0-0.2-0.1-0.4c-0.1-0.4-0.5-0.7-1-0.7
					c-0.5,0-0.9,0.3-1,0.8c0,0.1,0,0.2,0,0.3C18.8,28.8,18.8,28.8,18.8,28.9z"/>
			</g>
			<g>
				<path fill="#85BAE4" d="M19.9,29.8c0.6,0,1.1-0.5,1.1-1.1c0-0.1,0-0.2-0.1-0.4l-1,0.4C19.9,28.7,19.9,29.2,19.9,29.8z"/>
			</g>
			<g>
				<path fill="#F16723" d="M20,29.8l-0.2-1.1l-0.5,0.9c0.1,0.1,0.3,0.1,0.5,0.1C19.9,29.8,20,29.8,20,29.8z"/>
			</g>
			<g>
				<path fill="#FFFFFF" d="M20.9,28.4c-0.1-0.4-0.5-0.7-1-0.7c-0.5,0-0.9,0.3-1,0.8l1,0.3L20.9,28.4z"/>
			</g>
		</g>
		<g>
			<g>
				<path fill="#F1F2F2" d="M25.7,29.8c0.5-0.1,0.9-0.5,0.9-1.1c0-0.6-0.5-1.1-1.1-1.1c-0.1,0-0.2,0-0.4,0.1c-0.4,0.1-0.7,0.5-0.7,1
					c0,0.5,0.3,0.9,0.8,1c0.1,0,0.2,0,0.3,0C25.6,29.8,25.6,29.8,25.7,29.8z"/>
			</g>
			<g>
				<path fill="#85BAE4" d="M26.6,28.7c0-0.6-0.5-1.1-1.1-1.1c-0.1,0-0.2,0-0.4,0.1l0.4,1C25.5,28.7,26.1,28.7,26.6,28.7z"/>
			</g>
			<g>
				<path fill="#F16723" d="M26.6,28.6l-1.1,0.2l0.9,0.5c0.1-0.1,0.1-0.3,0.1-0.5C26.6,28.7,26.6,28.6,26.6,28.6z"/>
			</g>
			<g>
				<path fill="#85BAE4" d="M25.2,27.7c-0.4,0.1-0.7,0.5-0.7,1c0,0.5,0.3,0.9,0.8,1l0.3-1L25.2,27.7z"/>
			</g>
		</g>
	</g>
	<g>
		<rect x="8.7" y="18.3" fill="#D8D8D8" width="28" height="7.3"/>
	</g>
	<g>
		<line fill="none" stroke="#808285" stroke-width="0.9737" stroke-miterlimit="10" x1="8.8" y1="19.8" x2="36.7" y2="19.8"/>
		<line fill="none" stroke="#808285" stroke-width="0.9737" stroke-miterlimit="10" x1="8.8" y1="20.9" x2="36.7" y2="20.9"/>
		<line fill="none" stroke="#808285" stroke-width="0.9737" stroke-miterlimit="10" x1="8.8" y1="22" x2="36.7" y2="22"/>
		<line fill="none" stroke="#808285" stroke-width="0.9737" stroke-miterlimit="10" x1="8.8" y1="23" x2="36.7" y2="23"/>
		<line fill="none" stroke="#808285" stroke-width="0.9737" stroke-miterlimit="10" x1="8.8" y1="24.1" x2="36.7" y2="24.1"/>
	</g>
	<g opacity="0.2">
		<polygon fill="#FFFFFF" points="7.7,34.9 37.7,34.9 37.7,16.1 		"/>
	</g>
</g>
<g id="Tablet">
	<g id="tablet_1_">
		<g>
			<g>
				<path fill="#A8AAAC" d="M89.6,35.8c0,0.8-0.7,1.5-1.5,1.5H76.1c-0.8,0-1.5-0.7-1.5-1.5V17c0-0.8,0.7-1.5,1.5-1.5h12.1
					c0.8,0,1.5,0.7,1.5,1.5V35.8z"/>
			</g>
		</g>
		<g>
			<g>
				<path fill="#464E5D" d="M89.6,35.7c0,0.8-0.7,1.5-1.5,1.5H76.1c-0.8,0-1.5-0.7-1.5-1.5V16.8c0-0.8,0.7-1.5,1.5-1.5h12.1
					c0.8,0,1.5,0.7,1.5,1.5V35.7z"/>
			</g>
		</g>
		<g>
			<g>
				<rect x="75.2" y="18.3" fill="#F4F4F4" width="13.8" height="15.9"/>
			</g>
		</g>
		<g>
			<g>
				<rect x="89.6" y="18.8" fill="#3E3E3E" width="0.1" height="0.9"/>
			</g>
		</g>
		<g>
			<g>
				<rect x="89.6" y="20.3" fill="#3E3E3E" width="0.1" height="0.9"/>
			</g>
		</g>
		<g>
			<g>
				<rect x="89.6" y="21.8" fill="#3E3E3E" width="0.1" height="0.9"/>
			</g>
		</g>
		<g>
			<g>
				<circle fill="#FFFFFF" cx="83.5" cy="16.5" r="0.2"/>
			</g>
		</g>
		<g>
			<g>
				<path fill="#FFFFFF" d="M82.9,16.6h-2.2c-0.1,0-0.1-0.1-0.1-0.1c0-0.1,0.1-0.1,0.1-0.1h2.2c0.1,0,0.1,0.1,0.1,0.1
					C83,16.5,83,16.6,82.9,16.6z"/>
			</g>
		</g>
		<g>
			<circle fill="#FFFFFF" cx="82.1" cy="35.8" r="0.5"/>
		</g>
	</g>
	<g>
		<circle fill="#FFFFFF" cx="89.9" cy="17.6" r="0.1"/>
	</g>
	<g>
		<rect x="75.6" y="18.8" fill="#D8D8D8" width="13.1" height="7.3"/>
	</g>
	<path fill="none" stroke="#85BAE4" stroke-width="1.3031" stroke-miterlimit="10" d="M82.9,28.7"/>
	
		<polyline display="none" fill="none" stroke="#808285" stroke-width="0.9773" stroke-linecap="round" stroke-linejoin="round" stroke-miterlimit="10" points="
		476.6,161 478.8,161 481.9,160.9 483.8,155.9 484.4,163.4 485.1,160.9 486.8,160.9 488,160.9 491.8,160.9 494.4,160.9 495.7,160.9 
		495.7,160.9 498.3,160.9 500.5,158.6 501.1,163.7 501.9,160.9 503.7,160.9 505,160.8 505,160.8 506.1,160.8 506.6,159.8 
		507.1,160.7 508.8,160.7 510.5,155.9 511.4,164.1 512.4,160.7 519.4,160.7 520.8,160.7 520.8,160.7 522.5,160.7 523.8,160.7 
		523.8,160.7 524.4,160 525.1,160.7 529.8,160.7 531.2,160 531.6,164.1 532.6,160.7 535.7,160.7 536.3,159.5 537.4,160.7 
		542.7,160.7 546.1,154.2 547.8,160.7 549.1,158.1 550.2,160.7 551,159.4 552.3,160.6 	"/>
	
		<polyline display="none" fill="none" stroke="#808285" stroke-width="0.9773" stroke-linecap="round" stroke-linejoin="round" stroke-miterlimit="10" points="
		476.6,174.1 478.8,174.1 481.9,174 483.8,169 484.4,176.5 485.1,174 486.8,174 488,174 488.5,174 491.1,174 491.7,172.7 492.4,174 
		495,174 496,173.2 497.9,176.8 499.3,174 508.8,173.8 511,173.2 511.4,177.2 512.4,173.8 519.4,173.8 520.2,172.7 520.8,173.8 
		524.6,173.8 526.8,166.3 527.5,174.5 527.4,173.8 535.7,173.8 536.3,172.7 537.4,173.8 544.7,173.8 547.1,166.4 548.9,173.8 
		548.9,173.8 552.3,173.7 	"/>
	
		<polyline display="none" fill="none" stroke="#808285" stroke-width="0.9773" stroke-linecap="round" stroke-linejoin="round" stroke-miterlimit="10" points="
		476.6,186.1 478,186 479,178.9 480,185.8 481.2,186 486.8,186 488,182.8 489.2,186 494.4,186 494.9,184.7 495.7,186 498.3,186 
		499.4,184.8 501.1,188.8 501.9,186 503.7,186 506.1,185.9 506.6,184.9 507.1,185.8 508.8,185.8 509.6,183.4 510.8,187.4 
		512.4,185.8 519.4,185.8 519.9,186.8 520.8,185.8 522.5,185.8 523.3,184.6 523.8,185.8 524.4,185.1 525.1,185.8 529.8,185.8 
		530.8,181 531.6,189.2 532.6,185.8 535.7,185.8 536.3,184.6 537.4,185.8 542.7,185.8 544.5,181 546,189.2 547,185.8 550.2,185.8 
		552.3,185.7 552.3,185.7 	"/>
	<g>
		<rect x="75.7" y="26.5" fill="#BCBEC0" width="12.9" height="7.3"/>
	</g>
	<g>
		<g>
			<g>
				<g>
					<path fill="#FFFAF1" d="M83.3,31.8c-0.1-0.6-0.6-1.1-1.2-1.1c-0.7,0-1.2,0.5-1.2,1.2c0,0.1,0,0.3,0.1,0.4
						c0.2,0.5,0.6,0.8,1.2,0.8c0.6,0,1-0.4,1.2-0.9c0-0.1,0.1-0.2,0.1-0.4C83.3,31.9,83.3,31.8,83.3,31.8z"/>
				</g>
				<g>
					<path fill="#F16723" d="M83.3,31.8l-1.2,0.2l1.2,0.4c0-0.1,0.1-0.2,0.1-0.4C83.3,31.9,83.3,31.8,83.3,31.8z"/>
				</g>
				<g>
					<path fill="#85BAE4" d="M83.3,31.8c-0.1-0.6-0.6-1.1-1.2-1.1c-0.7,0-1.2,0.5-1.2,1.2c0,0.1,0,0.3,0.1,0.4l1.2-0.4L83.3,31.8z"
						/>
				</g>
				<g>
					<path fill="#FFFFFF" d="M81,32.3c0.2,0.5,0.6,0.8,1.2,0.8c0.6,0,1-0.4,1.2-0.9l-1.2-0.4L81,32.3z"/>
				</g>
			</g>
		</g>
		<g>
			<g>
				<g>
					<path fill="#FFFAF1" d="M82,27.4c-0.6,0.1-1.1,0.6-1.1,1.2c0,0.7,0.5,1.2,1.2,1.2c0.1,0,0.3,0,0.4-0.1c0.5-0.2,0.8-0.6,0.8-1.2
						c0-0.6-0.4-1-0.9-1.2c-0.1,0-0.2-0.1-0.4-0.1C82.1,27.4,82,27.4,82,27.4z"/>
				</g>
				<g>
					<path fill="#F16723" d="M82,27.4l0.2,1.2l0.4-1.2c-0.1,0-0.2-0.1-0.4-0.1C82.1,27.4,82,27.4,82,27.4z"/>
				</g>
				<g>
					<path fill="#85BAE4" d="M82,27.4c-0.6,0.1-1.1,0.6-1.1,1.2c0,0.7,0.5,1.2,1.2,1.2c0.1,0,0.3,0,0.4-0.1l-0.4-1.2L82,27.4z"/>
				</g>
				<g>
					<path fill="#FFFFFF" d="M82.5,29.8c0.5-0.2,0.8-0.6,0.8-1.2c0-0.6-0.4-1-0.9-1.2l-0.4,1.2L82.5,29.8z"/>
				</g>
			</g>
		</g>
	</g>
	<g>
		<g>
			<g>
				<path fill="#F1F2F2" d="M79.5,31.8c-0.1-0.6-0.6-1.1-1.2-1.1c-0.7,0-1.2,0.5-1.2,1.2c0,0.1,0,0.3,0.1,0.4
					c0.2,0.5,0.6,0.8,1.2,0.8c0.6,0,1-0.4,1.2-0.9c0-0.1,0.1-0.2,0.1-0.4C79.5,31.9,79.5,31.8,79.5,31.8z"/>
			</g>
			<g>
				<path fill="#F16723" d="M78.3,30.7c-0.7,0-1.2,0.5-1.2,1.2c0,0.1,0,0.3,0.1,0.4l1.2-0.4C78.3,31.9,78.3,31.3,78.3,30.7z"/>
			</g>
			<g>
				<path fill="#FFFFFF" d="M78.1,30.7l0.2,1.2l0.6-1.1c-0.1-0.1-0.3-0.1-0.6-0.1C78.2,30.7,78.2,30.7,78.1,30.7z"/>
			</g>
			<g>
				<path fill="#85BAE4" d="M77.1,32.3c0.2,0.5,0.6,0.8,1.2,0.8c0.6,0,1-0.4,1.2-0.9l-1.2-0.4L77.1,32.3z"/>
			</g>
		</g>
		<g>
			<g>
				<path fill="#FFFAF1" d="M77.1,28.8c0.1,0.6,0.6,1.1,1.2,1.1c0.7,0,1.2-0.5,1.2-1.2c0-0.1,0-0.3-0.1-0.4
					c-0.2-0.5-0.6-0.8-1.2-0.8c-0.6,0-1,0.4-1.2,0.9c0,0.1-0.1,0.2-0.1,0.4C77.1,28.7,77.1,28.7,77.1,28.8z"/>
			</g>
			<g>
				<path fill="#85BAE4" d="M78.3,29.8c0.7,0,1.2-0.5,1.2-1.2c0-0.1,0-0.3-0.1-0.4l-1.2,0.4C78.3,28.6,78.3,29.2,78.3,29.8z"/>
			</g>
			<g>
				<path fill="#F16723" d="M78.5,29.8l-0.2-1.2l-0.6,1.1c0.1,0.1,0.3,0.1,0.6,0.1C78.3,29.8,78.4,29.8,78.5,29.8z"/>
			</g>
			<g>
				<path fill="#FFFFFF" d="M79.4,28.2c-0.2-0.5-0.6-0.8-1.2-0.8c-0.6,0-1,0.4-1.2,0.9l1.2,0.4L79.4,28.2z"/>
			</g>
		</g>
	</g>
	<g>
		<g>
			<g>
				<path fill="#FFFAF1" d="M87.2,31.8c-0.1-0.6-0.6-1.1-1.2-1.1c-0.7,0-1.2,0.5-1.2,1.2c0,0.1,0,0.3,0.1,0.4
					c0.2,0.5,0.6,0.8,1.2,0.8c0.6,0,1-0.4,1.2-0.9c0-0.1,0.1-0.2,0.1-0.4C87.2,31.9,87.2,31.8,87.2,31.8z"/>
			</g>
			<g>
				<path fill="#85BAE4" d="M86,30.7c-0.7,0-1.2,0.5-1.2,1.2c0,0.1,0,0.3,0.1,0.4l1.2-0.4C86,31.9,86,31.3,86,30.7z"/>
			</g>
			<g>
				<path fill="#F16723" d="M85.8,30.7l0.2,1.2l0.6-1.1c-0.1-0.1-0.3-0.1-0.6-0.1C85.9,30.7,85.9,30.7,85.8,30.7z"/>
			</g>
			<g>
				<path fill="#FFFFFF" d="M84.8,32.3c0.2,0.5,0.6,0.8,1.2,0.8c0.6,0,1-0.4,1.2-0.9L86,31.9L84.8,32.3z"/>
			</g>
		</g>
		<g>
			<g>
				<path fill="#F1F2F2" d="M86.1,29.8c0.6-0.1,1.1-0.6,1.1-1.2c0-0.7-0.5-1.2-1.2-1.2c-0.1,0-0.3,0-0.4,0.1
					c-0.5,0.2-0.8,0.6-0.8,1.2c0,0.6,0.4,1,0.9,1.2c0.1,0,0.2,0.1,0.4,0.1C86,29.8,86.1,29.8,86.1,29.8z"/>
			</g>
			<g>
				<path fill="#85BAE4" d="M87.2,28.6c0-0.7-0.5-1.2-1.2-1.2c-0.1,0-0.3,0-0.4,0.1l0.4,1.2C86,28.6,86.6,28.6,87.2,28.6z"/>
			</g>
			<g>
				<path fill="#F16723" d="M87.2,28.4L86,28.6l1.1,0.6c0.1-0.1,0.1-0.3,0.1-0.6C87.2,28.6,87.2,28.5,87.2,28.4z"/>
			</g>
			<g>
				<path fill="#85BAE4" d="M85.6,27.5c-0.5,0.2-0.8,0.6-0.8,1.2c0,0.6,0.4,1,0.9,1.2l0.4-1.2L85.6,27.5z"/>
			</g>
		</g>
	</g>
	<g>
		<line fill="none" stroke="#808285" stroke-width="0.6647" stroke-miterlimit="10" x1="75.6" y1="20.3" x2="88.6" y2="20.3"/>
		<line fill="none" stroke="#808285" stroke-width="0.6647" stroke-miterlimit="10" x1="75.6" y1="21.4" x2="88.6" y2="21.4"/>
		<line fill="none" stroke="#808285" stroke-width="0.6647" stroke-miterlimit="10" x1="75.6" y1="22.5" x2="88.6" y2="22.5"/>
		<line fill="none" stroke="#808285" stroke-width="0.6647" stroke-miterlimit="10" x1="75.6" y1="23.5" x2="88.6" y2="23.5"/>
		<line fill="none" stroke="#808285" stroke-width="0.6647" stroke-miterlimit="10" x1="75.6" y1="24.6" x2="88.6" y2="24.6"/>
	</g>
	<g opacity="0.2">
		<polygon fill="#FFFFFF" points="75.2,34.2 89,34.2 89,18.3 		"/>
	</g>
</g>
<g id="Phone_1_">
	<g id="Phone">
		<g>
			<g>
				<path fill="#A8AAAC" d="M94.2,37.8c0,0.5-0.4,1-1,1h-4.6c-0.5,0-1-0.4-1-1v-12c0-0.5,0.4-1,1-1h4.6c0.5,0,1,0.4,1,1V37.8z"/>
			</g>
		</g>
		<g>
			<g>
				<path fill="#464E5D" d="M94.2,37.7c0,0.5-0.4,1-1,1h-4.6c-0.5,0-1-0.4-1-1v-12c0-0.5,0.4-1,1-1h4.6c0.5,0,1,0.4,1,1V37.7z"/>
			</g>
		</g>
		<g>
			<circle fill="#FFFFFF" cx="90.9" cy="37.7" r="0.3"/>
		</g>
		<g>
			<g>
				<rect x="88.1" y="26.6" fill="#F4F4F4" width="5.7" height="10.1"/>
			</g>
		</g>
		<g>
			<g>
				<rect x="94.2" y="26.9" fill="#3E3E3E" width="0.1" height="0.6"/>
			</g>
		</g>
		<g>
			<g>
				<rect x="94.2" y="27.9" fill="#3E3E3E" width="0.1" height="0.6"/>
			</g>
		</g>
		<g>
			<g>
				<rect x="94.2" y="28.8" fill="#3E3E3E" width="0.1" height="0.6"/>
			</g>
		</g>
		<g>
			<g>
				<circle fill="#FFFFFF" cx="92" cy="25.4" r="0.1"/>
			</g>
		</g>
		<g>
			<g>
				<path fill="#FFFFFF" d="M91.7,25.5h-1.4c0,0-0.1,0-0.1-0.1c0,0,0-0.1,0.1-0.1h1.4C91.7,25.3,91.7,25.4,91.7,25.5
					C91.7,25.4,91.7,25.5,91.7,25.5z"/>
			</g>
		</g>
		<g>
			<polygon fill="#EE4D50" points="89.7,32 89.7,32 89.7,32 			"/>
		</g>
	</g>
	<g>
		<rect x="88.4" y="26.9" fill="#D8D8D8" width="5.1" height="4.6"/>
	</g>
	<path fill="none" stroke="#85BAE4" stroke-width="0.8174" stroke-miterlimit="10" d="M93,33.2"/>
	
		<polyline display="none" fill="none" stroke="#808285" stroke-width="0.6131" stroke-linecap="round" stroke-linejoin="round" stroke-miterlimit="10" points="
		551.4,204.9 552.8,204.9 554.7,204.9 555.9,201.7 556.3,206.4 556.7,204.9 557.8,204.9 558.5,204.9 560.9,204.9 562.5,204.9 
		563.3,204.9 563.3,204.9 565,204.9 566.4,203.4 566.8,206.6 567.2,204.8 569.9,204.8 570.2,204.1 570.5,204.7 571.6,204.7 
		572.6,201.7 573.2,206.8 573.8,204.7 578.3,204.7 579.1,204.7 579.1,204.7 580.2,204.7 581,202.7 	"/>
	
		<polyline display="none" fill="none" stroke="#808285" stroke-width="0.6131" stroke-linecap="round" stroke-linejoin="round" stroke-miterlimit="10" points="
		551.4,213.1 552.8,213.1 554.7,213.1 555.9,209.9 556.3,214.6 556.7,213.1 557.8,213.1 558.5,213.1 558.8,213.1 560.5,213.1 
		560.8,212.3 561.3,213.1 562.9,213.1 563.6,212.6 564.7,214.8 565.6,213 571.6,212.9 572.9,212.6 573.2,215.1 573.8,212.9 
		578.3,212.9 578.7,212.3 579.1,213 581,213 	"/>
	
		<path fill="none" stroke="#808285" stroke-width="0.6131" stroke-linecap="round" stroke-linejoin="round" stroke-miterlimit="10" d="
		M95.9,31"/>
	
		<polyline display="none" fill="none" stroke="#808285" stroke-width="0.6131" stroke-linecap="round" stroke-linejoin="round" stroke-miterlimit="10" points="
		551.4,220.7 552.2,220.6 552.9,216.1 553.5,220.4 554.3,220.6 557.8,220.6 558.5,218.6 559.3,220.6 562.5,220.6 562.9,219.8 
		563.3,220.6 565,220.6 565.7,219.8 566.8,222.3 567.2,220.6 568.4,220.6 569.9,220.5 570.2,219.9 570.5,220.5 571.6,220.5 
		572.1,219 572.9,221.5 573.8,220.5 578.3,220.5 578.6,221.1 579.1,220.5 580.2,220.5 580.7,219.7 581,220.5 	"/>
	<g>
		<rect x="88.4" y="31.8" fill="#BCBEC0" width="5.1" height="4.6"/>
	</g>
	<g display="none">
		<g display="inline">
			<g>
				<g>
					<path fill="#FFFAF1" d="M577.9,246.2c-0.3-2.4-2.4-4.3-4.9-4.3c-2.8,0-5,2.2-5,5c0,0.6,0.1,1.1,0.3,1.6
						c0.7,1.9,2.5,3.3,4.7,3.3c2.2,0,4.1-1.5,4.8-3.5c0.1-0.5,0.2-0.9,0.2-1.5C577.9,246.7,577.9,246.4,577.9,246.2z"/>
				</g>
				<g>
					<path fill="#F16723" d="M577.9,246.2l-4.9,0.7l4.8,1.5c0.1-0.5,0.2-0.9,0.2-1.5C577.9,246.7,577.9,246.4,577.9,246.2z"/>
				</g>
				<g>
					<path fill="#85BAE4" d="M577.9,246.2c-0.3-2.4-2.4-4.3-4.9-4.3c-2.8,0-5,2.2-5,5c0,0.6,0.1,1.1,0.3,1.6l4.7-1.6L577.9,246.2z"
						/>
				</g>
				<g>
					<path fill="#FFFFFF" d="M568.3,248.5c0.7,1.9,2.5,3.3,4.7,3.3c2.2,0,4.1-1.5,4.8-3.5l-4.8-1.5L568.3,248.5z"/>
				</g>
			</g>
		</g>
		<g display="inline">
			<g>
				<path fill="#F1F2F2" d="M564.4,246.2c-0.3-2.4-2.4-4.3-4.9-4.3c-2.8,0-5,2.2-5,5c0,0.6,0.1,1.1,0.3,1.6c0.7,1.9,2.5,3.3,4.7,3.3
					c2.2,0,4.1-1.5,4.8-3.5c0.1-0.5,0.2-0.9,0.2-1.5C564.5,246.7,564.5,246.4,564.4,246.2z"/>
			</g>
			<g>
				<path fill="#F16723" d="M559.5,241.9c-2.8,0-5,2.2-5,5c0,0.6,0.1,1.1,0.3,1.6l4.7-1.6C559.5,246.9,559.5,244.4,559.5,241.9z"/>
			</g>
			<g>
				<path fill="#FFFFFF" d="M558.8,242l0.7,4.9l2.4-4.4c-0.6-0.3-1.3-0.6-2.4-0.6C559.2,241.9,559,241.9,558.8,242z"/>
			</g>
			<g>
				<path fill="#85BAE4" d="M554.8,248.5c0.7,1.9,2.5,3.3,4.7,3.3c2.2,0,4.1-1.5,4.8-3.5l-4.8-1.5L554.8,248.5z"/>
			</g>
		</g>
		<g display="inline">
			<g>
				<g>
					<g>
						<path fill="#FFFAF1" d="M572.3,230.4c-2.4,0.3-4.3,2.4-4.3,4.9c0,2.8,2.2,5,5,5c0.6,0,1.1-0.1,1.6-0.3
							c1.9-0.7,3.3-2.5,3.3-4.7c0-2.2-1.5-4.1-3.5-4.8c-0.5-0.1-0.9-0.2-1.5-0.2C572.7,230.4,572.5,230.4,572.3,230.4z"/>
					</g>
					<g>
						<path fill="#F16723" d="M572.3,230.4l0.7,4.9l1.5-4.8c-0.5-0.1-0.9-0.2-1.5-0.2C572.7,230.4,572.5,230.4,572.3,230.4z"/>
					</g>
					<g>
						<path fill="#85BAE4" d="M572.3,230.4c-2.4,0.3-4.3,2.4-4.3,4.9c0,2.8,2.2,5,5,5c0.6,0,1.1-0.1,1.6-0.3l-1.6-4.7L572.3,230.4z"
							/>
					</g>
					<g>
						<path fill="#FFFFFF" d="M574.6,240.1c1.9-0.7,3.3-2.5,3.3-4.7c0-2.2-1.5-4.1-3.5-4.8l-1.5,4.8L574.6,240.1z"/>
					</g>
				</g>
			</g>
			<g>
				<g>
					<path fill="#FFFAF1" d="M554.5,236.1c0.3,2.4,2.4,4.3,4.9,4.3c2.8,0,5-2.2,5-5c0-0.6-0.1-1.1-0.3-1.6c-0.7-1.9-2.5-3.3-4.7-3.3
						c-2.2,0-4.1,1.5-4.8,3.5c-0.1,0.5-0.2,0.9-0.2,1.5C554.5,235.6,554.5,235.8,554.5,236.1z"/>
				</g>
				<g>
					<path fill="#85BAE4" d="M559.5,240.4c2.8,0,5-2.2,5-5c0-0.6-0.1-1.1-0.3-1.6l-4.7,1.6C559.5,235.4,559.5,237.9,559.5,240.4z"/>
				</g>
				<g>
					<path fill="#F16723" d="M560.2,240.3l-0.7-4.9l-2.4,4.4c0.6,0.3,1.3,0.6,2.4,0.6C559.8,240.4,560,240.3,560.2,240.3z"/>
				</g>
				<g>
					<path fill="#FFFFFF" d="M564.2,233.7c-0.7-1.9-2.5-3.3-4.7-3.3c-2.2,0-4.1,1.5-4.8,3.5l4.8,1.5L564.2,233.7z"/>
				</g>
			</g>
		</g>
	</g>
	<g display="none">
		<g display="inline">
			<g>
				<path fill="#FFFAF1" d="M707.9,238.1c-0.3-2.2-2.2-3.9-4.4-3.9c-2.5,0-4.5,2-4.5,4.5c0,0.5,0.1,1,0.2,1.5c0.6,1.8,2.3,3,4.2,3
					c2,0,3.7-1.3,4.3-3.2c0.1-0.4,0.2-0.9,0.2-1.3C707.9,238.5,707.9,238.3,707.9,238.1z"/>
			</g>
			<g>
				<path fill="#85BAE4" d="M703.4,234.2c-2.5,0-4.5,2-4.5,4.5c0,0.5,0.1,1,0.2,1.5l4.2-1.5C703.4,238.7,703.4,236.4,703.4,234.2z"
					/>
			</g>
			<g>
				<path fill="#F16723" d="M702.8,234.2l0.7,4.4l2.1-4c-0.5-0.3-1.1-0.5-2.2-0.5C703.2,234.2,703,234.2,702.8,234.2z"/>
			</g>
			<g>
				<path fill="#FFFFFF" d="M699.2,240.2c0.6,1.8,2.3,3,4.2,3c2,0,3.7-1.3,4.3-3.2l-4.3-1.3L699.2,240.2z"/>
			</g>
		</g>
		<g display="inline">
			<g>
				<path fill="#F1F2F2" d="M704,231c2.2-0.3,3.9-2.2,3.9-4.4c0-2.5-2-4.5-4.5-4.5c-0.5,0-1,0.1-1.5,0.2c-1.8,0.6-3,2.3-3,4.2
					c0,2,1.3,3.7,3.2,4.3c0.4,0.1,0.9,0.2,1.3,0.2C703.6,231,703.8,231,704,231z"/>
			</g>
			<g>
				<path fill="#85BAE4" d="M707.9,226.5c0-2.5-2-4.5-4.5-4.5c-0.5,0-1,0.1-1.5,0.2l1.5,4.2C703.4,226.5,705.7,226.5,707.9,226.5z"
					/>
			</g>
			<g>
				<path fill="#F16723" d="M707.9,225.9l-4.4,0.7l4,2.1c0.3-0.5,0.5-1.1,0.5-2.2C707.9,226.3,707.9,226.1,707.9,225.9z"/>
			</g>
			<g>
				<path fill="#85BAE4" d="M701.9,222.3c-1.8,0.6-3,2.3-3,4.2c0,2,1.3,3.7,3.2,4.3l1.3-4.3L701.9,222.3z"/>
			</g>
		</g>
	</g>
	<g>
		<line fill="none" stroke="#808285" stroke-width="0.3674" stroke-miterlimit="10" x1="88.4" y1="27.5" x2="93.5" y2="27.5"/>
		<line fill="none" stroke="#808285" stroke-width="0.3674" stroke-miterlimit="10" x1="88.4" y1="28.4" x2="93.5" y2="28.4"/>
		<line fill="none" stroke="#808285" stroke-width="0.3674" stroke-miterlimit="10" x1="88.4" y1="29.2" x2="93.5" y2="29.2"/>
		<line fill="none" stroke="#808285" stroke-width="0.3674" stroke-miterlimit="10" x1="88.4" y1="30.1" x2="93.5" y2="30.1"/>
		<line fill="none" stroke="#808285" stroke-width="0.3674" stroke-miterlimit="10" x1="88.4" y1="30.9" x2="93.5" y2="30.9"/>
	</g>
	<g>
		<rect x="88.9" y="34.3" fill="#85BAE4" width="0.5" height="1.7"/>
		<rect x="89.8" y="34" fill="#85BAE4" width="0.5" height="2.1"/>
		<rect x="90.7" y="34.5" fill="#85BAE4" width="0.5" height="1.5"/>
		<rect x="91.6" y="33.9" fill="#85BAE4" width="0.5" height="2.1"/>
		<rect x="92.5" y="32.8" fill="#85BAE4" width="0.5" height="3.2"/>
	</g>
	<g opacity="0.2">
		<polygon fill="#FFFFFF" points="88.1,36.7 93.8,36.7 93.8,26.6 		"/>
	</g>
</g>
</svg>
