<?xml version="1.0" encoding="utf-8"?>
<!-- Generator: Adobe Illustrator 17.1.0, SVG Export Plug-In . SVG Version: 6.00 Build 0)  -->
<!DOCTYPE svg PUBLIC "-//W3C//DTD SVG 1.1//EN" "http://www.w3.org/Graphics/SVG/1.1/DTD/svg11.dtd">
<svg version="1.1" id="Layer_1" xmlns="http://www.w3.org/2000/svg" xmlns:xlink="http://www.w3.org/1999/xlink" x="0px" y="0px"
	 viewBox="0 0 307.5 310.5" enable-background="new 0 0 307.5 310.5" xml:space="preserve">
<g>
	<path id="_x23__1_37_" opacity="0.5" fill="#C6C6C6" d="M-575.4,125.5c-9,4.4-19.8,0.7-24.2-8.3c-4.4-9-0.7-19.8,8.3-24.2
		c9-4.4,19.8-0.7,24.2,8.3C-562.7,110.2-566.4,121.1-575.4,125.5z M-559.6,31.9c-2.5-5.1-8.7-7.3-13.8-4.8
		c-5.1,2.5-7.3,8.7-4.8,13.8c2.5,5.1,8.7,7.3,13.8,4.7C-559.2,43.3-557.1,37.1-559.6,31.9z M-601.8,238.2
		c9.8-4.8,13.9-16.7,9.1-26.5c-4.8-9.8-16.7-13.9-26.5-9.1c-9.8,4.8-13.9,16.7-9.1,26.5C-623.5,238.9-611.7,243-601.8,238.2z
		 M-698.6,230.8c8.1-4,11.5-13.8,7.5-21.9c-4-8.1-13.8-11.5-21.9-7.5c-8.1,4-11.5,13.8-7.5,21.9
		C-716.5,231.4-706.7,234.8-698.6,230.8z M-630.5,292.3c-1.6-3.3-5.6-4.7-8.9-3.1c-3.3,1.6-4.7,5.6-3.1,8.9c1.6,3.3,5.6,4.7,8.9,3.1
		C-630.3,299.6-628.9,295.6-630.5,292.3z M-563.6,149.4c5.3-2.6,7.6-9.1,4.9-14.4c-2.6-5.3-9.1-7.6-14.4-4.9
		c-5.4,2.6-7.6,9.1-5,14.4C-575.5,149.8-569,152-563.6,149.4z M-700.6,149.2c12.4-6.1,17.6-21,11.5-33.5
		c-6.1-12.4-21-17.5-33.5-11.5c-12.4,6.1-17.5,21-11.5,33.5C-727.9,150.1-713,155.3-700.6,149.2z M-747.6,206.2
		c4.9-2.4,6.9-8.3,4.5-13.1c-2.4-4.9-8.3-6.9-13.1-4.5c-4.9,2.4-6.9,8.3-4.5,13.1C-758.3,206.6-752.4,208.6-747.6,206.2z
		 M-642.6,38.6c4.5-2.2,6.4-7.6,4.2-12.1c-2.2-4.5-7.6-6.4-12.1-4.1c-4.5,2.2-6.3,7.6-4.1,12.1C-652.5,38.9-647.1,40.8-642.6,38.6z
		 M-665.7,60.6c3.9-1.9,5.5-6.5,3.6-10.4c-1.9-3.9-6.5-5.4-10.4-3.6c-3.8,1.9-5.4,6.5-3.6,10.4C-674.2,60.9-669.5,62.5-665.7,60.6z
		 M-558.6,263.6c1.9-0.9,2.7-3.3,1.8-5.2c-0.9-1.9-3.3-2.7-5.2-1.8c-1.9,0.9-2.7,3.3-1.8,5.2C-562.9,263.8-560.6,264.6-558.6,263.6z
		 M-489.2,215.4c9-4.4,12.7-15.2,8.3-24.2c-4.4-9-15.2-12.7-24.2-8.3c-9,4.4-12.7,15.2-8.3,24.2C-509,216.1-498.2,219.8-489.2,215.4
		z M-502.6,87.9c5.6-2.7,7.9-9.4,5.1-15c-2.7-5.6-9.4-7.9-15-5.1c-5.6,2.7-7.9,9.4-5.1,15C-514.8,88.3-508.1,90.6-502.6,87.9z"/>
	<path id="_x23__2_37_" opacity="0.5" fill="#737373" d="M-645.2,166.1c-6.7-13.7-1-30.2,12.7-36.9c13.7-6.7,30.2-1,36.9,12.7
		c6.7,13.7,1,30.2-12.7,36.9C-621.9,185.5-638.5,179.8-645.2,166.1z M-666,170.6c9-4.4,12.7-15.2,8.3-24.2
		c-4.4-9-15.2-12.7-24.2-8.3c-9,4.4-12.7,15.2-8.3,24.2C-685.9,171.3-675,175-666,170.6z M-648.9,111.3c10.3-5,14.5-17.4,9.5-27.7
		c-5-10.3-17.4-14.5-27.7-9.5c-10.3,5-14.5,17.4-9.5,27.7C-671.6,112.1-659.2,116.4-648.9,111.3z M-584.9,63.7
		c-3.1-6.4-10.9-9.1-17.3-5.9c-6.4,3.1-9.1,10.9-5.9,17.3c3.1,6.4,10.9,9.1,17.3,5.9C-584.4,77.9-581.8,70.1-584.9,63.7z
		 M-733.1,169.7c5.6-2.7,7.9-9.4,5.1-15c-2.7-5.5-9.4-7.9-15-5.1c-5.6,2.7-7.9,9.5-5.2,15C-745.4,170.1-738.7,172.4-733.1,169.7z
		 M-740.3,107.1c5.6-2.7,7.9-9.5,5.2-15c-2.7-5.6-9.5-7.9-15-5.2c-5.6,2.7-7.9,9.5-5.1,15C-752.6,107.5-745.9,109.8-740.3,107.1z
		 M-519.9,262.3c5.1-2.5,7.3-8.7,4.8-13.8c-2.5-5.1-8.7-7.3-13.8-4.7c-5.1,2.5-7.2,8.7-4.7,13.8C-531.2,262.7-525,264.8-519.9,262.3
		z M-638.6,274.8c8.8-4.3,12.4-14.9,8.1-23.7c-4.3-8.8-14.9-12.4-23.6-8.1c-8.8,4.3-12.4,14.9-8.1,23.6
		C-657.9,275.4-647.4,279-638.6,274.8z M-502.3,100.7c-8.6,4.2-12.1,14.5-7.9,23.1c4.2,8.6,14.5,12.1,23.1,7.9
		c8.6-4.2,12.1-14.5,7.9-23.1C-483.4,100.1-493.8,96.5-502.3,100.7z M-699.9,47.4c3.6-1.8,5.1-6.1,3.3-9.7c-1.8-3.6-6.1-5.1-9.7-3.3
		c-3.6,1.8-5.1,6.1-3.3,9.7C-707.9,47.7-703.5,49.2-699.9,47.4z M-688.2,99.8c3.6-1.8,5.1-6.2,3.4-9.8c-1.8-3.6-6.2-5.1-9.8-3.4
		c-3.6,1.8-5.1,6.2-3.4,9.8C-696.2,100.1-691.8,101.6-688.2,99.8z M-668.2,233.9c3.8-1.9,5.4-6.5,3.5-10.3
		c-1.9-3.8-6.5-5.4-10.3-3.5c-3.8,1.9-5.4,6.5-3.5,10.3C-676.6,234.2-672,235.8-668.2,233.9z"/>
	<path id="_x23__3_37_" opacity="0.5" fill="#2D2D2D" d="M-765.7,145.4c-1.7-3.4-0.3-7.6,3.2-9.2c3.4-1.7,7.6-0.2,9.2,3.2
		c1.7,3.4,0.3,7.6-3.2,9.2C-759.9,150.3-764,148.9-765.7,145.4z M-544.6,246.1c10.9-5.3,15.4-18.5,10.1-29.4
		c-5.3-10.9-18.5-15.4-29.4-10.1c-10.9,5.3-15.4,18.5-10.1,29.4C-568.7,246.9-555.5,251.4-544.6,246.1z M-552.4,191.8
		c-1.5-3-5.1-4.2-8.1-2.8c-3,1.5-4.2,5.1-2.8,8.1c1.5,3,5.1,4.2,8.1,2.8C-552.2,198.4-551,194.8-552.4,191.8z M-662,279
		c-1.5-3-5.1-4.2-8.1-2.8c-3,1.5-4.2,5.1-2.8,8.1c1.5,3,5.1,4.2,8.1,2.8C-661.8,285.6-660.5,282-662,279z M-596.7,42.4
		c-1.5-3-5.1-4.2-8.1-2.8c-3,1.5-4.2,5.1-2.8,8.1c1.5,3,5.1,4.2,8.1,2.8C-596.5,49.1-595.2,45.4-596.7,42.4z M-534.1,122.3
		c6.2-3,8.8-10.5,5.7-16.7c-3-6.2-10.5-8.8-16.7-5.7c-6.2,3-8.8,10.5-5.7,16.7C-547.8,122.8-540.3,125.4-534.1,122.3z M-702.4,81.3
		c7.9-3.9,11.2-13.4,7.3-21.4c-3.9-7.9-13.4-11.2-21.3-7.3c-7.9,3.9-11.2,13.4-7.3,21.3C-719.9,81.9-710.3,85.2-702.4,81.3z
		 M-517.1,101.2c2.4-1.2,3.3-4,2.2-6.4c-1.2-2.4-4-3.3-6.4-2.2c-2.4,1.2-3.3,4-2.2,6.4C-522.3,101.4-519.5,102.3-517.1,101.2z"/>
	<path id="_x23__4_37_" opacity="0.5" fill="#626262" d="M-590.7,183.2c-3.9-7.9-0.6-17.5,7.3-21.3c7.9-3.9,17.5-0.6,21.3,7.3
		c3.9,7.9,0.6,17.5-7.3,21.3C-577.3,194.4-586.9,191.1-590.7,183.2z M-657.2,209.9c7.9-3.9,11.2-13.4,7.3-21.3
		c-3.9-7.9-13.4-11.2-21.3-7.3c-7.9,3.9-11.2,13.4-7.3,21.3C-674.7,210.5-665.1,213.8-657.2,209.9z M-578.6,295.3
		c5.6-2.7,7.9-9.4,5.1-15c-2.7-5.6-9.4-7.9-15-5.1c-5.6,2.7-7.9,9.4-5.1,15C-590.9,295.7-584.2,298.1-578.6,295.3z M-542.7,91.1
		c10.3-5,14.5-17.4,9.5-27.7c-5-10.3-17.4-14.5-27.7-9.5c-10.3,5-14.5,17.4-9.5,27.7C-565.3,91.9-552.9,96.1-542.7,91.1z
		 M-714.1,197c7.3-3.6,10.3-12.3,6.7-19.6c-3.6-7.3-12.3-10.3-19.6-6.7c-7.3,3.6-10.3,12.3-6.7,19.6
		C-730.1,197.6-721.3,200.6-714.1,197z M-730.2,236.2c5.8-2.8,8.2-9.9,5.4-15.7c-2.8-5.8-9.9-8.2-15.7-5.4
		c-5.8,2.8-8.2,9.9-5.4,15.7C-743.1,236.6-736.1,239-730.2,236.2z M-580.8,265.2c7.1-3.5,10-12,6.5-19c-3.5-7.1-12-10-19-6.5
		c-7.1,3.5-10,12-6.5,19C-596.4,265.8-587.9,268.7-580.8,265.2z M-624.1,72.8c7.9-3.9,11.2-13.4,7.3-21.3
		c-3.9-7.9-13.4-11.2-21.3-7.3c-7.9,3.9-11.2,13.4-7.3,21.3C-641.6,73.4-632,76.7-624.1,72.8z M-601.4,32.4
		c6.6-3.2,9.4-11.2,6.1-17.8c-3.2-6.6-11.2-9.4-17.8-6.1c-6.6,3.2-9.4,11.2-6.1,17.9C-616,32.9-608,35.7-601.4,32.4z"/>
	<path id="_x23__5_37_" opacity="0.5" fill="#AFAFAF" d="M-624.2,105c-2.3-4.7-0.3-10.4,4.4-12.7c4.7-2.3,10.4-0.4,12.7,4.4
		c2.3,4.7,0.4,10.4-4.4,12.7C-616.2,111.6-621.9,109.7-624.2,105z M-537.7,52.1c2.3,4.7,8,6.7,12.7,4.4c4.7-2.3,6.7-8,4.4-12.7
		c-2.3-4.7-8-6.7-12.7-4.3C-538.1,41.7-540.1,47.4-537.7,52.1z M-671.7,25.5c-2.5-5.1-8.7-7.3-13.8-4.7c-5.1,2.5-7.3,8.7-4.7,13.8
		c2.5,5.1,8.7,7.3,13.8,4.7C-671.3,36.8-669.2,30.6-671.7,25.5z M-529.2,202c5.6-2.7,7.9-9.4,5.1-15c-2.7-5.6-9.4-7.9-15-5.1
		c-5.6,2.7-7.9,9.4-5.1,15C-541.5,202.5-534.8,204.8-529.2,202z M-681.4,276.3c11.3-5.5,16-19.2,10.5-30.6
		c-5.5-11.3-19.2-16-30.6-10.5c-11.4,5.6-16,19.2-10.5,30.6C-706.4,277.2-692.7,281.9-681.4,276.3z M-687.5,189.5
		c3.4-1.7,4.9-5.8,3.2-9.3c-1.7-3.4-5.8-4.8-9.3-3.2c-3.4,1.7-4.9,5.8-3.2,9.3C-695.1,189.7-690.9,191.1-687.5,189.5z M-609.1,278.1
		c3.6-1.8,5.1-6.2,3.4-9.8c-1.8-3.6-6.2-5.1-9.8-3.4c-3.6,1.8-5.1,6.2-3.4,9.8C-617.1,278.4-612.7,279.9-609.1,278.1z M-642.5,232.5
		c4.9-2.4,7-8.4,4.5-13.3c-2.4-4.9-8.4-7-13.3-4.6c-4.9,2.4-7,8.4-4.5,13.3C-653.3,232.9-647.4,234.9-642.5,232.5z M-677.6,76.4
		c1.9-0.9,2.7-3.3,1.8-5.2c-0.9-1.9-3.3-2.7-5.2-1.8c-1.9,0.9-2.7,3.3-1.8,5.2C-681.9,76.5-679.5,77.4-677.6,76.4z M-650.4,132
		c4.2-2,5.9-7.1,3.9-11.3c-2-4.2-7.1-5.9-11.3-3.9c-4.2,2-5.9,7.1-3.9,11.3C-659.7,132.3-654.6,134-650.4,132z M-546.1,282.3
		c4.2-2,5.9-7.1,3.9-11.3c-2-4.2-7.1-5.9-11.3-3.9c-4.2,2-5.9,7.1-3.9,11.3C-555.3,282.7-550.3,284.4-546.1,282.3z M-633.4,199.8
		c3.9-1.9,5.5-6.6,3.6-10.5c-1.9-3.9-6.6-5.5-10.5-3.6c-3.9,1.9-5.5,6.6-3.6,10.5C-642,200.1-637.3,201.7-633.4,199.8z"/>
	<path fill="#F26722" d="M-508.8,143.8c5.7,11.7,0.9,25.9-10.9,31.7c-11.7,5.7-25.9,0.9-31.7-10.9c-5.7-11.7-0.9-25.9,10.9-31.7
		C-528.7,127.3-514.5,132.1-508.8,143.8z"/>
	<path opacity="0.5" fill="#737373" d="M-484,164c5.6-2.7,7.9-9.4,5.1-15c-2.7-5.6-9.4-7.9-15-5.1c-5.6,2.7-7.9,9.4-5.2,15
		C-496.3,164.5-489.6,166.8-484,164z"/>
</g>
<path id="_x23__1_1_" opacity="0.5" fill="#C6C6C6" d="M-188.4,125.5c-9,4.4-19.8,0.7-24.2-8.3c-4.4-9-0.7-19.8,8.3-24.2
	c9-4.4,19.8-0.7,24.2,8.3C-175.7,110.2-179.4,121.1-188.4,125.5z M-172.6,31.9c-2.5-5.1-8.7-7.3-13.8-4.8c-5.1,2.5-7.3,8.7-4.8,13.8
	c2.5,5.1,8.7,7.3,13.8,4.7C-172.2,43.3-170.1,37.1-172.6,31.9z M-214.8,238.2c9.8-4.8,13.9-16.7,9.1-26.5
	c-4.8-9.8-16.7-13.9-26.5-9.1c-9.8,4.8-13.9,16.7-9.1,26.5C-236.5,238.9-224.7,243-214.8,238.2z M-311.6,230.8
	c8.1-4,11.5-13.8,7.5-21.9c-4-8.1-13.8-11.5-21.9-7.5c-8.1,4-11.5,13.8-7.5,21.9C-329.5,231.4-319.7,234.8-311.6,230.8z
	 M-243.5,292.3c-1.6-3.3-5.6-4.7-8.9-3.1c-3.3,1.6-4.7,5.6-3.1,8.9c1.6,3.3,5.6,4.7,8.9,3.1C-243.3,299.6-241.9,295.6-243.5,292.3z
	 M-176.6,149.4c5.3-2.6,7.6-9.1,4.9-14.4c-2.6-5.3-9.1-7.6-14.4-4.9c-5.4,2.6-7.6,9.1-5,14.4C-188.5,149.8-182,152-176.6,149.4z
	 M-313.6,149.2c12.4-6.1,17.6-21,11.5-33.5c-6.1-12.4-21-17.5-33.5-11.5c-12.4,6.1-17.5,21-11.5,33.5
	C-340.9,150.1-326,155.3-313.6,149.2z M-360.6,206.2c4.9-2.4,6.9-8.3,4.5-13.1c-2.4-4.9-8.3-6.9-13.1-4.5c-4.9,2.4-6.9,8.3-4.5,13.1
	C-371.3,206.6-365.4,208.6-360.6,206.2z M-255.6,38.6c4.5-2.2,6.4-7.6,4.2-12.1c-2.2-4.5-7.6-6.4-12.1-4.1
	c-4.5,2.2-6.3,7.6-4.1,12.1C-265.5,38.9-260.1,40.8-255.6,38.6z M-278.7,60.6c3.9-1.9,5.5-6.5,3.6-10.4c-1.9-3.9-6.5-5.4-10.4-3.6
	c-3.8,1.9-5.4,6.5-3.6,10.4C-287.2,60.9-282.5,62.5-278.7,60.6z M-171.6,263.6c1.9-0.9,2.7-3.3,1.8-5.2c-0.9-1.9-3.3-2.7-5.2-1.8
	c-1.9,0.9-2.7,3.3-1.8,5.2C-175.9,263.8-173.6,264.6-171.6,263.6z M-102.2,215.4c9-4.4,12.7-15.2,8.3-24.2
	c-4.4-9-15.2-12.7-24.2-8.3c-9,4.4-12.7,15.2-8.3,24.2C-122,216.1-111.2,219.8-102.2,215.4z M-115.6,87.9c5.6-2.7,7.9-9.4,5.1-15
	c-2.7-5.6-9.4-7.9-15-5.1c-5.6,2.7-7.9,9.4-5.1,15C-127.8,88.3-121.1,90.6-115.6,87.9z"/>
<path id="_x23__2_1_" opacity="0.5" fill="#737373" d="M-258.2,166.1c-6.7-13.7-1-30.2,12.7-36.9c13.7-6.7,30.2-1,36.9,12.7
	c6.7,13.7,1,30.2-12.7,36.9C-234.9,185.5-251.5,179.8-258.2,166.1z M-279,170.6c9-4.4,12.7-15.2,8.3-24.2c-4.4-9-15.2-12.7-24.2-8.3
	c-9,4.4-12.7,15.2-8.3,24.2C-298.9,171.3-288,175-279,170.6z M-261.9,111.3c10.3-5,14.5-17.4,9.5-27.7c-5-10.3-17.4-14.5-27.7-9.5
	c-10.3,5-14.5,17.4-9.5,27.7C-284.6,112.1-272.2,116.4-261.9,111.3z M-197.9,63.7c-3.1-6.4-10.9-9.1-17.3-5.9
	c-6.4,3.1-9.1,10.9-5.9,17.3c3.1,6.4,10.9,9.1,17.3,5.9C-197.4,77.9-194.8,70.1-197.9,63.7z M-346.1,169.7c5.6-2.7,7.9-9.4,5.1-15
	c-2.7-5.5-9.4-7.9-15-5.1c-5.6,2.7-7.9,9.5-5.2,15C-358.4,170.1-351.7,172.4-346.1,169.7z M-353.3,107.1c5.6-2.7,7.9-9.5,5.2-15
	c-2.7-5.6-9.5-7.9-15-5.2c-5.6,2.7-7.9,9.5-5.1,15C-365.6,107.5-358.9,109.8-353.3,107.1z M-132.9,262.3c5.1-2.5,7.3-8.7,4.8-13.8
	c-2.5-5.1-8.7-7.3-13.8-4.7c-5.1,2.5-7.2,8.7-4.7,13.8C-144.2,262.7-138,264.8-132.9,262.3z M-251.6,274.8
	c8.8-4.3,12.4-14.9,8.1-23.7c-4.3-8.8-14.9-12.4-23.6-8.1c-8.8,4.3-12.4,14.9-8.1,23.6C-270.9,275.4-260.4,279-251.6,274.8z
	 M-115.3,100.7c-8.6,4.2-12.1,14.5-7.9,23.1c4.2,8.6,14.5,12.1,23.1,7.9c8.6-4.2,12.1-14.5,7.9-23.1
	C-96.4,100.1-106.8,96.5-115.3,100.7z M-312.9,47.4c3.6-1.8,5.1-6.1,3.3-9.7c-1.8-3.6-6.1-5.1-9.7-3.3c-3.6,1.8-5.1,6.1-3.3,9.7
	C-320.9,47.7-316.5,49.2-312.9,47.4z M-301.2,99.8c3.6-1.8,5.1-6.2,3.4-9.8c-1.8-3.6-6.2-5.1-9.8-3.4c-3.6,1.8-5.1,6.2-3.4,9.8
	C-309.2,100.1-304.8,101.6-301.2,99.8z M-281.2,233.9c3.8-1.9,5.4-6.5,3.5-10.3c-1.9-3.8-6.5-5.4-10.3-3.5
	c-3.8,1.9-5.4,6.5-3.5,10.3C-289.6,234.2-285,235.8-281.2,233.9z"/>
<path id="_x23__3_1_" opacity="0.5" fill="#2D2D2D" d="M-378.7,145.4c-1.7-3.4-0.3-7.6,3.2-9.2c3.4-1.7,7.6-0.2,9.2,3.2
	c1.7,3.4,0.3,7.6-3.2,9.2C-372.9,150.3-377,148.9-378.7,145.4z M-157.6,246.1c10.9-5.3,15.4-18.5,10.1-29.4
	c-5.3-10.9-18.5-15.4-29.4-10.1c-10.9,5.3-15.4,18.5-10.1,29.4C-181.7,246.9-168.5,251.4-157.6,246.1z M-165.4,191.8
	c-1.5-3-5.1-4.2-8.1-2.8c-3,1.5-4.2,5.1-2.8,8.1c1.5,3,5.1,4.2,8.1,2.8C-165.2,198.4-164,194.8-165.4,191.8z M-275,279
	c-1.5-3-5.1-4.2-8.1-2.8c-3,1.5-4.2,5.1-2.8,8.1c1.5,3,5.1,4.2,8.1,2.8C-274.8,285.6-273.5,282-275,279z M-209.7,42.4
	c-1.5-3-5.1-4.2-8.1-2.8c-3,1.5-4.2,5.1-2.8,8.1c1.5,3,5.1,4.2,8.1,2.8C-209.5,49.1-208.2,45.4-209.7,42.4z M-147.1,122.3
	c6.2-3,8.8-10.5,5.7-16.7c-3-6.2-10.5-8.8-16.7-5.7c-6.2,3-8.8,10.5-5.7,16.7C-160.8,122.8-153.3,125.4-147.1,122.3z M-315.4,81.3
	c7.9-3.9,11.2-13.4,7.3-21.4c-3.9-7.9-13.4-11.2-21.3-7.3c-7.9,3.9-11.2,13.4-7.3,21.3C-332.9,81.9-323.3,85.2-315.4,81.3z
	 M-130.1,101.2c2.4-1.2,3.3-4,2.2-6.4c-1.2-2.4-4-3.3-6.4-2.2c-2.4,1.2-3.3,4-2.2,6.4C-135.3,101.4-132.5,102.3-130.1,101.2z"/>
<path opacity="0.5" fill="#626262" d="M-203.7,183.2c-3.9-7.9-0.6-17.5,7.3-21.3c7.9-3.9,17.5-0.6,21.3,7.3
	c3.9,7.9,0.6,17.5-7.3,21.3C-190.3,194.4-199.9,191.1-203.7,183.2z"/>
<path opacity="0.5" fill="#626262" d="M-270.2,209.9c7.9-3.9,11.2-13.4,7.3-21.3c-3.9-7.9-13.4-11.2-21.3-7.3
	c-7.9,3.9-11.2,13.4-7.3,21.3C-287.7,210.5-278.1,213.8-270.2,209.9z"/>
<path opacity="0.5" fill="#626262" d="M-191.6,295.3c5.6-2.7,7.9-9.4,5.1-15c-2.7-5.6-9.4-7.9-15-5.1c-5.6,2.7-7.9,9.4-5.1,15
	C-203.9,295.7-197.2,298.1-191.6,295.3z"/>
<path opacity="0.5" fill="#626262" d="M-155.7,91.1c10.3-5,14.5-17.4,9.5-27.7c-5-10.3-17.4-14.5-27.7-9.5
	c-10.3,5-14.5,17.4-9.5,27.7C-178.3,91.9-165.9,96.1-155.7,91.1z"/>
<path opacity="0.5" fill="#626262" d="M-327.1,197c7.3-3.6,10.3-12.3,6.7-19.6c-3.6-7.3-12.3-10.3-19.6-6.7
	c-7.3,3.6-10.3,12.3-6.7,19.6C-343.1,197.6-334.3,200.6-327.1,197z"/>
<path opacity="0.5" fill="#626262" d="M-343.2,236.2c5.8-2.8,8.2-9.9,5.4-15.7c-2.8-5.8-9.9-8.2-15.7-5.4c-5.8,2.8-8.2,9.9-5.4,15.7
	C-356.1,236.6-349.1,239-343.2,236.2z"/>
<path opacity="0.5" fill="#626262" d="M-193.8,265.2c7.1-3.5,10-12,6.5-19c-3.5-7.1-12-10-19-6.5c-7.1,3.5-10,12-6.5,19
	C-209.4,265.8-200.9,268.7-193.8,265.2z"/>
<path fill="#F26722" d="M-237.1,72.8c7.9-3.9,11.2-13.4,7.3-21.3c-3.9-7.9-13.4-11.2-21.3-7.3c-7.9,3.9-11.2,13.4-7.3,21.3
	C-254.6,73.4-245,76.7-237.1,72.8z"/>
<path opacity="0.5" fill="#626262" d="M-214.4,32.4c6.6-3.2,9.4-11.2,6.1-17.8c-3.2-6.6-11.2-9.4-17.8-6.1
	c-6.6,3.2-9.4,11.2-6.1,17.9C-229,32.9-221,35.7-214.4,32.4z"/>
<path id="_x23__5_1_" opacity="0.5" fill="#AFAFAF" d="M-237.2,105c-2.3-4.7-0.3-10.4,4.4-12.7c4.7-2.3,10.4-0.4,12.7,4.4
	c2.3,4.7,0.4,10.4-4.4,12.7C-229.2,111.6-234.9,109.7-237.2,105z M-150.7,52.1c2.3,4.7,8,6.7,12.7,4.4c4.7-2.3,6.7-8,4.4-12.7
	c-2.3-4.7-8-6.7-12.7-4.3C-151.1,41.7-153.1,47.4-150.7,52.1z M-284.7,25.5c-2.5-5.1-8.7-7.3-13.8-4.7c-5.1,2.5-7.3,8.7-4.7,13.8
	c2.5,5.1,8.7,7.3,13.8,4.7C-284.3,36.8-282.2,30.6-284.7,25.5z M-142.2,202c5.6-2.7,7.9-9.4,5.1-15c-2.7-5.6-9.4-7.9-15-5.1
	c-5.6,2.7-7.9,9.4-5.1,15C-154.5,202.5-147.8,204.8-142.2,202z M-294.4,276.3c11.3-5.5,16-19.2,10.5-30.6
	c-5.5-11.3-19.2-16-30.6-10.5c-11.4,5.6-16,19.2-10.5,30.6C-319.4,277.2-305.7,281.9-294.4,276.3z M-300.5,189.5
	c3.4-1.7,4.9-5.8,3.2-9.3c-1.7-3.4-5.8-4.8-9.3-3.2c-3.4,1.7-4.9,5.8-3.2,9.3C-308.1,189.7-303.9,191.1-300.5,189.5z M-222.1,278.1
	c3.6-1.8,5.1-6.2,3.4-9.8c-1.8-3.6-6.2-5.1-9.8-3.4c-3.6,1.8-5.1,6.2-3.4,9.8C-230.1,278.4-225.7,279.9-222.1,278.1z M-255.5,232.5
	c4.9-2.4,7-8.4,4.5-13.3c-2.4-4.9-8.4-7-13.3-4.6c-4.9,2.4-7,8.4-4.5,13.3C-266.3,232.9-260.4,234.9-255.5,232.5z M-290.6,76.4
	c1.9-0.9,2.7-3.3,1.8-5.2c-0.9-1.9-3.3-2.7-5.2-1.8c-1.9,0.9-2.7,3.3-1.8,5.2C-294.9,76.5-292.5,77.4-290.6,76.4z M-263.4,132
	c4.2-2,5.9-7.1,3.9-11.3c-2-4.2-7.1-5.9-11.3-3.9c-4.2,2-5.9,7.1-3.9,11.3C-272.7,132.3-267.6,134-263.4,132z M-159.1,282.3
	c4.2-2,5.9-7.1,3.9-11.3c-2-4.2-7.1-5.9-11.3-3.9c-4.2,2-5.9,7.1-3.9,11.3C-168.3,282.7-163.3,284.4-159.1,282.3z M-246.4,199.8
	c3.9-1.9,5.5-6.6,3.6-10.5c-1.9-3.9-6.6-5.5-10.5-3.6c-3.9,1.9-5.5,6.6-3.6,10.5C-255,200.1-250.3,201.7-246.4,199.8z"/>
<path fill="#F26722" d="M-121.8,143.8c5.7,11.7,0.9,25.9-10.9,31.7c-11.7,5.7-25.9,0.9-31.7-10.9c-5.7-11.7-0.9-25.9,10.9-31.7
	C-141.7,127.3-127.5,132.1-121.8,143.8z"/>
<path opacity="0.5" fill="#737373" d="M-97,164c5.6-2.7,7.9-9.4,5.1-15c-2.7-5.6-9.4-7.9-15-5.1c-5.6,2.7-7.9,9.4-5.2,15
	C-109.3,164.5-102.6,166.8-97,164z"/>
<path id="_x23__1_2_" opacity="0.5" fill="#C6C6C6" d="M198.6,125.5c-9,4.4-19.8,0.7-24.2-8.3c-4.4-9-0.7-19.8,8.3-24.2
	c9-4.4,19.8-0.7,24.2,8.3C211.3,110.2,207.6,121.1,198.6,125.5z M214.4,31.9c-2.5-5.1-8.7-7.3-13.8-4.8c-5.1,2.5-7.3,8.7-4.8,13.8
	c2.5,5.1,8.7,7.3,13.8,4.7C214.8,43.3,216.9,37.1,214.4,31.9z M172.2,238.2c9.8-4.8,13.9-16.7,9.1-26.5c-4.8-9.8-16.7-13.9-26.5-9.1
	c-9.8,4.8-13.9,16.7-9.1,26.5C150.5,238.9,162.3,243,172.2,238.2z M75.4,230.8c8.1-4,11.5-13.8,7.5-21.9c-4-8.1-13.8-11.5-21.9-7.5
	c-8.1,4-11.5,13.8-7.5,21.9C57.5,231.4,67.3,234.8,75.4,230.8z M143.5,292.3c-1.6-3.3-5.6-4.7-8.9-3.1c-3.3,1.6-4.7,5.6-3.1,8.9
	c1.6,3.3,5.6,4.7,8.9,3.1C143.7,299.6,145.1,295.6,143.5,292.3z M210.4,149.4c5.3-2.6,7.6-9.1,4.9-14.4c-2.6-5.3-9.1-7.6-14.4-4.9
	c-5.4,2.6-7.6,9.1-5,14.4C198.5,149.8,205,152,210.4,149.4z M73.4,149.2c12.4-6.1,17.6-21,11.5-33.5c-6.1-12.4-21-17.5-33.5-11.5
	c-12.4,6.1-17.5,21-11.5,33.5C46.1,150.1,61,155.3,73.4,149.2z M26.4,206.2c4.9-2.4,6.9-8.3,4.5-13.1c-2.4-4.9-8.3-6.9-13.1-4.5
	c-4.9,2.4-6.9,8.3-4.5,13.1C15.7,206.6,21.6,208.6,26.4,206.2z M131.4,38.6c4.5-2.2,6.4-7.6,4.2-12.1c-2.2-4.5-7.6-6.4-12.1-4.1
	c-4.5,2.2-6.3,7.6-4.1,12.1C121.5,38.9,126.9,40.8,131.4,38.6z M108.3,60.6c3.9-1.9,5.5-6.5,3.6-10.4c-1.9-3.9-6.5-5.4-10.4-3.6
	c-3.8,1.9-5.4,6.5-3.6,10.4C99.8,60.9,104.5,62.5,108.3,60.6z M215.4,263.6c1.9-0.9,2.7-3.3,1.8-5.2c-0.9-1.9-3.3-2.7-5.2-1.8
	c-1.9,0.9-2.7,3.3-1.8,5.2C211.1,263.8,213.4,264.6,215.4,263.6z M284.8,215.4c9-4.4,12.7-15.2,8.3-24.2c-4.4-9-15.2-12.7-24.2-8.3
	c-9,4.4-12.7,15.2-8.3,24.2C265,216.1,275.8,219.8,284.8,215.4z M271.4,87.9c5.6-2.7,7.9-9.4,5.1-15c-2.7-5.6-9.4-7.9-15-5.1
	c-5.6,2.7-7.9,9.4-5.1,15C259.2,88.3,265.9,90.6,271.4,87.9z"/>
<path id="_x23__2_2_" opacity="0.5" fill="#737373" d="M128.8,166.1c-6.7-13.7-1-30.2,12.7-36.9c13.7-6.7,30.2-1,36.9,12.7
	c6.7,13.7,1,30.2-12.7,36.9C152.1,185.5,135.5,179.8,128.8,166.1z M108,170.6c9-4.4,12.7-15.2,8.3-24.2c-4.4-9-15.2-12.7-24.2-8.3
	c-9,4.4-12.7,15.2-8.3,24.2C88.1,171.3,99,175,108,170.6z M125.1,111.3c10.3-5,14.5-17.4,9.5-27.7c-5-10.3-17.4-14.5-27.7-9.5
	c-10.3,5-14.5,17.4-9.5,27.7C102.4,112.1,114.8,116.4,125.1,111.3z M189.1,63.7c-3.1-6.4-10.9-9.1-17.3-5.9
	c-6.4,3.1-9.1,10.9-5.9,17.3c3.1,6.4,10.9,9.1,17.3,5.9C189.6,77.9,192.2,70.1,189.1,63.7z M40.9,169.7c5.6-2.7,7.9-9.4,5.1-15
	c-2.7-5.5-9.4-7.9-15-5.1c-5.6,2.7-7.9,9.5-5.2,15C28.6,170.1,35.3,172.4,40.9,169.7z M33.7,107.1c5.6-2.7,7.9-9.5,5.2-15
	c-2.7-5.6-9.5-7.9-15-5.2c-5.6,2.7-7.9,9.5-5.1,15C21.4,107.5,28.1,109.8,33.7,107.1z M254.1,262.3c5.1-2.5,7.3-8.7,4.8-13.8
	c-2.5-5.1-8.7-7.3-13.8-4.7c-5.1,2.5-7.2,8.7-4.7,13.8C242.8,262.7,249,264.8,254.1,262.3z M135.4,274.8c8.8-4.3,12.4-14.9,8.1-23.7
	c-4.3-8.8-14.9-12.4-23.6-8.1c-8.8,4.3-12.4,14.9-8.1,23.6C116.1,275.4,126.6,279,135.4,274.8z M271.7,100.7
	c-8.6,4.2-12.1,14.5-7.9,23.1c4.2,8.6,14.5,12.1,23.1,7.9c8.6-4.2,12.1-14.5,7.9-23.1C290.6,100.1,280.2,96.5,271.7,100.7z
	 M74.1,47.4c3.6-1.8,5.1-6.1,3.3-9.7c-1.8-3.6-6.1-5.1-9.7-3.3c-3.6,1.8-5.1,6.1-3.3,9.7C66.1,47.7,70.5,49.2,74.1,47.4z M85.8,99.8
	c3.6-1.8,5.1-6.2,3.4-9.8c-1.8-3.6-6.2-5.1-9.8-3.4c-3.6,1.8-5.1,6.2-3.4,9.8C77.8,100.1,82.2,101.6,85.8,99.8z M105.8,233.9
	c3.8-1.9,5.4-6.5,3.5-10.3c-1.9-3.8-6.5-5.4-10.3-3.5c-3.8,1.9-5.4,6.5-3.5,10.3C97.4,234.2,102,235.8,105.8,233.9z"/>
<path id="_x23__3_2_" opacity="0.5" fill="#2D2D2D" d="M8.3,145.4c-1.7-3.4-0.3-7.6,3.2-9.2c3.4-1.7,7.6-0.2,9.2,3.2
	c1.7,3.4,0.3,7.6-3.2,9.2C14.1,150.3,10,148.9,8.3,145.4z M229.4,246.1c10.9-5.3,15.4-18.5,10.1-29.4c-5.3-10.9-18.5-15.4-29.4-10.1
	c-10.9,5.3-15.4,18.5-10.1,29.4C205.3,246.9,218.5,251.4,229.4,246.1z M221.6,191.8c-1.5-3-5.1-4.2-8.1-2.8c-3,1.5-4.2,5.1-2.8,8.1
	c1.5,3,5.1,4.2,8.1,2.8C221.8,198.4,223,194.8,221.6,191.8z M112,279c-1.5-3-5.1-4.2-8.1-2.8c-3,1.5-4.2,5.1-2.8,8.1
	c1.5,3,5.1,4.2,8.1,2.8C112.2,285.6,113.5,282,112,279z M177.3,42.4c-1.5-3-5.1-4.2-8.1-2.8c-3,1.5-4.2,5.1-2.8,8.1
	c1.5,3,5.1,4.2,8.1,2.8C177.5,49.1,178.8,45.4,177.3,42.4z M239.9,122.3c6.2-3,8.8-10.5,5.7-16.7c-3-6.2-10.5-8.8-16.7-5.7
	c-6.2,3-8.8,10.5-5.7,16.7C226.2,122.8,233.7,125.4,239.9,122.3z M71.6,81.3c7.9-3.9,11.2-13.4,7.3-21.4
	c-3.9-7.9-13.4-11.2-21.3-7.3c-7.9,3.9-11.2,13.4-7.3,21.3C54.1,81.9,63.7,85.2,71.6,81.3z M256.9,101.2c2.4-1.2,3.3-4,2.2-6.4
	c-1.2-2.4-4-3.3-6.4-2.2c-2.4,1.2-3.3,4-2.2,6.4C251.7,101.4,254.5,102.3,256.9,101.2z"/>
<path opacity="0.5" fill="#626262" d="M183.3,183.2c-3.9-7.9-0.6-17.5,7.3-21.3c7.9-3.9,17.5-0.6,21.3,7.3
	c3.9,7.9,0.6,17.5-7.3,21.3C196.7,194.4,187.1,191.1,183.3,183.2z"/>
<path opacity="0.5" fill="#626262" d="M116.8,209.9c7.9-3.9,11.2-13.4,7.3-21.3c-3.9-7.9-13.4-11.2-21.3-7.3
	c-7.9,3.9-11.2,13.4-7.3,21.3C99.3,210.5,108.9,213.8,116.8,209.9z"/>
<path opacity="0.5" fill="#626262" d="M195.4,295.3c5.6-2.7,7.9-9.4,5.1-15c-2.7-5.6-9.4-7.9-15-5.1c-5.6,2.7-7.9,9.4-5.1,15
	C183.1,295.7,189.8,298.1,195.4,295.3z"/>
<path opacity="0.5" fill="#626262" d="M231.3,91.1c10.3-5,14.5-17.4,9.5-27.7c-5-10.3-17.4-14.5-27.7-9.5
	c-10.3,5-14.5,17.4-9.5,27.7C208.7,91.9,221.1,96.1,231.3,91.1z"/>
<path opacity="0.5" fill="#626262" d="M59.9,197c7.3-3.6,10.3-12.3,6.7-19.6c-3.6-7.3-12.3-10.3-19.6-6.7
	c-7.3,3.6-10.3,12.3-6.7,19.6C43.9,197.6,52.7,200.6,59.9,197z"/>
<path opacity="0.5" fill="#626262" d="M43.8,236.2c5.8-2.8,8.2-9.9,5.4-15.7c-2.8-5.8-9.9-8.2-15.7-5.4c-5.8,2.8-8.2,9.9-5.4,15.7
	C30.9,236.6,37.9,239,43.8,236.2z"/>
<path opacity="0.5" fill="#626262" d="M193.2,265.2c7.1-3.5,10-12,6.5-19c-3.5-7.1-12-10-19-6.5c-7.1,3.5-10,12-6.5,19
	C177.6,265.8,186.1,268.7,193.2,265.2z"/>
<path fill="#F26722" d="M149.9,72.8c7.9-3.9,11.2-13.4,7.3-21.3c-3.9-7.9-13.4-11.2-21.3-7.3c-7.9,3.9-11.2,13.4-7.3,21.3
	C132.4,73.4,142,76.7,149.9,72.8z"/>
<path opacity="0.5" fill="#626262" d="M172.6,32.4c6.6-3.2,9.4-11.2,6.1-17.8c-3.2-6.6-11.2-9.4-17.8-6.1
	c-6.6,3.2-9.4,11.2-6.1,17.9C158,32.9,166,35.7,172.6,32.4z"/>
<path opacity="0.5" fill="#AFAFAF" d="M149.8,105c-2.3-4.7-0.3-10.4,4.4-12.7c4.7-2.3,10.4-0.4,12.7,4.4c2.3,4.7,0.4,10.4-4.4,12.7
	C157.8,111.6,152.1,109.7,149.8,105z"/>
<path opacity="0.5" fill="#AFAFAF" d="M236.3,52.1c2.3,4.7,8,6.7,12.7,4.4c4.7-2.3,6.7-8,4.4-12.7c-2.3-4.7-8-6.7-12.7-4.3
	C235.9,41.7,233.9,47.4,236.3,52.1z"/>
<path opacity="0.5" fill="#AFAFAF" d="M102.3,25.5c-2.5-5.1-8.7-7.3-13.8-4.7c-5.1,2.5-7.3,8.7-4.7,13.8c2.5,5.1,8.7,7.3,13.8,4.7
	C102.7,36.8,104.8,30.6,102.3,25.5z"/>
<path opacity="0.5" fill="#AFAFAF" d="M244.8,202c5.6-2.7,7.9-9.4,5.1-15c-2.7-5.6-9.4-7.9-15-5.1c-5.6,2.7-7.9,9.4-5.1,15
	C232.5,202.5,239.2,204.8,244.8,202z"/>
<path fill="#F26722" d="M92.6,276.3c11.3-5.5,16-19.2,10.5-30.6c-5.5-11.3-19.2-16-30.6-10.5c-11.4,5.6-16,19.2-10.5,30.6
	C67.6,277.2,81.3,281.9,92.6,276.3z"/>
<path opacity="0.5" fill="#AFAFAF" d="M86.5,189.5c3.4-1.7,4.9-5.8,3.2-9.3c-1.7-3.4-5.8-4.8-9.3-3.2c-3.4,1.7-4.9,5.8-3.2,9.3
	C78.9,189.7,83.1,191.1,86.5,189.5z"/>
<path opacity="0.5" fill="#AFAFAF" d="M164.9,278.1c3.6-1.8,5.1-6.2,3.4-9.8c-1.8-3.6-6.2-5.1-9.8-3.4c-3.6,1.8-5.1,6.2-3.4,9.8
	C156.9,278.4,161.3,279.9,164.9,278.1z"/>
<path opacity="0.5" fill="#AFAFAF" d="M131.5,232.5c4.9-2.4,7-8.4,4.5-13.3c-2.4-4.9-8.4-7-13.3-4.6c-4.9,2.4-7,8.4-4.5,13.3
	C120.7,232.9,126.6,234.9,131.5,232.5z"/>
<path opacity="0.5" fill="#AFAFAF" d="M96.4,76.4c1.9-0.9,2.7-3.3,1.8-5.2c-0.9-1.9-3.3-2.7-5.2-1.8c-1.9,0.9-2.7,3.3-1.8,5.2
	C92.1,76.5,94.5,77.4,96.4,76.4z"/>
<path opacity="0.5" fill="#AFAFAF" d="M123.6,132c4.2-2,5.9-7.1,3.9-11.3c-2-4.2-7.1-5.9-11.3-3.9c-4.2,2-5.9,7.1-3.9,11.3
	C114.3,132.3,119.4,134,123.6,132z"/>
<path opacity="0.5" fill="#AFAFAF" d="M227.9,282.3c4.2-2,5.9-7.1,3.9-11.3c-2-4.2-7.1-5.9-11.3-3.9c-4.2,2-5.9,7.1-3.9,11.3
	C218.7,282.7,223.7,284.4,227.9,282.3z"/>
<path opacity="0.5" fill="#AFAFAF" d="M140.6,199.8c3.9-1.9,5.5-6.6,3.6-10.5c-1.9-3.9-6.6-5.5-10.5-3.6c-3.9,1.9-5.5,6.6-3.6,10.5
	C132,200.1,136.7,201.7,140.6,199.8z"/>
<path fill="#F26722" d="M265.2,143.8c5.7,11.7,0.9,25.9-10.9,31.7c-11.7,5.7-25.9,0.9-31.7-10.9c-5.7-11.7-0.9-25.9,10.9-31.7
	C245.3,127.3,259.5,132.1,265.2,143.8z"/>
<path opacity="0.5" fill="#737373" d="M290,164c5.6-2.7,7.9-9.4,5.1-15c-2.7-5.6-9.4-7.9-15-5.1c-5.6,2.7-7.9,9.4-5.2,15
	C277.7,164.5,284.4,166.8,290,164z"/>
</svg>
