<?xml version="1.0" encoding="utf-8"?>
<!-- Generator: Adobe Illustrator 17.1.0, SVG Export Plug-In . SVG Version: 6.00 Build 0)  -->
<!DOCTYPE svg PUBLIC "-//W3C//DTD SVG 1.1//EN" "http://www.w3.org/Graphics/SVG/1.1/DTD/svg11.dtd">
<svg version="1.1" id="Layer_1" xmlns="http://www.w3.org/2000/svg" xmlns:xlink="http://www.w3.org/1999/xlink" x="0px" y="0px"
	 viewBox="0 0 367 360" enable-background="new 0 0 367 360" xml:space="preserve">
<g>
	<path id="_x23__1_37_" opacity="0.5" fill="#C6C6C6" d="M230.1,151c-9,4.4-19.8,0.7-24.2-8.3c-4.4-9-0.7-19.8,8.3-24.2
		c9-4.4,19.8-0.7,24.2,8.3C242.8,135.7,239.1,146.6,230.1,151z M245.9,57.4c-2.5-5.1-8.7-7.3-13.8-4.8c-5.1,2.5-7.3,8.7-4.8,13.8
		c2.5,5.1,8.7,7.3,13.8,4.7C246.2,68.7,248.4,62.5,245.9,57.4z M203.6,263.7c9.8-4.8,13.9-16.7,9.1-26.5
		c-4.8-9.8-16.7-13.9-26.5-9.1c-9.8,4.8-13.9,16.7-9.1,26.5C181.9,264.4,193.8,268.5,203.6,263.7z M106.9,256.3
		c8.1-4,11.5-13.8,7.5-21.9c-4-8.1-13.8-11.5-21.9-7.5c-8.1,4-11.5,13.8-7.5,21.9C88.9,256.9,98.8,260.2,106.9,256.3z M174.9,317.8
		c-1.6-3.3-5.6-4.7-8.9-3.1c-3.3,1.6-4.7,5.6-3.1,8.9c1.6,3.3,5.6,4.7,8.9,3.1C175.2,325.1,176.5,321.1,174.9,317.8z M241.8,174.9
		c5.3-2.6,7.6-9.1,4.9-14.4c-2.6-5.3-9.1-7.6-14.4-4.9c-5.4,2.6-7.6,9.1-5,14.4C230,175.3,236.4,177.5,241.8,174.9z M104.9,174.7
		c12.4-6.1,17.6-21,11.5-33.5c-6.1-12.4-21-17.5-33.5-11.5c-12.4,6.1-17.5,21-11.5,33.5C77.5,175.6,92.5,180.8,104.9,174.7z
		 M57.9,231.7c4.9-2.4,6.9-8.3,4.5-13.1c-2.4-4.9-8.3-6.9-13.1-4.5c-4.9,2.4-6.9,8.3-4.5,13.1C47.1,232,53,234,57.9,231.7z
		 M162.9,64.1c4.5-2.2,6.4-7.6,4.2-12.1c-2.2-4.5-7.6-6.4-12.1-4.1c-4.5,2.2-6.3,7.6-4.1,12.1C153,64.4,158.4,66.3,162.9,64.1z
		 M139.8,86.1c3.9-1.9,5.5-6.5,3.6-10.4c-1.9-3.9-6.5-5.4-10.4-3.6c-3.8,1.9-5.4,6.5-3.6,10.4C131.3,86.4,135.9,88,139.8,86.1z
		 M246.8,289.1c1.9-0.9,2.7-3.3,1.8-5.2c-0.9-1.9-3.3-2.7-5.2-1.8c-1.9,0.9-2.7,3.3-1.8,5.2C242.6,289.3,244.9,290.1,246.8,289.1z
		 M316.2,240.9c9-4.4,12.7-15.2,8.3-24.2c-4.4-9-15.2-12.7-24.2-8.3c-9,4.4-12.7,15.2-8.3,24.2C296.4,241.6,307.2,245.3,316.2,240.9
		z M302.9,113.3c5.6-2.7,7.9-9.4,5.1-15c-2.7-5.6-9.4-7.9-15-5.1c-5.6,2.7-7.9,9.4-5.1,15C290.6,113.7,297.3,116.1,302.9,113.3z"/>
	<path id="_x23__2_37_" opacity="0.5" fill="#737373" d="M160.3,191.6c-6.7-13.7-1-30.2,12.7-36.9c13.7-6.7,30.2-1,36.9,12.7
		c6.7,13.7,1,30.2-12.7,36.9C183.5,211,167,205.3,160.3,191.6z M139.4,196.1c9-4.4,12.7-15.2,8.3-24.2c-4.4-9-15.2-12.7-24.2-8.3
		c-9,4.4-12.7,15.2-8.3,24.2C119.6,196.7,130.4,200.4,139.4,196.1z M156.5,136.8c10.3-5,14.5-17.4,9.5-27.7
		c-5-10.3-17.4-14.5-27.7-9.5c-10.3,5-14.5,17.4-9.5,27.7C133.8,137.6,146.2,141.8,156.5,136.8z M220.5,89.1
		c-3.1-6.4-10.9-9.1-17.3-5.9c-6.4,3.1-9.1,10.9-5.9,17.3c3.1,6.4,10.9,9.1,17.3,5.9C221,103.3,223.7,95.6,220.5,89.1z M72.3,195.1
		c5.6-2.7,7.9-9.4,5.1-15c-2.7-5.5-9.4-7.9-15-5.1c-5.6,2.7-7.9,9.5-5.2,15C60,195.6,66.7,197.9,72.3,195.1z M65.1,132.6
		c5.6-2.7,7.9-9.5,5.2-15c-2.7-5.6-9.5-7.9-15-5.2c-5.6,2.7-7.9,9.5-5.1,15C52.8,133,59.6,135.3,65.1,132.6z M285.5,287.7
		c5.1-2.5,7.3-8.7,4.8-13.8c-2.5-5.1-8.7-7.3-13.8-4.7c-5.1,2.5-7.2,8.7-4.7,13.8C274.2,288.1,280.4,290.3,285.5,287.7z
		 M166.9,300.2c8.8-4.3,12.4-14.9,8.1-23.7c-4.3-8.8-14.9-12.4-23.6-8.1c-8.8,4.3-12.4,14.9-8.1,23.6
		C147.5,300.9,158.1,304.5,166.9,300.2z M303.1,126.2c-8.6,4.2-12.1,14.5-7.9,23.1c4.2,8.6,14.5,12.1,23.1,7.9
		c8.6-4.2,12.1-14.5,7.9-23.1C322,125.6,311.7,122,303.1,126.2z M105.5,72.9c3.6-1.8,5.1-6.1,3.3-9.7c-1.8-3.6-6.1-5.1-9.7-3.3
		c-3.6,1.8-5.1,6.1-3.3,9.7C97.6,73.1,101.9,74.6,105.5,72.9z M117.3,125.3c3.6-1.8,5.1-6.2,3.4-9.8c-1.8-3.6-6.2-5.1-9.8-3.4
		c-3.6,1.8-5.1,6.2-3.4,9.8C109.2,125.6,113.6,127.1,117.3,125.3z M137.3,259.4c3.8-1.9,5.4-6.5,3.5-10.3c-1.9-3.8-6.5-5.4-10.3-3.5
		c-3.8,1.9-5.4,6.5-3.5,10.3C128.9,259.7,133.5,261.3,137.3,259.4z"/>
	<path id="_x23__3_37_" opacity="0.5" fill="#2D2D2D" d="M39.7,170.9c-1.7-3.4-0.3-7.6,3.2-9.2c3.4-1.7,7.6-0.2,9.2,3.2
		c1.7,3.4,0.3,7.6-3.2,9.2C45.5,175.7,41.4,174.3,39.7,170.9z M260.8,271.5c10.9-5.3,15.4-18.5,10.1-29.4
		c-5.3-10.9-18.5-15.4-29.4-10.1c-10.9,5.3-15.4,18.5-10.1,29.4C236.7,272.4,249.9,276.9,260.8,271.5z M253,217.3
		c-1.5-3-5.1-4.2-8.1-2.8c-3,1.5-4.2,5.1-2.8,8.1c1.5,3,5.1,4.2,8.1,2.8C253.2,223.9,254.5,220.3,253,217.3z M143.5,304.5
		c-1.5-3-5.1-4.2-8.1-2.8c-3,1.5-4.2,5.1-2.8,8.1c1.5,3,5.1,4.2,8.1,2.8C143.7,311.1,144.9,307.5,143.5,304.5z M208.7,67.9
		c-1.5-3-5.1-4.2-8.1-2.8c-3,1.5-4.2,5.1-2.8,8.1c1.5,3,5.1,4.2,8.1,2.8C209,74.5,210.2,70.9,208.7,67.9z M271.3,147.8
		c6.2-3,8.8-10.5,5.7-16.7c-3-6.2-10.5-8.8-16.7-5.7c-6.2,3-8.8,10.5-5.7,16.7C257.6,148.3,265.1,150.9,271.3,147.8z M103.1,106.8
		c7.9-3.9,11.2-13.4,7.3-21.4C106.5,77.5,97,74.2,89,78.1c-7.9,3.9-11.2,13.4-7.3,21.3C85.6,107.4,95.1,110.6,103.1,106.8z
		 M288.3,126.7c2.4-1.2,3.3-4,2.2-6.4c-1.2-2.4-4-3.3-6.4-2.2c-2.4,1.2-3.3,4-2.2,6.4C283.1,126.8,286,127.8,288.3,126.7z"/>
	<path id="_x23__4_37_" opacity="0.5" fill="#626262" d="M214.7,208.7c-3.9-7.9-0.6-17.5,7.3-21.3c7.9-3.9,17.5-0.6,21.3,7.3
		c3.9,7.9,0.6,17.5-7.3,21.3C228.1,219.8,218.6,216.6,214.7,208.7z M148.3,235.4c7.9-3.9,11.2-13.4,7.3-21.3
		c-3.9-7.9-13.4-11.2-21.3-7.3c-7.9,3.9-11.2,13.4-7.3,21.3C130.8,236,140.4,239.3,148.3,235.4z M226.8,320.8
		c5.6-2.7,7.9-9.4,5.1-15c-2.7-5.6-9.4-7.9-15-5.1c-5.6,2.7-7.9,9.4-5.1,15C214.6,321.2,221.3,323.5,226.8,320.8z M262.8,116.6
		c10.3-5,14.5-17.4,9.5-27.7c-5-10.3-17.4-14.5-27.7-9.5c-10.3,5-14.5,17.4-9.5,27.7C240.1,117.3,252.5,121.6,262.8,116.6z
		 M91.4,222.5c7.3-3.6,10.3-12.3,6.7-19.6c-3.6-7.3-12.3-10.3-19.6-6.7c-7.3,3.6-10.3,12.3-6.7,19.6
		C75.3,223.1,84.1,226.1,91.4,222.5z M75.2,261.6c5.8-2.8,8.2-9.9,5.4-15.7c-2.8-5.8-9.9-8.2-15.7-5.4c-5.8,2.8-8.2,9.9-5.4,15.7
		C62.4,262.1,69.4,264.5,75.2,261.6z M224.6,290.7c7.1-3.5,10-12,6.5-19c-3.5-7.1-12-10-19-6.5c-7.1,3.5-10,12-6.5,19
		C209,291.2,217.5,294.1,224.6,290.7z M181.3,98.3c7.9-3.9,11.2-13.4,7.3-21.3c-3.9-7.9-13.4-11.2-21.3-7.3
		c-7.9,3.9-11.2,13.4-7.3,21.3C163.8,98.8,173.4,102.1,181.3,98.3z M204,57.9c6.6-3.2,9.4-11.2,6.1-17.8c-3.2-6.6-11.2-9.4-17.8-6.1
		c-6.6,3.2-9.4,11.2-6.1,17.9C189.4,58.4,197.4,61.2,204,57.9z"/>
	<path id="_x23__5_37_" opacity="0.5" fill="#AFAFAF" d="M181.2,130.5c-2.3-4.7-0.3-10.4,4.4-12.7c4.7-2.3,10.4-0.4,12.7,4.4
		c2.3,4.7,0.4,10.4-4.4,12.7C189.2,137.1,183.5,135.2,181.2,130.5z M267.7,77.6c2.3,4.7,8,6.7,12.7,4.4c4.7-2.3,6.7-8,4.4-12.7
		c-2.3-4.7-8-6.7-12.7-4.3C267.3,67.2,265.4,72.9,267.7,77.6z M133.7,51c-2.5-5.1-8.7-7.3-13.8-4.7c-5.1,2.5-7.3,8.7-4.7,13.8
		c2.5,5.1,8.7,7.3,13.8,4.7C134.1,62.3,136.2,56.1,133.7,51z M276.2,227.5c5.6-2.7,7.9-9.4,5.1-15c-2.7-5.6-9.4-7.9-15-5.1
		c-5.6,2.7-7.9,9.4-5.1,15C264,227.9,270.7,230.2,276.2,227.5z M124,301.8c11.3-5.5,16-19.2,10.5-30.6c-5.5-11.3-19.2-16-30.6-10.5
		c-11.4,5.6-16,19.2-10.5,30.6C99,302.7,112.7,307.3,124,301.8z M117.9,214.9c3.4-1.7,4.9-5.8,3.2-9.3c-1.7-3.4-5.8-4.8-9.3-3.2
		c-3.4,1.7-4.9,5.8-3.2,9.3C110.4,215.2,114.5,216.6,117.9,214.9z M196.3,303.6c3.6-1.8,5.1-6.2,3.4-9.8c-1.8-3.6-6.2-5.1-9.8-3.4
		c-3.6,1.8-5.1,6.2-3.4,9.8C188.3,303.8,192.7,305.3,196.3,303.6z M163,258c4.9-2.4,7-8.4,4.5-13.3c-2.4-4.9-8.4-7-13.3-4.6
		c-4.9,2.4-7,8.4-4.5,13.3C152.1,258.3,158.1,260.4,163,258z M127.8,101.9c1.9-0.9,2.7-3.3,1.8-5.2c-0.9-1.9-3.3-2.7-5.2-1.8
		c-1.9,0.9-2.7,3.3-1.8,5.2C123.6,102,125.9,102.8,127.8,101.9z M155,157.5c4.2-2,5.9-7.1,3.9-11.3c-2-4.2-7.1-5.9-11.3-3.9
		s-5.9,7.1-3.9,11.3C145.8,157.8,150.8,159.5,155,157.5z M259.4,307.8c4.2-2,5.9-7.1,3.9-11.3c-2-4.2-7.1-5.9-11.3-3.9
		c-4.2,2-5.9,7.1-3.9,11.3C250.1,308.1,255.2,309.9,259.4,307.8z M172,225.3c3.9-1.9,5.5-6.6,3.6-10.5c-1.9-3.9-6.6-5.5-10.5-3.6
		c-3.9,1.9-5.5,6.6-3.6,10.5C163.5,225.6,168.1,227.2,172,225.3z"/>
	<path fill="#F26722" d="M296.7,169.3c5.7,11.7,0.9,25.9-10.9,31.7c-11.7,5.7-25.9,0.9-31.7-10.9c-5.7-11.7-0.9-25.9,10.9-31.7
		C276.8,152.7,290.9,157.6,296.7,169.3z"/>
	<path opacity="0.5" fill="#737373" d="M321.5,189.5c5.6-2.7,7.9-9.4,5.1-15c-2.7-5.6-9.4-7.9-15-5.1c-5.6,2.7-7.9,9.4-5.2,15
		C309.2,189.9,315.9,192.2,321.5,189.5z"/>
</g>
</svg>
