<?xml version="1.0" encoding="utf-8"?>
<!-- Generator: Adobe Illustrator 17.1.0, SVG Export Plug-In . SVG Version: 6.00 Build 0)  -->
<!DOCTYPE svg PUBLIC "-//W3C//DTD SVG 1.1//EN" "http://www.w3.org/Graphics/SVG/1.1/DTD/svg11.dtd">
<svg version="1.1" id="Layer_1" xmlns="http://www.w3.org/2000/svg" xmlns:xlink="http://www.w3.org/1999/xlink" x="0px" y="0px"
	 viewBox="0 0 294.7 304" enable-background="new 0 0 294.7 304" xml:space="preserve">
<path fill="#F26722" d="M123.9,164.3c-6.7-13.7-1-30.2,12.7-36.9c13.7-6.7,30.2-1,36.9,12.7c6.7,13.7,1,30.2-12.7,36.9
	C147.2,183.6,130.6,178,123.9,164.3z"/>
<path id="_x23__1_37_" opacity="0.65" fill="#C6C6C6" d="M193.8,123.6c-9,4.4-19.8,0.7-24.2-8.3c-4.4-9-0.7-19.8,8.3-24.2
	c9-4.4,19.8-0.7,24.2,8.3C206.5,108.4,202.7,119.2,193.8,123.6z M209.5,30.1c-2.5-5.1-8.7-7.3-13.8-4.8c-5.1,2.5-7.3,8.7-4.8,13.8
	c2.5,5.1,8.7,7.3,13.8,4.7C209.9,41.4,212,35.2,209.5,30.1z M167.3,236.3c9.8-4.8,13.9-16.7,9.1-26.5c-4.8-9.8-16.7-13.9-26.5-9.1
	c-9.8,4.8-13.9,16.7-9.1,26.5C145.6,237.1,157.5,241.1,167.3,236.3z M70.6,228.9c8.1-4,11.5-13.8,7.5-21.9
	c-4-8.1-13.8-11.5-21.9-7.5c-8.1,4-11.5,13.8-7.5,21.9C52.6,229.5,62.4,232.9,70.6,228.9z M138.6,290.5c-1.6-3.3-5.6-4.7-8.9-3.1
	c-3.3,1.6-4.7,5.6-3.1,8.9c1.6,3.3,5.6,4.7,8.9,3.1C138.8,297.8,140.2,293.8,138.6,290.5z M205.5,147.6c5.3-2.6,7.6-9.1,4.9-14.4
	c-2.6-5.3-9.1-7.6-14.4-4.9c-5.4,2.6-7.6,9.1-5,14.4C193.7,148,200.1,150.2,205.5,147.6z M68.6,147.4c12.4-6.1,17.6-21,11.5-33.5
	c-6.1-12.4-21-17.5-33.5-11.5c-12.4,6.1-17.5,21-11.5,33.5C41.2,148.3,56.1,153.4,68.6,147.4z M21.5,204.3c4.9-2.4,6.9-8.3,4.5-13.1
	c-2.4-4.9-8.3-6.9-13.1-4.5C8,189.1,6,195,8.4,199.8C10.8,204.7,16.7,206.7,21.5,204.3z M126.5,36.7c4.5-2.2,6.4-7.6,4.2-12.1
	c-2.2-4.5-7.6-6.4-12.1-4.1c-4.5,2.2-6.3,7.6-4.1,12.1C116.6,37.1,122,38.9,126.5,36.7z M103.4,58.8c3.9-1.9,5.5-6.5,3.6-10.4
	c-1.9-3.9-6.5-5.4-10.4-3.6c-3.8,1.9-5.4,6.5-3.6,10.4C94.9,59.1,99.6,60.6,103.4,58.8z M210.5,261.8c1.9-0.9,2.7-3.3,1.8-5.2
	c-0.9-1.9-3.3-2.7-5.2-1.8c-1.9,0.9-2.7,3.3-1.8,5.2C206.2,261.9,208.5,262.7,210.5,261.8z M279.9,213.6c9-4.4,12.7-15.2,8.3-24.2
	c-4.4-9-15.2-12.7-24.2-8.3c-9,4.4-12.7,15.2-8.3,24.2C260.1,214.2,270.9,218,279.9,213.6z M266.5,86c5.6-2.7,7.9-9.4,5.1-15
	c-2.7-5.6-9.4-7.9-15-5.1c-5.6,2.7-7.9,9.4-5.1,15C254.3,86.4,261,88.7,266.5,86z"/>
<path opacity="0.65" fill="#737373" d="M103.1,168.7c9-4.4,12.7-15.2,8.3-24.2c-4.4-9-15.2-12.7-24.2-8.3c-9,4.4-12.7,15.2-8.3,24.2
	C83.2,169.4,94.1,173.1,103.1,168.7z"/>
<path opacity="0.65" fill="#737373" d="M120.2,109.5c10.3-5,14.5-17.4,9.5-27.7c-5-10.3-17.4-14.5-27.7-9.5
	c-10.3,5-14.5,17.4-9.5,27.7C97.5,110.2,109.9,114.5,120.2,109.5z"/>
<path opacity="0.65" fill="#737373" d="M184.2,61.8c-3.1-6.4-10.9-9.1-17.3-5.9c-6.4,3.1-9.1,10.9-5.9,17.3
	c3.1,6.4,10.9,9.1,17.3,5.9C184.7,76,187.3,68.2,184.2,61.8z"/>
<path opacity="0.65" fill="#737373" d="M36,167.8c5.6-2.7,7.9-9.4,5.1-15c-2.7-5.5-9.4-7.9-15-5.1c-5.6,2.7-7.9,9.5-5.2,15
	C23.7,168.2,30.4,170.5,36,167.8z"/>
<path opacity="0.65" fill="#737373" d="M28.8,105.2c5.6-2.7,7.9-9.5,5.2-15c-2.7-5.6-9.5-7.9-15-5.2c-5.6,2.7-7.9,9.5-5.1,15
	C16.5,105.7,23.2,108,28.8,105.2z"/>
<path opacity="0.65" fill="#737373" d="M249.2,260.4c5.1-2.5,7.3-8.7,4.8-13.8c-2.5-5.1-8.7-7.3-13.8-4.7c-5.1,2.5-7.2,8.7-4.7,13.8
	C237.9,260.8,244.1,262.9,249.2,260.4z"/>
<path opacity="0.65" fill="#737373" d="M130.5,272.9c8.8-4.3,12.4-14.9,8.1-23.7c-4.3-8.8-14.9-12.4-23.6-8.1
	c-8.8,4.3-12.4,14.9-8.1,23.6C111.2,273.6,121.8,277.2,130.5,272.9z"/>
<path opacity="0.65" fill="#737373" d="M266.8,98.9c-8.6,4.2-12.1,14.5-7.9,23.1c4.2,8.6,14.5,12.1,23.1,7.9
	c8.6-4.2,12.1-14.5,7.9-23.1C285.7,98.2,275.4,94.7,266.8,98.9z"/>
<path opacity="0.65" fill="#737373" d="M69.2,45.5c3.6-1.8,5.1-6.1,3.3-9.7c-1.8-3.6-6.1-5.1-9.7-3.3c-3.6,1.8-5.1,6.1-3.3,9.7
	C61.2,45.8,65.6,47.3,69.2,45.5z"/>
<path opacity="0.65" fill="#737373" d="M80.9,97.9c3.6-1.8,5.1-6.2,3.4-9.8c-1.8-3.6-6.2-5.1-9.8-3.4c-3.6,1.8-5.1,6.2-3.4,9.8
	C72.9,98.2,77.3,99.7,80.9,97.9z"/>
<path opacity="0.65" fill="#737373" d="M101,232.1c3.8-1.9,5.4-6.5,3.5-10.3c-1.9-3.8-6.5-5.4-10.3-3.5c-3.8,1.9-5.4,6.5-3.5,10.3
	C92.5,232.4,97.1,234,101,232.1z"/>
<path id="_x23__3_37_" opacity="0.65" fill="#2D2D2D" d="M3.4,143.6c-1.7-3.4-0.3-7.6,3.2-9.2c3.4-1.7,7.6-0.2,9.2,3.2
	c1.7,3.4,0.3,7.6-3.2,9.2C9.2,148.4,5.1,147,3.4,143.6z M224.5,244.2c10.9-5.3,15.4-18.5,10.1-29.4c-5.3-10.9-18.5-15.4-29.4-10.1
	c-10.9,5.3-15.4,18.5-10.1,29.4C200.4,245,213.6,249.5,224.5,244.2z M216.7,189.9c-1.5-3-5.1-4.2-8.1-2.8c-3,1.5-4.2,5.1-2.8,8.1
	c1.5,3,5.1,4.2,8.1,2.8C216.9,196.6,218.1,192.9,216.7,189.9z M107.1,277.1c-1.5-3-5.1-4.2-8.1-2.8c-3,1.5-4.2,5.1-2.8,8.1
	c1.5,3,5.1,4.2,8.1,2.8C107.4,283.7,108.6,280.1,107.1,277.1z M172.4,40.6c-1.5-3-5.1-4.2-8.1-2.8c-3,1.5-4.2,5.1-2.8,8.1
	c1.5,3,5.1,4.2,8.1,2.8C172.6,47.2,173.9,43.6,172.4,40.6z M235,120.5c6.2-3,8.8-10.5,5.7-16.7c-3-6.2-10.5-8.8-16.7-5.7
	c-6.2,3-8.8,10.5-5.7,16.7C221.3,121,228.8,123.5,235,120.5z M66.7,79.4C74.6,75.6,77.9,66,74,58.1c-3.9-7.9-13.4-11.2-21.3-7.3
	c-7.9,3.9-11.2,13.4-7.3,21.3C49.3,80,58.8,83.3,66.7,79.4z M252,99.3c2.4-1.2,3.3-4,2.2-6.4c-1.2-2.4-4-3.3-6.4-2.2
	c-2.4,1.2-3.3,4-2.2,6.4C246.8,99.5,249.6,100.5,252,99.3z"/>
<path id="_x23__4_37_" opacity="0.65" fill="#626262" d="M178.4,181.3c-3.9-7.9-0.6-17.5,7.3-21.3c7.9-3.9,17.5-0.6,21.3,7.3
	c3.9,7.9,0.6,17.5-7.3,21.3C191.8,192.5,182.2,189.2,178.4,181.3z M111.9,208.1c7.9-3.9,11.2-13.4,7.3-21.3
	c-3.9-7.9-13.4-11.2-21.3-7.3c-7.9,3.9-11.2,13.4-7.3,21.3C94.5,208.7,104,212,111.9,208.1z M190.5,293.5c5.6-2.7,7.9-9.4,5.1-15
	c-2.7-5.6-9.4-7.9-15-5.1c-5.6,2.7-7.9,9.4-5.1,15C178.2,293.9,184.9,296.2,190.5,293.5z M226.4,89.2c10.3-5,14.5-17.4,9.5-27.7
	c-5-10.3-17.4-14.5-27.7-9.5c-10.3,5-14.5,17.4-9.5,27.7C203.8,90,216.2,94.3,226.4,89.2z M55.1,195.2c7.3-3.6,10.3-12.3,6.7-19.6
	c-3.6-7.3-12.3-10.3-19.6-6.7c-7.3,3.6-10.3,12.3-6.7,19.6C39,195.7,47.8,198.7,55.1,195.2z M38.9,234.3c5.8-2.8,8.2-9.9,5.4-15.7
	c-2.8-5.8-9.9-8.2-15.7-5.4c-5.8,2.8-8.2,9.9-5.4,15.7C26,234.7,33.1,237.2,38.9,234.3z M188.3,263.4c7.1-3.5,10-12,6.5-19
	c-3.5-7.1-12-10-19-6.5c-7.1,3.5-10,12-6.5,19C172.7,263.9,181.2,266.8,188.3,263.4z M145,70.9c7.9-3.9,11.2-13.4,7.3-21.3
	c-3.9-7.9-13.4-11.2-21.3-7.3c-7.9,3.9-11.2,13.4-7.3,21.3C127.5,71.5,137.1,74.8,145,70.9z M167.7,30.6c6.6-3.2,9.4-11.2,6.1-17.8
	c-3.2-6.6-11.2-9.4-17.8-6.1c-6.6,3.2-9.4,11.2-6.1,17.9C153.1,31.1,161.1,33.8,167.7,30.6z"/>
<path id="_x23__5_37_" opacity="0.65" fill="#AFAFAF" d="M144.9,103.1c-2.3-4.7-0.3-10.4,4.4-12.7c4.7-2.3,10.4-0.4,12.7,4.4
	c2.3,4.7,0.4,10.4-4.4,12.7C152.9,109.8,147.2,107.8,144.9,103.1z M231.4,50.3c2.3,4.7,8,6.7,12.7,4.4c4.7-2.3,6.7-8,4.4-12.7
	c-2.3-4.7-8-6.7-12.7-4.3C231,39.9,229.1,45.6,231.4,50.3z M97.4,23.7c-2.5-5.1-8.7-7.3-13.8-4.7c-5.1,2.5-7.3,8.7-4.7,13.8
	c2.5,5.1,8.7,7.3,13.8,4.7C97.8,35,99.9,28.8,97.4,23.7z M239.9,200.2c5.6-2.7,7.9-9.4,5.1-15c-2.7-5.6-9.4-7.9-15-5.1
	c-5.6,2.7-7.9,9.4-5.1,15C227.6,200.6,234.3,202.9,239.9,200.2z M87.7,274.5c11.3-5.5,16-19.2,10.5-30.6
	c-5.5-11.3-19.2-16-30.6-10.5c-11.4,5.6-16,19.2-10.5,30.6C62.7,275.3,76.4,280,87.7,274.5z M81.6,187.6c3.4-1.7,4.9-5.8,3.2-9.3
	c-1.7-3.4-5.8-4.8-9.3-3.2c-3.4,1.7-4.9,5.8-3.2,9.3C74,187.9,78.2,189.3,81.6,187.6z M160,276.2c3.6-1.8,5.1-6.2,3.4-9.8
	c-1.8-3.6-6.2-5.1-9.8-3.4c-3.6,1.8-5.1,6.2-3.4,9.8C152,276.5,156.4,278,160,276.2z M126.6,230.6c4.9-2.4,7-8.4,4.5-13.3
	c-2.4-4.9-8.4-7-13.3-4.6c-4.9,2.4-7,8.4-4.5,13.3C115.8,231,121.7,233,126.6,230.6z M91.5,74.5c1.9-0.9,2.7-3.3,1.8-5.2
	c-0.9-1.9-3.3-2.7-5.2-1.8c-1.9,0.9-2.7,3.3-1.8,5.2C87.2,74.7,89.6,75.5,91.5,74.5z M118.7,130.1c4.2-2,5.9-7.1,3.9-11.3
	c-2-4.2-7.1-5.9-11.3-3.9c-4.2,2-5.9,7.1-3.9,11.3C109.5,130.5,114.5,132.2,118.7,130.1z M223,280.5c4.2-2,5.9-7.1,3.9-11.3
	c-2-4.2-7.1-5.9-11.3-3.9c-4.2,2-5.9,7.1-3.9,11.3C213.8,280.8,218.9,282.5,223,280.5z M135.7,198c3.9-1.9,5.5-6.6,3.6-10.5
	c-1.9-3.9-6.6-5.5-10.5-3.6c-3.9,1.9-5.5,6.6-3.6,10.5C127.1,198.2,131.8,199.9,135.7,198z"/>
<path opacity="0.65" fill="#737373" d="M260.4,142c5.7,11.7,0.9,25.9-10.9,31.7c-11.7,5.7-25.9,0.9-31.7-10.9
	c-5.7-11.7-0.9-25.9,10.9-31.7C240.4,125.4,254.6,130.2,260.4,142z"/>
<path opacity="0.65" fill="#737373" d="M285.1,162.2c5.6-2.7,7.9-9.4,5.1-15c-2.7-5.6-9.4-7.9-15-5.1c-5.6,2.7-7.9,9.4-5.2,15
	C272.8,162.6,279.5,164.9,285.1,162.2z"/>
<g id="Your_Icon">
	<path fill="#FFFFFF" d="M156.4,148.9h-11.5v-4.7c0-1.1,0.4-2,1.1-2.7c0.7-0.7,1.6-1.1,2.7-1.1c1.1,0,2,0.4,2.7,1.1
		c0.7,0.7,1.1,1.6,1.1,2.7v1.6h3.3l0-1.6c0-3.9-3.2-7.1-7.1-7.1c-3.9,0-7.1,3.2-7.1,7.1v4.7H141c-0.5,0-0.8,0.4-0.8,0.8V164
		c0,0.5,0.4,0.8,0.8,0.8h15.4c0.5,0,0.8-0.4,0.8-0.8v-14.3C157.3,149.3,156.9,148.9,156.4,148.9z M149.7,156.5l0.6,4.8
		c0,0.4-0.2,0.7-0.6,0.7h-2c-0.4,0-0.7-0.3-0.6-0.7l0.6-4.8c-0.9-0.4-1.5-1.3-1.5-2.3c0-1.4,1.1-2.5,2.5-2.5s2.5,1.1,2.5,2.5
		C151.2,155.2,150.6,156.1,149.7,156.5z"/>
</g>
</svg>
