<?xml version="1.0" encoding="utf-8"?>
<!-- Generator: Adobe Illustrator 17.1.0, SVG Export Plug-In . SVG Version: 6.00 Build 0)  -->
<!DOCTYPE svg PUBLIC "-//W3C//DTD SVG 1.1//EN" "http://www.w3.org/Graphics/SVG/1.1/DTD/svg11.dtd">
<svg version="1.1" id="Layer_1" xmlns="http://www.w3.org/2000/svg" xmlns:xlink="http://www.w3.org/1999/xlink" x="0px" y="0px"
	 viewBox="0 0 419.1 393.5" enable-background="new 0 0 419.1 393.5" xml:space="preserve">
<rect x="0.1" y="231.8" fill="#999999" width="263.6" height="24.7"/>
<path fill="#999999" d="M207,179.9c0-17.3,14-31.3,31.3-31.3c17.2,0,31.3,14,31.3,31.3c0,17.2-14.1,31.3-31.3,31.3
	C221,211.2,207,197.1,207,179.9z"/>
<path fill="#999999" d="M167,147.5H62.3L0,157.1v54.1l31.4,0c-2.5-4-4-8.8-4-13.8c0-14.6,11.9-26.5,26.5-26.5h57.4l46.5-9.7
	l2.6,12.3l-47.8,10H53.9c-7.6,0-13.8,6.2-13.8,13.8c0,7.6,6.1,13.7,13.7,13.8l113.6,0c17.6-0.1,31.7-14.3,31.7-31.8
	C198.9,161.8,184.7,147.5,167,147.5z"/>
<path fill="#999999" d="M221.2,322.9c69.9,0,126.5-56.7,126.5-126.5c0-69.9-56.6-126.5-126.5-126.5c-45.7,0-85.6,24.3-107.8,60.6h53
	c14.9-12.5,34.2-20.1,55.2-20.1c47.5,0,86,38.5,86,86c0,47.5-38.5,86-86,86c-13.5,0-26.2-3.2-37.5-8.7h-62.8
	C144.4,303.6,180.5,322.9,221.2,322.9z"/>
<g>
	<path fill="#999999" d="M221.2,0c-86.6,0-160,56.2-185.8,134.1l24.1-3.8l39.2,0c23.5-43.6,69.6-73.2,122.5-73.2
		c76.9,0,139.2,62.3,139.2,139.2c0,76.9-62.3,139.2-139.2,139.2c-48.3,0-90.8-24.6-115.7-61.9h-64c30.1,69.4,99.2,118,179.7,118
		c108.2,0,195.8-87.7,195.8-195.8C417.1,87.7,329.4,0,221.2,0z M265.7,44.5c-0.7,2.8-3.2,4.7-6,4.7c-0.5,0-1-0.1-1.5-0.2
		c-23.9-6-49.3-6-73.2,0c-3.3,0.9-6.7-1.2-7.5-4.5c-0.8-3.3,1.2-6.7,4.5-7.5c25.9-6.5,53.3-6.5,79.2,0
		C264.5,37.8,266.5,41.2,265.7,44.5z"/>
	<path fill="#F26621" stroke="#FFFFFF" stroke-width="4.1707" stroke-miterlimit="10" d="M265.7,44.5c-0.7,2.8-3.2,4.7-6,4.7
		c-0.5,0-1-0.1-1.5-0.2c-23.9-6-49.3-6-73.2,0c-3.3,0.9-6.7-1.2-7.5-4.5c-0.8-3.3,1.2-6.7,4.5-7.5c25.9-6.5,53.3-6.5,79.2,0
		C264.5,37.8,266.5,41.2,265.7,44.5z"/>
</g>
</svg>
