<?xml version="1.0" encoding="utf-8"?>
<!-- Generator: Adobe Illustrator 17.1.0, SVG Export Plug-In . SVG Version: 6.00 Build 0)  -->
<!DOCTYPE svg PUBLIC "-//W3C//DTD SVG 1.1//EN" "http://www.w3.org/Graphics/SVG/1.1/DTD/svg11.dtd">
<svg version="1.1" id="Layer_1" xmlns="http://www.w3.org/2000/svg" xmlns:xlink="http://www.w3.org/1999/xlink" x="0px" y="0px"
	 viewBox="0 0 149 175" enable-background="new 0 0 149 175" xml:space="preserve">
<g>
	<path fill="#989898" d="M84.2,7.4c0.1-0.8,0.4-1.6,0.9-2.2c1.7-2.3,4.9-2.7,7.3-1c1.6,1.2,2.4,3.1,2.1,5L84.2,7.4z"/>
	<path fill="#989898" d="M108.2,17.6c0.7,0.4,1.4,0.8,2.1,1.3c0,3.1,0.1,6.2-0.1,9.3c-0.7,0.1-1.2,0.4-1.7,0.7c-2.7-2-5.2-4.1-7.9-6
		c0-0.7-0.1-1.5-0.3-2.2C102.9,19.7,105.6,18.7,108.2,17.6z"/>
	<path fill="#989898" d="M96.2,18c-0.2,0-0.3,0-0.5,0c-1.1-2.1-2.2-4.2-3.3-6.2c1.7,0.4,3.4,0.8,4.9,1.2c2.9,0.9,5.6,2,8.1,3.2
		c-2.2,0.9-4.5,1.7-6.7,2.5C98,18.2,97.2,18,96.2,18z"/>
	<path fill="#989898" d="M87.4,10.9c0.6,0.1,1.3,0.2,1.9,0.3c1.5,2.5,2.9,5.1,4.2,7.7c-0.5,0.4-0.8,0.8-1.1,1.4
		c-3.4-0.5-6.9-0.9-10.3-1.3c-0.1-0.8-0.3-1.5-0.7-2.2C83.6,15.1,85.7,13.2,87.4,10.9z"/>
	<path fill="#989898" d="M79.5,15.1c-0.5-0.2-1.1-0.4-1.8-0.4c-0.7,0-1.3,0.1-1.8,0.3c-1.6-1.6-3.4-3.1-5.1-4.7
		c4.6-0.2,9.3-0.2,13.8,0.3C83.1,12.3,81.3,13.8,79.5,15.1z"/>
	<path fill="#989898" d="M58.9,16.8c-1.2,0-2.2,0.5-2.8,1.1c-2.7-1.1-5.2-2.3-7.8-3.6c2.9-1,6-1.9,9.2-2.4c1.5-0.3,3.1-0.5,4.7-0.7
		C61.1,13,60,14.9,58.9,16.8z"/>
	<path fill="#989898" d="M42.9,24.3c0.5-2.8,1-5.6,1.4-8.4c0.3-0.1,0.6-0.3,0.9-0.4c3.2,1.6,6.3,3.2,9.6,4.5
		c-0.1,0.4-0.2,0.7-0.2,1.1c-3.4,1.4-6.9,2.5-10,4.5C44.3,25,43.7,24.5,42.9,24.3z"/>
	<path fill="#989898" d="M40.5,24.1c-1.3,0.2-2.3,1-2.9,2c-2.2-0.5-4.4-0.9-6.7-1.3c3.2-3,6.8-5.5,10.7-7.6
		C41.3,19.5,40.9,21.8,40.5,24.1z"/>
	<path fill="#989898" d="M37.5,30.8c-2.3,2.2-4.6,4.5-7,6.6c-0.3,0-0.6-0.1-0.9-0.1c-0.1,0-0.2,0-0.3,0c-0.7-2.9-1.4-5.8-2.2-8.7
		c0.5-0.6,1.1-1.2,1.6-1.8c2.7,0.5,5.4,1,8.1,1.6C37,29.2,37.1,30.1,37.5,30.8z"/>
	<path fill="#989898" d="M27.1,38.1c-0.9,0.7-1.5,1.7-1.7,2.7c-2.4,0.5-4.7,1.2-7,2c1.8-4.3,4.2-8.3,6.9-11.9
		C26,33.3,26.5,35.7,27.1,38.1z"/>
	<path fill="#989898" d="M27.3,45.8c-0.8,3.4-2.1,6.6-3.4,9.8c-0.2,0-0.4,0-0.7,0c-1.1,0-1.9,0.3-2.6,0.8c-1.4-2.2-3-4.3-4.7-6.3
		c0.4-1.4,0.8-2.8,1.3-4.2c2.7-0.9,5.4-1.8,8.2-2.5C25.8,44.3,26.4,45.2,27.3,45.8z"/>
	<path fill="#989898" d="M18.9,60.7c-1.8,1.2-3.6,2.5-5.3,3.9c0.1-2.7,0.4-5.5,0.9-8.4c0.2-1.2,0.4-2.3,0.7-3.5
		c1.4,1.8,2.8,3.6,3.9,5.6C18.8,59.1,18.8,60,18.9,60.7z"/>
	<path fill="#989898" d="M13.6,67.8c2-1.7,4-3.3,6.2-4.8c0.5,0.6,1.1,1.1,2,1.3c0.4,3.5,0.7,6.9,1.4,10.4c-1,0.4-1.8,1.1-2.2,2
		c-2.2-1.9-4.7-3.3-7.2-4.9C13.7,70.5,13.6,69.1,13.6,67.8z"/>
	<path fill="#989898" d="M17.3,86.7c-1.5-3.7-2.5-7.7-3.1-11.9c2.2,1.4,4.4,2.9,6.3,4.7c0.1,0.7,0.3,1.4,0.7,2
		C19.9,83.3,18.6,85,17.3,86.7z"/>
	<path fill="#989898" d="M24.7,83.5c1,3.4,2.9,6.4,4.6,9.6c-0.7,0.5-1.1,1.3-1.4,2.1c-2.8-1-5.5-2.3-8.3-3.4
		c-0.4-0.8-0.9-1.6-1.3-2.5c1.5-2,3.1-4.1,4.6-6.2C23.5,83.4,24.1,83.5,24.7,83.5z"/>
	<path fill="#989898" d="M28.8,99.9c-0.9,1.5-1.6,3-2.3,4.5c-1.6-3.1-3.3-6.2-4.9-9.2c2.1,0.9,4.1,1.8,6.2,2.5
		C28,98.5,28.3,99.3,28.8,99.9z"/>
	<path fill="#989898" d="M32.1,101.3c1.1,0,2-0.3,2.6-0.8c4,1.3,8.1,2.2,11.9,3.7c0,0.2,0,0.4,0.1,0.7c-3.3,0.7-6.6,1.9-9.9,2.6
		c-2.7,0.6-5.4,1.1-8,1.8c-0.3-0.7-0.6-1.3-0.9-2c0.9-2.1,1.9-4.2,3-6.1C31.3,101.2,31.7,101.3,32.1,101.3z"/>
	<path fill="#989898" d="M112.8,36.8c2,2.5,3.7,5.2,5,8.1c-0.7,0.7-1.1,1.5-1.3,2.5c-5.5,0.1-10.9-0.3-16.4-0.8
		c-0.1-0.6-0.2-1.1-0.4-1.6c2.8-3.1,6-5.9,9.3-8.4c0.6,0.3,1.3,0.5,2.1,0.5C111.7,37.1,112.3,37,112.8,36.8z"/>
	<path fill="#989898" d="M98.1,43.2c-0.3-0.2-0.7-0.4-1.2-0.5c0-5.2-0.1-10.5-0.2-15.7c1.4-0.2,2.3-0.8,3-1.8
		c2.5,1.8,4.9,3.7,7.3,5.5c-0.5,1.3-0.4,2.9,0.2,4.2C104,37.4,100.9,40.2,98.1,43.2z"/>
	<path fill="#989898" d="M92.2,24.5c-2.4,2-4.5,4.3-6.8,6.5c-2.2,2.1-4.8,3.9-7.2,5.9c0-4.4,0-8.9,0.5-13.2c1.4-0.3,2.4-1.2,2.9-2.4
		c3.4,0.4,6.8,0.8,10.2,1.3C91.8,23.2,92,23.9,92.2,24.5z"/>
	<path fill="#989898" d="M57.6,43.2c0.3-5.8,1.2-11.6,1.3-17.4c0.1,0,0.1,0,0.2,0c0.1,0,0.1,0,0.2,0c4.3,4.4,8.8,8.8,12.9,13.4
		c-0.2,0.4-0.3,0.8-0.4,1.2c-4.6,0.9-8.8,2.8-13.4,3.7C58.2,43.8,57.9,43.5,57.6,43.2z"/>
	<path fill="#989898" d="M56.5,25c-0.1,5.7-0.9,11.4-1.3,17.2c-0.2,0-0.4,0-0.6,0c-0.4,0-0.7,0-1.1,0.1c-2.4-4.1-5.2-8-8.4-11.4
		c0.5-0.9,0.7-2,0.5-3c2.9-1.9,6.3-3.1,9.5-4.3C55.5,24.1,55.9,24.6,56.5,25z"/>
	<path fill="#989898" d="M43,59.1c-0.4,0-0.8,0-1.1,0.1c-2.7-4.9-6.2-9.3-9.2-14c0.2-0.2,0.4-0.4,0.5-0.6c5.7,0.4,11.4,1.5,17.1,2.1
		c0,0.8,0.2,1.7,0.6,2.4c-2.4,3.2-4.4,6.7-6.2,10.3C44.2,59.2,43.6,59.1,43,59.1z"/>
	<path fill="#989898" d="M24.2,64.4c1.3-0.3,2.2-1.1,2.8-2.1c3.8,0.9,7.7,1.6,11.6,2c0.1,0.7,0.3,1.3,0.7,1.9
		c-3.5,3.5-7.9,5.9-11.4,9.4c-0.6-0.6-1.3-1-2.3-1.1C25,71.2,24.6,67.8,24.2,64.4z"/>
	<path fill="#989898" d="M41.2,67.8c0.5,0.2,1,0.3,1.7,0.3c0.1,3.9,0.5,7.7,1,11.5c-1.1,0.5-1.8,1.5-2.2,2.5
		c-4.2-0.9-8.3-1.7-12.5-2.6c0.1-0.6,0.1-1.2-0.1-1.8C32.7,74.1,37.5,71.6,41.2,67.8z"/>
	<path fill="#989898" d="M28.2,81.9c4.4,0.9,8.8,1.8,13.2,2.7c0.1,0.5,0.2,1,0.4,1.4c-2.6,2.2-5.2,4.4-7.8,6.6
		c-0.6-0.3-1.3-0.5-2.1-0.5c-0.2,0-0.4,0-0.6,0c-1.6-3-3.4-6-4.4-9.3C27.6,82.7,27.9,82.3,28.2,81.9z"/>
	<path fill="#989898" d="M106.3,62.3c-0.5,0-0.9,0.1-1.4,0.2c-2.6-3.6-4.6-7.7-7.2-11.3c1-0.5,1.7-1.3,2.1-2.2
		c5.6,0.5,11.2,0.9,16.8,0.8c0.1,0.4,0.3,0.9,0.6,1.2c-3.4,3.6-6.2,7.6-9,11.7C107.6,62.5,107,62.3,106.3,62.3z"/>
	<path fill="#989898" d="M81.7,58.3c-0.1,0-0.1,0-0.2,0c-0.7-4.4-1.7-8.8-2.8-13.2c0.5-0.4,0.9-0.9,1.2-1.5
		c3.8,1.3,7.6,2.5,11.5,3.5c0,0.8,0.2,1.6,0.6,2.3c-3.5,2.7-6.4,6.2-10,8.8C82,58.3,81.8,58.3,81.7,58.3z"/>
	<path fill="#989898" d="M78.1,60c-6.3-4.1-12.9-7.7-19.6-11c0.4-0.8,0.6-1.7,0.5-2.5c4.3-0.9,8.4-2.8,12.8-3.6
		c0.5,1.7,1.9,3.1,4.2,3.1c0.1,0,0.3,0,0.4,0c1.1,4.3,2.1,8.6,2.8,13C78.8,59.3,78.4,59.6,78.1,60z"/>
	<path fill="#989898" d="M101.9,66.8c0,1,0.2,2,0.8,2.8c-2.6,3.6-4.8,7.5-7.6,10.9c-0.1,0-0.3,0-0.4,0c-0.7,0-1.4,0.1-1.9,0.4
		c-2.3-5.1-5.3-9.8-7.9-14.7c0.7-0.8,1.1-1.8,1.2-2.8C91.4,64.1,96.7,65.4,101.9,66.8z"/>
	<path fill="#989898" d="M33.8,130.1c-0.3-6.9-1.9-13-4.1-18.5c2.2-0.6,4.4-1,6.7-1.5c3.8-0.8,7.5-2.2,11.3-3
		c0.4,0.5,0.9,0.8,1.4,1.1C44.3,115.7,38.9,122.8,33.8,130.1z"/>
	<path fill="#989898" d="M30.8,151.4c-0.7,2.8-4.6,13-11.6,22.3h75.5c1.7-8.1,4.5-30,12.2-32.1c10.3-2.8,23.3,1.2,25.9-9.4
		c0.9-3.6-1.3-6.1-0.8-10.2c0.3-2.5,5.5-5.3,1-8.7c2.2-1.4,3.6-3,3.2-4.7c-0.2-1.1-0.5-3.1-0.6-4.2c-0.8-2.5,2.9-3.8,4.6-4.4
		c0,0,0,0,0,0c0.5-0.2,1-0.3,1.3-0.5c4.4-2.4,3.1-5.8,0.7-9.2l-9.9-15.3c-0.4-1.2-0.7-2.3-0.8-3.4c-0.3-3.7,1.9-4.9,2.2-7.9
		c0.4-3.4-0.4-6.8-1.4-9.9c-2.9-0.6-5.8-1.2-8.5-2.5c-0.7,0.8-1.8,1.4-3.2,1.4c-0.6,0-1.2-0.1-1.7-0.3c-3.4,3.6-6.3,7.7-9.1,11.8
		c1.6,2.7,0.4,7.1-3.7,7.1c-0.7,0-1.2-0.1-1.8-0.3c-2.5,3.4-4.5,7-7.1,10.3c2.8,2.3,1.9,8.1-2.8,8.1c-4,0-5.3-4.3-3.8-7
		c-2.3-5.3-5.4-10.2-8.1-15.3c-0.3,0.1-0.7,0.1-1,0.1c-3.1,0-4.6-2.6-4.4-5c-6.6-4.4-13.6-8.1-20.6-11.6c-0.6,0.3-1.2,0.4-2,0.4
		c-0.8,0-1.4-0.2-2-0.4c-2.3,3.2-4.3,6.7-6,10.2c1.3,2.1,0.8,5.3-1.4,6.6c0.1,3.9,0.5,7.8,1,11.7c4.8,0.4,5.2,7.3,1.2,8.8
		c1.1,3.8,2.2,7.6,3.5,11.4c0,0,0.1,0,0.1,0c5.6,0,5.8,8.2,0.8,9c-5.6,8.9-12,17.1-18,25.8c-0.1,2.6-0.3,5.3-0.7,8.2
		C32.6,145.7,31.6,148.5,30.8,151.4z M55.6,80.7c-0.7-4.5-0.2-8.7,1.4-11.9c0.8-1.7,1.9-3.1,3.3-4.1c1.4-1.1,3-1.8,4.7-2.1
		c0.5-0.1,1-0.1,1.4-0.1c1.6,0,3.2,0.5,4.6,1.4c1.2,0.8,2.3,1.9,3.2,3.2c0.5,0.7,1,1.6,1.4,2.5h-3.8c-1.4-2.3-3.3-3.8-5.5-3.8
		c-0.3,0-0.6,0-0.9,0.1c-4.7,0.8-7.9,6.2-6.6,14.3c0,0.3,0.1,0.6,0.2,0.9c0.5,2.3,1.4,4.4,2.7,6.3c0.2,0.3,0.4,0.6,0.7,0.9
		c1.4,1.6,3,3.1,4.4,4.7c0.3,0.3,0.6,0.7,0.8,1c1.3,1.9,2.6,4.6,5.1,4.6c0.1,0,0.3,0,0.5,0c0.6,0,1-0.2,1.4-0.3
		c0.9-0.3,0.7-1.1,0.2-2.3h3.5c0.3,1,0.3,2-0.1,3.1c-0.4,1-1.3,1.9-2.4,2.3l0,0c-0.4,0.2-1.2,0.5-2.3,0.5c-0.2,0-0.5,0-0.7,0
		c-1.8,0-3.5-0.7-4.9-2.1c-1-0.9-1.7-2-2.3-3c-0.2-0.3-0.4-0.6-0.6-0.9c-0.2-0.3-0.4-0.6-0.7-0.8c-0.7-0.8-1.4-1.5-2.1-2.3
		c-0.7-0.8-1.5-1.5-2.2-2.4l-0.1-0.1l-0.1-0.1c-0.3-0.4-0.5-0.7-0.8-1.1c-1.6-2.4-2.6-4.9-3.1-7.5l0,0l0,0
		C55.7,81.4,55.6,81.1,55.6,80.7z"/>
	<path fill="#989898" d="M127.1,38.9c1,2.3,1.9,4.6,2.7,7.2c0.5,1.7,1.2,3.4,1.8,5.2c-2.3-0.5-4.5-1.1-6.5-2.1
		c0.2-1.2,0-2.5-0.6-3.6C125.3,43.4,126.1,41.1,127.1,38.9z"/>
	<path fill="#989898" d="M93.8,51.2c0.3,0.2,0.7,0.3,1.1,0.4c3.1,3.8,5.2,8.3,8,12.3c-0.2,0.2-0.3,0.4-0.4,0.6
		c-5.6-1.4-11.2-2.8-16.9-3.6c-0.2-0.6-0.6-1.1-1-1.5C87.8,56.8,90.5,53.7,93.8,51.2z"/>
	<path fill="#989898" d="M47.1,101.8c-3.6-1.4-7.3-2.3-10.9-3.4c0.4-1.3,0.3-2.8-0.3-4c2.5-2.2,5.1-4.4,7.7-6.5
		c0.4,0.2,0.9,0.4,1.4,0.5c1.1,4,2.2,7.9,3.6,11.8C48,100.5,47.5,101.1,47.1,101.8z"/>
	<path fill="#989898" d="M27.6,60c0-1.3-0.5-2.6-1.5-3.5c1.3-3.3,2.7-6.6,3.5-10.1c0,0,0,0,0.1,0c0.3,0,0.6,0,0.8-0.1
		c3.1,4.7,6.6,9.2,9.3,14.1c-0.4,0.4-0.7,1-0.9,1.6C35.1,61.5,31.3,60.8,27.6,60z"/>
	<path fill="#989898" d="M34,42.3c0.1-1.3-0.3-2.7-1.2-3.7c2.2-2,4.2-4,6.3-6c0.6,0.3,1.3,0.5,2.2,0.5c0.8,0,1.5-0.2,2.1-0.5
		c3.1,3.3,5.8,7,8,10.9c-0.3,0.3-0.5,0.6-0.6,0.9C45.2,43.8,39.6,42.8,34,42.3z"/>
	<path fill="#989898" d="M76.4,23.6c-0.5,4.4-0.5,8.9-0.5,13.3c-0.8,0-1.5,0.2-2,0.5c-3.8-4.4-7.9-8.4-12-12.5
		c1-0.8,1.5-1.9,1.6-3.1c3.3-0.5,6.6-1,10-1.2C73.8,22,74.8,23.2,76.4,23.6z"/>
	<path fill="#989898" d="M94.4,26.7c0,5.3,0.1,10.7,0.2,16c-1.2,0.3-2.1,1.1-2.6,2.1c-3.9-1-7.7-2.3-11.5-3.6c0-0.9-0.3-1.7-0.7-2.4
		c2.2-1.8,4.6-3.4,6.7-5.4c2.5-2.4,4.7-4.9,7.4-7.1C93.9,26.5,94.2,26.6,94.4,26.7z"/>
	<path fill="#989898" d="M63.2,19.5c-0.3-0.9-0.9-1.6-1.8-2.1c1.2-2.2,2.6-4.3,3.7-6.5c0.8-0.1,1.5-0.1,2.3-0.2
		c2.1,2.1,4.4,4,6.5,6.1c-0.3,0.5-0.5,1-0.6,1.5C70,18.5,66.6,19,63.2,19.5z"/>
	<path fill="#989898" d="M112.6,28.3c0.1-2.6,0.1-5.2,0.1-7.8c4.2,3,7.6,6.7,10.5,11.1c-2.7-0.5-5.4-0.9-8.1-1
		C114.7,29.6,113.8,28.7,112.6,28.3z"/>
	<path fill="#989898" d="M120.8,43.8c-0.3,0-0.6,0-0.9,0.1c-1.4-3-3.2-5.9-5.3-8.5c0.5-0.7,0.7-1.5,0.8-2.3c3.1,0.2,6.3,0.7,9.4,1.3
		c0.3,0.6,0.7,1.2,1,1.9c-1.3,2.5-2.3,5.2-3.3,7.9C122,43.9,121.5,43.8,120.8,43.8z"/>
	<path fill="#989898" d="M131.4,38.9l-4.7-9.3c0.7-0.4,1.5-0.6,2.3-0.6c2.8,0,5.1,2.4,5.1,5.3C134.1,36.2,133,38,131.4,38.9z"/>
	<path fill="#989898" d="M106.4,13.2c0.4-0.7,0.9-1.3,1.6-1.8c2.3-1.6,5.5-0.9,7.1,1.6c1.1,1.7,1.2,3.8,0.3,5.4L106.4,13.2z"/>
	<path fill="#989898" d="M60.8,5.7c1-2.6,4-3.9,6.7-2.9c1.9,0.7,3.2,2.4,3.4,4.2L60.6,8.1C60.5,7.3,60.6,6.5,60.8,5.7z"/>
	<path fill="#989898" d="M37.9,12.1c0.2-2.8,2.7-4.9,5.6-4.7c2,0.2,3.7,1.4,4.4,3.1l-9.7,4C38,13.7,37.8,12.9,37.9,12.1z"/>
	<path fill="#989898" d="M20,27c-0.9-2.7,0.6-5.6,3.3-6.5c1.9-0.7,3.9-0.2,5.3,1.1L21.3,29C20.7,28.5,20.3,27.8,20,27z"/>
	<path fill="#989898" d="M9.2,51C7.1,49.1,7,45.8,9,43.7c1.4-1.5,3.4-2,5.2-1.6l-2.9,10C10.5,52,9.8,51.6,9.2,51z"/>
	<path fill="#989898" d="M5,69.4c0.7-1.9,2.4-3.2,4.2-3.4l1.2,10.4c-0.8,0.1-1.6,0-2.4-0.3C5.3,75.1,4,72.1,5,69.4z"/>
	<path fill="#989898" d="M13.9,87.6l3.8,9.7c-0.7,0.3-1.6,0.5-2.4,0.4c-2.8-0.3-4.8-2.8-4.6-5.7C10.9,89.9,12.2,88.3,13.9,87.6z"/>
	<path fill="#989898" d="M24.6,114.9c-2.8-0.1-5-2.5-4.9-5.4c0.1-2,1.2-3.8,2.9-4.6l4.4,9.5C26.3,114.7,25.5,114.9,24.6,114.9z"/>
</g>
<circle fill="#F37525" cx="76.1" cy="41.5" r="3.5"/>
<circle fill="#F37525" cx="41.4" cy="28.6" r="3.5"/>
<circle fill="#F37525" cx="23.2" cy="60" r="3.5"/>
</svg>
