<?xml version="1.0" encoding="utf-8"?>
<!-- Generator: Adobe Illustrator 17.1.0, SVG Export Plug-In . SVG Version: 6.00 Build 0)  -->
<!DOCTYPE svg PUBLIC "-//W3C//DTD SVG 1.1//EN" "http://www.w3.org/Graphics/SVG/1.1/DTD/svg11.dtd">
<svg version="1.1" id="Layer_1" xmlns="http://www.w3.org/2000/svg" xmlns:xlink="http://www.w3.org/1999/xlink" x="0px" y="0px"
	 viewBox="0 0 856.5 874.5" enable-background="new 0 0 856.5 874.5" xml:space="preserve">
<path opacity="0.5" fill="#C6C6C6" d="M561.8,355.4c-26,12.8-57.5,2-70.2-24.1c-12.7-26-2-57.5,24.1-70.2
	c26-12.7,57.5-1.9,70.2,24.1C598.6,311.2,587.8,342.7,561.8,355.4z"/>
<path opacity="0.5" fill="#C6C6C6" d="M607.5,84.2c-7.3-14.9-25.2-21.1-40.1-13.8c-14.9,7.3-21.1,25.2-13.8,40.1
	c7.3,14.9,25.2,21.1,40.1,13.8C608.6,117,614.8,99.1,607.5,84.2z"/>
<path opacity="0.5" fill="#C6C6C6" d="M485.1,682.2c28.5-14,40.3-48.4,26.4-76.9c-14-28.5-48.4-40.3-76.9-26.4
	c-28.5,13.9-40.3,48.4-26.4,76.9C422.1,684.4,456.6,696.2,485.1,682.2z"/>
<path opacity="0.5" fill="#C6C6C6" d="M204.6,660.8c23.6-11.5,33.3-40,21.8-63.6c-11.5-23.5-40-33.3-63.5-21.8
	c-23.6,11.5-33.3,40-21.8,63.6C152.6,662.6,181,672.3,204.6,660.8z"/>
<path opacity="0.5" fill="#C6C6C6" d="M401.8,839.2c-4.7-9.6-16.3-13.6-25.9-8.9c-9.6,4.7-13.6,16.3-8.9,25.9
	c4.7,9.6,16.3,13.6,25.9,8.9C402.6,860.4,406.5,848.8,401.8,839.2z"/>
<path opacity="0.5" fill="#C6C6C6" d="M595.8,424.9c15.5-7.6,21.9-26.3,14.3-41.8c-7.6-15.5-26.3-21.9-41.8-14.3
	c-15.5,7.6-21.9,26.3-14.4,41.8C561.5,426.1,580.3,432.5,595.8,424.9z"/>
<path fill="#5E5E5E" d="M198.8,424.3c36-17.6,50.9-61,33.3-97c-17.6-35.9-61-50.9-97-33.2c-36,17.6-50.9,61-33.3,97
	C119.4,427,162.8,441.8,198.8,424.3z"/>
<path opacity="0.5" fill="#C6C6C6" d="M62.5,589.4c14.1-6.9,19.9-24,13-38.1c-6.9-14.2-23.9-20-38.1-13c-14.1,6.9-20,24-13.1,38.1
	C31.3,590.5,48.4,596.3,62.5,589.4z"/>
<path opacity="0.5" fill="#C6C6C6" d="M366.9,103.5c13-6.4,18.4-22.1,12.1-35.1c-6.4-13-22.1-18.4-35.2-12
	c-13,6.4-18.4,22.1-12,35.1C338.2,104.5,353.9,109.9,366.9,103.5z"/>
<path opacity="0.5" fill="#C6C6C6" d="M300,167.4c11.2-5.4,15.8-19,10.4-30.1c-5.5-11.2-19-15.8-30.1-10.3
	c-11.1,5.5-15.8,19-10.3,30.1C275.3,168.2,288.8,172.8,300,167.4z"/>
<path opacity="0.5" fill="#C6C6C6" d="M610.3,756c5.6-2.7,7.9-9.5,5.2-15.1c-2.8-5.6-9.5-7.9-15.1-5.2c-5.6,2.7-7.9,9.4-5.1,15
	C598,756.4,604.7,758.8,610.3,756z"/>
<path opacity="0.5" fill="#C6C6C6" d="M811.6,616.2c26-12.7,36.8-44.2,24.1-70.2c-12.7-26.1-44.2-36.9-70.2-24.1
	c-26.1,12.8-36.9,44.2-24.1,70.2C754.1,618.2,785.5,629,811.6,616.2z"/>
<path opacity="0.5" fill="#C6C6C6" d="M772.9,246.4c16.1-7.9,22.8-27.4,14.9-43.5c-7.9-16.1-27.4-22.8-43.5-14.9
	c-16.1,7.9-22.8,27.4-14.9,43.5C737.3,247.6,756.8,254.3,772.9,246.4z"/>
<path id="_x23__2_37_" opacity="0.5" fill="#737373" d="M359.4,473.3c-19.4-39.7-3-87.6,36.7-107c39.7-19.4,87.6-3,107,36.7
	c19.4,39.7,3,87.6-36.7,107C426.7,529.4,378.8,513,359.4,473.3z M298.9,486.2C325,473.5,335.7,442,323,416
	c-12.7-26.1-44.2-36.8-70.2-24.1c-26,12.7-36.8,44.2-24.1,70.2C241.4,488.2,272.8,498.9,298.9,486.2z M348.4,314.5
	c29.8-14.6,42.1-50.6,27.5-80.3c-14.6-29.8-50.5-42.1-80.3-27.5c-29.8,14.6-42.1,50.5-27.5,80.3C282.7,316.7,318.7,329,348.4,314.5z
	 M534.1,176.2c-9.1-18.6-31.6-26.3-50.2-17.2c-18.6,9.1-26.3,31.6-17.2,50.2c9.1,18.6,31.6,26.4,50.2,17.2
	C535.5,217.3,543.2,194.8,534.1,176.2z M104.3,483.6c16.1-7.9,22.8-27.3,14.9-43.5c-7.9-16.1-27.3-22.8-43.5-14.9
	c-16.1,7.9-22.8,27.4-14.9,43.5C68.7,484.8,88.2,491.5,104.3,483.6z M83.6,302.2c16.2-7.9,22.8-27.4,14.9-43.6
	c-7.9-16.2-27.4-22.9-43.6-14.9C38.8,251.5,32.1,271,40,287.2C47.9,303.4,67.4,310,83.6,302.2z M722.6,752.1
	c14.9-7.3,21.1-25.3,13.8-40.1c-7.3-14.9-25.2-21-40.1-13.7c-14.9,7.3-21,25.2-13.7,40.1C689.8,753.2,707.7,759.3,722.6,752.1z
	 M378.5,788.3c25.4-12.5,36-43.1,23.5-68.6c-12.4-25.4-43.1-35.9-68.5-23.5c-25.4,12.4-36,43.1-23.5,68.5
	C322.4,790.2,353.1,800.7,378.5,788.3z M773.6,283.7c-24.8,12.2-35.1,42.1-23,67c12.2,24.8,42.2,35.1,67,23
	c24.9-12.2,35.1-42.2,23-67C828.4,281.8,798.4,271.5,773.6,283.7z M200.7,129.1c10.5-5.1,14.8-17.7,9.7-28.2
	c-5.1-10.5-17.8-14.8-28.2-9.6c-10.4,5.1-14.8,17.7-9.7,28.2C177.6,129.8,190.2,134.1,200.7,129.1z M234.7,281
	c10.5-5.2,14.9-17.9,9.7-28.4c-5.1-10.5-17.9-14.9-28.4-9.7c-10.6,5.2-14.9,17.9-9.8,28.4C211.4,281.8,224.1,286.2,234.7,281z
	 M292.8,669.9c11.1-5.4,15.7-18.8,10.2-29.8c-5.4-11.1-18.8-15.7-29.9-10.3c-11.1,5.4-15.7,18.8-10.3,29.9
	C268.3,670.8,281.7,675.3,292.8,669.9z"/>
<path id="_x23__3_37_" opacity="0.5" fill="#2D2D2D" d="M9.9,413.3c-4.9-9.9-0.7-21.9,9.2-26.8c9.9-4.9,21.9-0.7,26.8,9.2
	c4.9,9.9,0.7,21.9-9.2,26.8C26.7,427.3,14.7,423.2,9.9,413.3z M650.9,705.1c31.6-15.5,44.7-53.7,29.2-85.3
	c-15.5-31.6-53.6-44.7-85.3-29.3c-31.6,15.5-44.7,53.7-29.2,85.3C581.1,707.4,619.3,720.5,650.9,705.1z M628.2,547.8
	c-4.3-8.7-14.7-12.3-23.4-8.1c-8.7,4.3-12.3,14.7-8,23.4c4.3,8.7,14.7,12.2,23.4,8C628.9,566.9,632.5,556.4,628.2,547.8z
	 M310.7,800.6c-4.2-8.7-14.8-12.3-23.4-8c-8.7,4.2-12.3,14.7-8,23.4c4.2,8.7,14.7,12.3,23.4,8C311.3,819.7,314.9,809.2,310.7,800.6z
	 M499.9,114.7c-4.2-8.6-14.7-12.3-23.4-8c-8.6,4.2-12.2,14.8-8,23.4c4.2,8.7,14.7,12.3,23.4,8C500.6,133.8,504.1,123.4,499.9,114.7z
	 M681.4,346.4c18-8.8,25.4-30.5,16.6-48.5c-8.8-18-30.5-25.4-48.5-16.7c-18,8.8-25.4,30.5-16.6,48.5
	C641.7,347.7,663.4,355.2,681.4,346.4z M193.5,227.3c23-11.2,32.4-39,21.2-61.9c-11.2-22.9-38.9-32.4-61.8-21.2
	c-23,11.2-32.5,38.9-21.2,61.9C142.9,229,170.6,238.5,193.5,227.3z M730.7,285c6.9-3.4,9.7-11.6,6.3-18.5
	c-3.4-6.8-11.6-9.7-18.5-6.3c-6.8,3.4-9.7,11.6-6.3,18.5C715.6,285.5,723.9,288.3,730.7,285z"/>
<path opacity="0.5" fill="#5E5E5E" d="M517.2,522.8c-11.2-22.9-1.8-50.7,21.2-61.9c22.9-11.2,50.7-1.7,61.9,21.3
	c11.2,22.9,1.7,50.6-21.2,61.9C556.1,555.2,528.4,545.7,517.2,522.8z"/>
<path opacity="0.5" fill="#5E5E5E" d="M324.6,600.4c22.9-11.2,32.4-38.9,21.2-61.9c-11.2-23-38.9-32.5-61.9-21.2
	c-22.9,11.2-32.5,38.9-21.2,61.9C273.9,602.1,301.6,611.6,324.6,600.4z"/>
<path opacity="0.5" fill="#5E5E5E" d="M552.4,847.9c16.2-7.9,22.8-27.3,14.9-43.5c-7.9-16.1-27.3-22.8-43.5-14.9
	c-16.1,7.9-22.8,27.3-14.9,43.5C516.8,849.1,536.3,855.8,552.4,847.9z"/>
<path fill="#5E5E5E" d="M656.6,255.8c29.8-14.6,42.1-50.5,27.5-80.3c-14.6-29.8-50.5-42.1-80.3-27.5c-29.8,14.6-42.1,50.5-27.5,80.3
	C590.9,258.1,626.8,270.4,656.6,255.8z"/>
<path opacity="0.5" fill="#5E5E5E" d="M159.7,562.9c21.1-10.3,29.8-35.7,19.5-56.8c-10.3-21.1-35.8-29.8-56.9-19.5
	c-21.1,10.3-29.8,35.8-19.5,56.9C113.1,564.5,138.6,573.2,159.7,562.9z"/>
<path opacity="0.5" fill="#5E5E5E" d="M112.8,676.4c16.9-8.2,23.9-28.6,15.6-45.5c-8.2-16.9-28.6-23.8-45.5-15.6
	C66,623.5,59,643.9,67.3,660.8C75.5,677.6,95.9,684.6,112.8,676.4z"/>
<path opacity="0.5" fill="#5E5E5E" d="M545.9,760.6c20.5-10,28.9-34.7,18.9-55.2c-10-20.5-34.7-28.9-55.2-18.9
	c-20.4,10-28.9,34.7-18.9,55.2C500.7,762.2,525.5,770.6,545.9,760.6z"/>
<path opacity="0.5" fill="#5E5E5E" d="M420.4,202.6c22.9-11.2,32.4-38.9,21.2-61.9c-11.2-22.9-38.9-32.4-61.9-21.2
	c-22.9,11.2-32.4,38.9-21.2,61.9C369.8,204.3,397.5,213.9,420.4,202.6z"/>
<path opacity="0.5" fill="#5E5E5E" d="M486.2,85.7c19.2-9.4,27.1-32.6,17.7-51.8c-9.4-19.2-32.6-27.1-51.8-17.8
	c-19.2,9.4-27.1,32.6-17.7,51.8C443.9,87.1,467.1,95.1,486.2,85.7z"/>
<path id="_x23__5_37_" opacity="0.5" fill="#AFAFAF" d="M420.2,296c-6.7-13.6-1-30.1,12.6-36.8c13.7-6.7,30.1-1,36.8,12.6
	c6.7,13.6,1,30.1-12.6,36.8C443.3,315.3,426.8,309.7,420.2,296z M670.9,142.7c6.7,13.7,23.1,19.3,36.8,12.6
	c13.7-6.7,19.3-23.1,12.6-36.8c-6.7-13.6-23.2-19.3-36.8-12.6C669.8,112.7,664.2,129.1,670.9,142.7z M282.4,65.6
	c-7.3-14.9-25.2-21-40.1-13.8c-14.9,7.3-21.1,25.2-13.7,40.1c7.3,14.9,25.2,21.1,40.1,13.8C283.5,98.5,289.7,80.5,282.4,65.6z
	 M695.6,577.4c16.2-7.9,22.8-27.3,14.9-43.5c-7.9-16.1-27.3-22.8-43.5-14.9c-16.1,7.9-22.8,27.4-14.9,43.5
	C660,578.7,679.5,585.3,695.6,577.4z M254.4,792.8c32.8-16.1,46.4-55.7,30.4-88.6c-16.1-32.9-55.8-46.5-88.6-30.4
	c-32.9,16.1-46.5,55.8-30.4,88.7C181.7,795.3,221.4,808.9,254.4,792.8z M236.6,540.9c10-4.9,14.1-16.9,9.2-26.9
	c-4.9-10-16.9-14.1-26.8-9.2c-10,4.9-14.1,16.9-9.2,26.8C214.7,541.7,226.7,545.8,236.6,540.9z M463.9,797.9
	c10.5-5.1,14.9-17.9,9.8-28.4c-5.1-10.6-17.9-14.9-28.4-9.8c-10.5,5.1-14.9,17.9-9.7,28.5C440.7,798.7,453.4,803.1,463.9,797.9z
	 M367.3,665.7c14.2-7,20.2-24.2,13.2-38.5c-7-14.3-24.2-20.2-38.5-13.2c-14.3,7-20.2,24.2-13.2,38.5
	C335.7,666.8,353,672.7,367.3,665.7z M265.3,213.1c5.6-2.7,7.9-9.5,5.2-15.1c-2.7-5.6-9.5-7.9-15.1-5.1c-5.6,2.7-7.9,9.5-5.2,15.1
	C253,213.5,259.7,215.9,265.3,213.1z M344.2,374.4c12.1-5.9,17.1-20.6,11.2-32.7c-5.9-12.1-20.6-17.2-32.7-11.2
	s-17.2,20.6-11.2,32.7C317.4,375.3,332.1,380.3,344.2,374.4z M646.7,810.2c12.1-5.9,17.2-20.6,11.2-32.7
	c-5.9-12.2-20.6-17.1-32.7-11.2c-12.1,5.9-17.1,20.6-11.2,32.7C620,811.2,634.6,816.2,646.7,810.2z M393.4,571
	c11.3-5.5,15.9-19.1,10.4-30.3c-5.5-11.2-19.1-15.9-30.4-10.4c-11.2,5.5-15.9,19.1-10.4,30.4C368.6,571.8,382.2,576.5,393.4,571z"/>
<path fill="#5E5E5E" d="M754.6,408.7c16.7,34,2.5,75.1-31.5,91.8c-34,16.6-75.1,2.5-91.8-31.5c-16.7-34-2.6-75.1,31.5-91.8
	C696.9,360.6,738,374.7,754.6,408.7z"/>
<path opacity="0.5" fill="#737373" d="M826.7,467.2c16.1-7.9,22.8-27.3,14.9-43.5c-7.9-16.1-27.3-22.8-43.5-14.9
	c-16.1,7.9-22.8,27.4-14.9,43.5C791.1,468.5,810.6,475.1,826.7,467.2z"/>
<g>
	<g>
		<path fill="#FFFFFF" d="M621.9,213.2h16.5c-1.4,2-3.1,3.6-4.6,4.8c-2.6,2-4.8,2.8-4.9,2.9c-0.2,0.1-1.2,0.5-2.7,1.3c0,0,0,0,0,0
			c-1.7,0.9-3.9,2.3-6.1,4.4c-4.4,4-8.7,10.4-8.7,20h7.1c0-0.6,0-1.2,0.1-1.8h23.2c0,0.6,0.1,1.2,0.1,1.8h7.1c0-9.6-4.3-16-8.7-20
			c-1.7,1.3-3.3,2.3-4.5,2.9l-0.2,0.1c-0.7,0.4-1.3,0.7-1.8,0.9c1.6,1.2,3.2,2.8,4.7,4.9h-16.7c1.4-2.1,3.1-3.7,4.7-4.9
			c2.5-1.9,4.7-2.8,4.9-2.9c0.2-0.1,1.2-0.5,2.7-1.3c0,0,0,0,0,0c1.7-0.9,3.9-2.3,6.2-4.4c4.4-4,8.7-10.4,8.7-20
			c0-9.6-4.3-16-8.7-20c-2.7,2-5.1,3.3-6.5,3.9c1.6,1.2,3.2,2.8,4.7,4.9h-16.7c1.6-2.4,3.6-4.2,5.4-5.4c0.9-0.6,1.8-1.1,2.4-1.5
			l2.4-1.1c1.2-0.5,4-1.9,6.9-4.3c4.8-3.9,10-10.6,10-21.2h-7.1c0,0.7-0.1,1.3-0.1,1.9h-23.1c-0.1-0.6-0.1-1.2-0.1-1.9h-7.1
			c0,9.6,4.3,16,8.7,20c2.7-2,5.1-3.3,6.5-3.9c-1.5-1.2-3.2-2.8-4.6-4.8h16.5c-3.7,5.4-9.1,7.5-9.5,7.7c-0.7,0.3-17.6,6.7-17.6,25.7
			c0,9.6,4.3,16,8.7,20c1.4-1.1,2.9-2.1,4.5-2.9c0.8-0.4,1.5-0.8,2-1C625,216.9,623.4,215.3,621.9,213.2z M641.3,162
			c-0.3,1.3-0.7,2.6-1.3,3.7h-19.8c-0.5-1.1-0.9-2.4-1.3-3.7H641.3z M619.1,241.9c0.3-1.3,0.7-2.6,1.2-3.7h19.8
			c0.5,1.1,0.9,2.4,1.2,3.7L619.1,241.9z M641.8,203.8h-23.1c-0.1-0.6-0.1-1.2-0.1-1.9c0-0.6,0-1.2,0.1-1.8h23.2
			c0,0.6,0.1,1.2,0.1,1.8C641.9,202.6,641.8,203.2,641.8,203.8z M640.1,193.5c0.5,1.1,0.9,2.4,1.2,3.7H619c0.3-1.3,0.7-2.6,1.2-3.7
			H640.1z M620.3,210.4c-0.5-1.1-0.9-2.4-1.2-3.7h22.3c-0.3,1.3-0.7,2.6-1.3,3.7H620.3z"/>
	</g>
	<g>
		<rect x="619.3" y="203.8" fill="#F26722" width="21.9" height="2.9"/>
		<path fill="none" stroke="#7E7E7E" stroke-width="0.9645" stroke-miterlimit="10" d="M627,218c0,0-8.1-5.1-8-16.4
			c0.1-11.4,9.1-16.2,10.3-16.9"/>
		<path fill="none" stroke="#7E7E7E" stroke-width="0.9645" stroke-miterlimit="10" d="M632,218.2c0,0,8.3-3.4,9.3-14.8
			c1-11.3-7.4-16.6-8.5-17.4"/>
		<path fill="none" stroke="#7E7E7E" stroke-width="0.9645" stroke-miterlimit="10" d="M627.2,173.2c0,0-5.1-3.4-6.8-8.3
			s-1.4-7.6-1.4-7.6"/>
		<path fill="none" stroke="#7E7E7E" stroke-width="0.9645" stroke-miterlimit="10" d="M633,173.2c0,0,5.4-3.4,7.1-8.3
			c1.7-5,1.4-7.6,1.4-7.6"/>
		<path fill="none" stroke="#7E7E7E" stroke-width="0.9645" stroke-miterlimit="10" d="M624.9,232.8c0,0-6,4.3-6,13.7"/>
		<path fill="none" stroke="#7E7E7E" stroke-width="0.9645" stroke-miterlimit="10" d="M635.6,232.8c0,0,6,4.3,6,13.7"/>
	</g>
</g>
<g>
	<rect x="109.2" y="368.7" fill="#FFFFFF" width="69.2" height="6.5"/>
	<path fill="#FFFFFF" d="M163.5,355.1c0-4.5,3.7-8.2,8.2-8.2c4.5,0,8.2,3.7,8.2,8.2c0,4.5-3.7,8.2-8.2,8.2
		C167.1,363.3,163.5,359.6,163.5,355.1z"/>
	<path fill="#FFFFFF" d="M153,346.6h-27.5l-16.3,2.5v14.2l8.2,0c-0.7-1.1-1.1-2.3-1.1-3.6c0-3.8,3.1-6.9,6.9-6.9h15l12.2-2.5
		l0.7,3.2l-12.5,2.6h-15.4c-2,0-3.6,1.6-3.6,3.6c0,2,1.6,3.6,3.6,3.6l29.8,0c4.6,0,8.3-3.7,8.3-8.3
		C161.3,350.4,157.6,346.6,153,346.6z"/>
	<path fill="#FFFFFF" d="M167.2,392.6c18.3,0,33.2-14.9,33.2-33.2c0-18.3-14.9-33.2-33.2-33.2c-12,0-22.5,6.4-28.3,15.9h13.9
		c3.9-3.3,9-5.3,14.5-5.3c12.5,0,22.6,10.1,22.6,22.6c0,12.5-10.1,22.6-22.6,22.6c-3.5,0-6.9-0.8-9.8-2.3h-16.5
		C147,387.6,156.5,392.6,167.2,392.6z"/>
	<path fill="#FFFFFF" d="M167.2,307.9c-22.7,0-42,14.8-48.7,35.2l6.3-1l10.3,0c6.2-11.4,18.2-19.2,32.1-19.2
		c20.2,0,36.5,16.3,36.5,36.5c0,20.2-16.3,36.5-36.5,36.5c-12.7,0-23.8-6.5-30.4-16.2H120c7.9,18.2,26,31,47.1,31
		c28.4,0,51.4-23,51.4-51.4C218.6,330.9,195.6,307.9,167.2,307.9z"/>
	<path fill="#F26722" d="M178.8,319.6c-0.2,0.7-0.8,1.2-1.6,1.2c-0.1,0-0.3,0-0.4-0.1c-6.3-1.6-12.9-1.6-19.2,0
		c-0.9,0.2-1.8-0.3-2-1.2c-0.2-0.9,0.3-1.8,1.2-2c6.8-1.7,14-1.7,20.8,0C178.5,317.9,179.1,318.7,178.8,319.6z"/>
</g>
<g>
	<path fill="#FFFFFF" d="M698.5,393.9c0.1-0.4,0.2-0.9,0.5-1.2c0.9-1.2,2.7-1.5,4-0.5c0.9,0.7,1.3,1.7,1.2,2.7L698.5,393.9z"/>
	<path fill="#FFFFFF" d="M711.7,399.5c0.4,0.2,0.8,0.4,1.2,0.7c0,1.7,0,3.4,0,5.1c-0.4,0.1-0.7,0.2-0.9,0.4
		c-1.5-1.1-2.9-2.2-4.4-3.3c0-0.4,0-0.8-0.2-1.2C708.8,400.6,710.2,400.1,711.7,399.5z"/>
	<path fill="#FFFFFF" d="M705.1,399.6c-0.1,0-0.2,0-0.3,0c-0.6-1.2-1.2-2.3-1.8-3.4c0.9,0.2,1.8,0.4,2.7,0.7
		c1.6,0.5,3.1,1.1,4.4,1.7c-1.2,0.5-2.5,0.9-3.7,1.4C706.1,399.8,705.6,399.6,705.1,399.6z"/>
	<path fill="#FFFFFF" d="M700.3,395.8c0.3,0,0.7,0.1,1,0.1c0.8,1.4,1.6,2.8,2.3,4.2c-0.3,0.2-0.5,0.5-0.6,0.7
		c-1.9-0.3-3.8-0.5-5.6-0.7c0-0.4-0.2-0.8-0.4-1.2C698.2,398.1,699.4,397,700.3,395.8z"/>
	<path fill="#FFFFFF" d="M696,398.1c-0.3-0.1-0.6-0.2-1-0.2c-0.4,0-0.7,0.1-1,0.2c-0.9-0.9-1.8-1.7-2.8-2.6c2.5-0.1,5.1-0.1,7.6,0.1
		C697.9,396.6,697,397.4,696,398.1z"/>
	<path fill="#FFFFFF" d="M684.7,399c-0.7,0-1.2,0.3-1.6,0.6c-1.5-0.6-2.9-1.3-4.3-2c1.6-0.6,3.3-1,5-1.3c0.8-0.1,1.7-0.3,2.6-0.4
		C685.9,396.9,685.3,398,684.7,399z"/>
	<path fill="#FFFFFF" d="M675.9,403.1c0.3-1.5,0.5-3.1,0.8-4.6c0.2-0.1,0.3-0.2,0.5-0.2c1.7,0.9,3.5,1.7,5.3,2.5
		c-0.1,0.2-0.1,0.4-0.1,0.6c-1.9,0.8-3.8,1.4-5.5,2.4C676.7,403.5,676.3,403.2,675.9,403.1z"/>
	<path fill="#FFFFFF" d="M674.6,403c-0.7,0.1-1.3,0.5-1.6,1.1c-1.2-0.2-2.4-0.5-3.7-0.7c1.8-1.6,3.7-3,5.9-4.2
		C675,400.5,674.8,401.7,674.6,403z"/>
	<path fill="#FFFFFF" d="M673,406.7c-1.3,1.2-2.5,2.4-3.8,3.6c-0.2,0-0.3,0-0.5,0c0,0-0.1,0-0.1,0c-0.4-1.6-0.8-3.2-1.2-4.8
		c0.3-0.3,0.6-0.7,0.9-1c1.5,0.3,3,0.5,4.4,0.9C672.7,405.8,672.8,406.3,673,406.7z"/>
	<path fill="#FFFFFF" d="M667.3,410.7c-0.5,0.4-0.8,0.9-0.9,1.5c-1.3,0.3-2.6,0.7-3.8,1.1c1-2.4,2.3-4.5,3.8-6.5
		C666.6,408.1,667,409.4,667.3,410.7z"/>
	<path fill="#FFFFFF" d="M667.4,414.9c-0.4,1.8-1.1,3.6-1.8,5.4c-0.1,0-0.2,0-0.4,0c-0.6,0-1,0.2-1.4,0.4c-0.8-1.2-1.7-2.3-2.6-3.5
		c0.2-0.8,0.5-1.5,0.7-2.3c1.5-0.5,3-1,4.5-1.3C666.5,414.1,666.9,414.5,667.4,414.9z"/>
	<path fill="#FFFFFF" d="M662.8,423.1c-1,0.6-2,1.4-2.9,2.1c0.1-1.5,0.2-3,0.5-4.6c0.1-0.6,0.2-1.3,0.4-1.9c0.8,1,1.5,2,2.1,3
		C662.7,422.2,662.7,422.6,662.8,423.1z"/>
	<path fill="#FFFFFF" d="M659.9,426.9c1.1-0.9,2.2-1.8,3.4-2.6c0.3,0.3,0.6,0.6,1.1,0.7c0.2,1.9,0.4,3.8,0.8,5.7
		c-0.6,0.2-1,0.6-1.2,1.1c-1.2-1-2.6-1.8-3.9-2.7C659.9,428.4,659.9,427.7,659.9,426.9z"/>
	<path fill="#FFFFFF" d="M661.9,437.3c-0.8-2-1.4-4.2-1.7-6.5c1.2,0.8,2.4,1.6,3.5,2.6c0,0.4,0.2,0.8,0.4,1.1
		C663.3,435.4,662.6,436.4,661.9,437.3z"/>
	<path fill="#FFFFFF" d="M666,435.5c0.6,1.9,1.6,3.5,2.5,5.3c-0.4,0.3-0.6,0.7-0.8,1.2c-1.5-0.5-3-1.2-4.5-1.9
		c-0.2-0.4-0.5-0.9-0.7-1.4c0.8-1.1,1.7-2.2,2.5-3.4C665.3,435.5,665.6,435.5,666,435.5z"/>
	<path fill="#FFFFFF" d="M668.2,444.5c-0.5,0.8-0.9,1.6-1.3,2.5c-0.9-1.7-1.8-3.4-2.7-5c1.1,0.5,2.2,1,3.4,1.4
		C667.7,443.8,667.9,444.2,668.2,444.5z"/>
	<path fill="#FFFFFF" d="M670,445.3c0.6,0,1.1-0.2,1.4-0.4c2.2,0.7,4.4,1.2,6.5,2c0,0.1,0,0.2,0,0.4c-1.8,0.4-3.6,1-5.4,1.4
		c-1.5,0.3-2.9,0.6-4.4,1c-0.2-0.4-0.3-0.7-0.5-1.1c0.5-1.2,1-2.3,1.7-3.4C669.6,445.2,669.8,445.3,670,445.3z"/>
	<path fill="#FFFFFF" d="M714.2,410c1.1,1.3,2,2.9,2.7,4.4c-0.4,0.4-0.6,0.8-0.7,1.4c-3,0-6-0.2-9-0.4c0-0.3-0.1-0.6-0.2-0.9
		c1.5-1.7,3.3-3.2,5.1-4.6c0.3,0.2,0.7,0.3,1.2,0.3C713.6,410.1,713.9,410.1,714.2,410z"/>
	<path fill="#FFFFFF" d="M706.2,413.5c-0.2-0.1-0.4-0.2-0.6-0.3c0-2.9-0.1-5.7-0.1-8.6c0.7-0.1,1.3-0.5,1.6-1c1.4,1,2.7,2,4,3
		c-0.3,0.7-0.2,1.6,0.1,2.3C709.4,410.3,707.7,411.8,706.2,413.5z"/>
	<path fill="#FFFFFF" d="M702.9,403.2c-1.3,1.1-2.5,2.4-3.7,3.6c-1.2,1.2-2.6,2.1-3.9,3.2c0-2.4,0-4.8,0.3-7.3
		c0.8-0.2,1.3-0.7,1.6-1.3c1.9,0.2,3.7,0.5,5.6,0.7C702.7,402.5,702.8,402.9,702.9,403.2z"/>
	<path fill="#FFFFFF" d="M684,413.5c0.2-3.2,0.6-6.3,0.7-9.5c0,0,0.1,0,0.1,0c0,0,0.1,0,0.1,0c2.4,2.4,4.8,4.8,7.1,7.4
		c-0.1,0.2-0.2,0.4-0.2,0.7c-2.5,0.5-4.8,1.6-7.3,2C684.3,413.8,684.1,413.6,684,413.5z"/>
	<path fill="#FFFFFF" d="M683.4,403.5c0,3.1-0.5,6.3-0.7,9.4c-0.1,0-0.2,0-0.3,0c-0.2,0-0.4,0-0.6,0.1c-1.3-2.2-2.8-4.4-4.6-6.2
		c0.3-0.5,0.4-1.1,0.3-1.7c1.6-1,3.4-1.7,5.2-2.4C682.8,403,683.1,403.3,683.4,403.5z"/>
	<path fill="#FFFFFF" d="M676,422.2c-0.2,0-0.4,0-0.6,0.1c-1.5-2.7-3.4-5.1-5-7.7c0.1-0.1,0.2-0.2,0.3-0.3c3.1,0.2,6.2,0.8,9.4,1.1
		c0,0.5,0.1,0.9,0.3,1.3c-1.3,1.8-2.4,3.7-3.4,5.6C676.6,422.2,676.3,422.2,676,422.2z"/>
	<path fill="#FFFFFF" d="M665.7,425.1c0.7-0.2,1.2-0.6,1.5-1.1c2.1,0.5,4.2,0.9,6.4,1.1c0.1,0.4,0.2,0.7,0.4,1
		c-1.9,1.9-4.3,3.2-6.3,5.1c-0.3-0.3-0.7-0.5-1.2-0.6C666.1,428.8,665.9,426.9,665.7,425.1z"/>
	<path fill="#FFFFFF" d="M675,427c0.3,0.1,0.6,0.2,0.9,0.2c0.1,2.1,0.3,4.2,0.6,6.3c-0.6,0.3-1,0.8-1.2,1.4
		c-2.3-0.5-4.6-0.9-6.9-1.4c0-0.3,0-0.7,0-1C670.3,430.4,672.9,429,675,427z"/>
	<path fill="#FFFFFF" d="M667.9,434.7c2.4,0.5,4.8,1,7.2,1.5c0,0.3,0.1,0.5,0.2,0.8c-1.4,1.2-2.9,2.4-4.3,3.6
		c-0.3-0.2-0.7-0.3-1.1-0.3c-0.1,0-0.2,0-0.3,0c-0.9-1.7-1.9-3.3-2.4-5.1C667.5,435.1,667.7,434.9,667.9,434.7z"/>
	<path fill="#FFFFFF" d="M710.6,423.9c-0.3,0-0.5,0-0.7,0.1c-1.4-2-2.5-4.2-4-6.2c0.6-0.3,0.9-0.7,1.2-1.2c3.1,0.3,6.1,0.5,9.2,0.4
		c0.1,0.2,0.2,0.5,0.3,0.7c-1.8,2-3.4,4.2-4.9,6.4C711.4,424,711,423.9,710.6,423.9z"/>
	<path fill="#FFFFFF" d="M697.2,421.7C697.1,421.7,697.1,421.7,697.2,421.7c-0.5-2.4-1-4.8-1.6-7.2c0.3-0.2,0.5-0.5,0.7-0.8
		c2.1,0.7,4.2,1.4,6.3,1.9c0,0.5,0.1,0.9,0.3,1.3c-1.9,1.5-3.5,3.4-5.5,4.8C697.3,421.7,697.2,421.7,697.2,421.7z"/>
	<path fill="#FFFFFF" d="M695.2,422.7c-3.4-2.3-7.1-4.2-10.8-6c0.2-0.4,0.3-0.9,0.3-1.4c2.4-0.5,4.6-1.5,7-2c0.3,0.9,1,1.7,2.3,1.7
		c0.1,0,0.1,0,0.2,0c0.6,2.4,1.1,4.7,1.5,7.1C695.6,422.3,695.4,422.5,695.2,422.7z"/>
	<path fill="#FFFFFF" d="M708.2,426.4c0,0.5,0.1,1.1,0.4,1.5c-1.4,2-2.6,4.1-4.2,6c-0.1,0-0.2,0-0.2,0c-0.4,0-0.7,0.1-1,0.2
		c-1.3-2.8-2.9-5.4-4.3-8.1c0.4-0.4,0.6-1,0.7-1.5C702.5,424.9,705.4,425.6,708.2,426.4z"/>
	<path fill="#FFFFFF" d="M670.9,461c-0.2-3.8-1-7.1-2.2-10.1c1.2-0.3,2.4-0.6,3.7-0.8c2.1-0.4,4.1-1.2,6.2-1.6
		c0.2,0.2,0.5,0.5,0.8,0.6C676.7,453.1,673.7,457,670.9,461z"/>
	<path fill="#FFFFFF" d="M669.3,472.7c-0.4,1.5-2.5,7.1-6.3,12.2h41.3c0.9-4.4,2.5-16.4,6.7-17.6c5.6-1.6,12.8,0.7,14.2-5.1
		c0.5-2-0.7-3.3-0.4-5.6c0.2-1.4,3-2.9,0.6-4.7c1.2-0.7,2-1.6,1.7-2.6c-0.1-0.6-0.3-1.7-0.4-2.3c-0.4-1.4,1.6-2.1,2.5-2.4
		c0,0,0,0,0,0c0.3-0.1,0.5-0.2,0.7-0.3c2.4-1.3,1.7-3.2,0.4-5L725,431c-0.2-0.6-0.4-1.3-0.4-1.9c-0.2-2,1-2.7,1.2-4.3
		c0.2-1.9-0.2-3.7-0.8-5.4c-1.6-0.3-3.2-0.7-4.6-1.4c-0.4,0.5-1,0.8-1.8,0.8c-0.3,0-0.6-0.1-0.9-0.2c-1.9,2-3.4,4.2-5,6.5
		c0.9,1.5,0.2,3.9-2,3.9c-0.4,0-0.7-0.1-1-0.2c-1.3,1.9-2.5,3.9-3.9,5.7c1.5,1.3,1,4.5-1.5,4.5c-2.2,0-2.9-2.3-2.1-3.8
		c-1.3-2.9-3-5.6-4.4-8.4c-0.2,0-0.4,0.1-0.6,0.1c-1.7,0-2.5-1.4-2.4-2.7c-3.6-2.4-7.4-4.4-11.3-6.3c-0.3,0.2-0.7,0.2-1.1,0.2
		c-0.4,0-0.8-0.1-1.1-0.2c-1.3,1.8-2.3,3.6-3.3,5.6c0.7,1.1,0.5,2.9-0.8,3.6c0.1,2.1,0.3,4.3,0.6,6.4c2.6,0.2,2.9,4,0.7,4.8
		c0.6,2.1,1.2,4.2,1.9,6.2c0,0,0,0,0.1,0c3.1,0,3.2,4.5,0.4,4.9c-3.1,4.9-6.6,9.4-9.9,14.1c0,1.4-0.2,2.9-0.4,4.5
		C670.3,469.6,669.7,471.1,669.3,472.7z M682.9,434c-0.4-2.5-0.1-4.7,0.8-6.5c0.5-0.9,1.1-1.7,1.8-2.3c0.8-0.6,1.6-1,2.6-1.2
		c0.3,0,0.5-0.1,0.8-0.1c0.9,0,1.8,0.3,2.5,0.8c0.7,0.4,1.3,1,1.8,1.8c0.3,0.4,0.5,0.9,0.8,1.4h-2.1c-0.8-1.2-1.8-2.1-3-2.1
		c-0.2,0-0.3,0-0.5,0c-2.6,0.4-4.3,3.4-3.6,7.8c0,0.2,0.1,0.3,0.1,0.5c0.3,1.2,0.8,2.4,1.5,3.5c0.1,0.2,0.2,0.3,0.4,0.5
		c0.8,0.9,1.6,1.7,2.4,2.6c0.2,0.2,0.3,0.4,0.4,0.6c0.7,1,1.4,2.5,2.8,2.5c0.1,0,0.2,0,0.3,0c0.3,0,0.6-0.1,0.7-0.2
		c0.5-0.2,0.4-0.6,0.1-1.2h1.9c0.1,0.5,0.2,1.1-0.1,1.7c-0.2,0.6-0.7,1-1.3,1.3l0,0c-0.2,0.1-0.7,0.3-1.3,0.3c-0.1,0-0.3,0-0.4,0
		c-1,0-1.9-0.4-2.7-1.1c-0.5-0.5-0.9-1.1-1.3-1.6c-0.1-0.2-0.2-0.3-0.3-0.5c-0.1-0.2-0.2-0.3-0.4-0.5c-0.4-0.4-0.8-0.8-1.2-1.3
		c-0.4-0.4-0.8-0.8-1.2-1.3l0-0.1l0-0.1c-0.1-0.2-0.3-0.4-0.4-0.6c-0.8-1.3-1.4-2.7-1.7-4.1l0,0l0,0
		C682.9,434.4,682.9,434.2,682.9,434z"/>
	<path fill="#FFFFFF" d="M722,411.1c0.5,1.2,1,2.5,1.5,3.9c0.3,0.9,0.6,1.9,1,2.9c-1.2-0.3-2.5-0.6-3.6-1.1c0.1-0.7,0-1.4-0.3-2
		C721.1,413.6,721.5,412.3,722,411.1z"/>
	<path fill="#FFFFFF" d="M703.8,417.9c0.2,0.1,0.4,0.2,0.6,0.2c1.7,2.1,2.9,4.5,4.4,6.7c-0.1,0.1-0.2,0.2-0.2,0.3
		c-3.1-0.8-6.1-1.6-9.2-2c-0.1-0.3-0.3-0.6-0.6-0.8C700.5,420.9,702,419.2,703.8,417.9z"/>
	<path fill="#FFFFFF" d="M678.2,445.5c-2-0.7-4-1.2-6-1.9c0.2-0.7,0.2-1.5-0.2-2.2c1.4-1.2,2.8-2.4,4.2-3.6c0.2,0.1,0.5,0.2,0.8,0.3
		c0.6,2.2,1.2,4.3,2,6.5C678.7,444.9,678.4,445.2,678.2,445.5z"/>
	<path fill="#FFFFFF" d="M667.5,422.7c0-0.7-0.3-1.4-0.8-1.9c0.7-1.8,1.5-3.6,1.9-5.5c0,0,0,0,0,0c0.2,0,0.3,0,0.5,0
		c1.7,2.6,3.6,5,5.1,7.7c-0.2,0.2-0.4,0.5-0.5,0.8C671.6,423.5,669.6,423.1,667.5,422.7z"/>
	<path fill="#FFFFFF" d="M671.1,413c0.1-0.7-0.2-1.5-0.7-2c1.2-1.1,2.3-2.2,3.5-3.3c0.3,0.2,0.7,0.3,1.2,0.3c0.5,0,0.8-0.1,1.2-0.3
		c1.7,1.8,3.2,3.8,4.4,6c-0.1,0.1-0.3,0.3-0.3,0.5C677.2,413.8,674.1,413.3,671.1,413z"/>
	<path fill="#FFFFFF" d="M694.2,402.8c-0.3,2.4-0.3,4.8-0.3,7.3c-0.4,0-0.8,0.1-1.1,0.3c-2.1-2.4-4.4-4.6-6.6-6.9
		c0.5-0.4,0.8-1,0.9-1.7c1.8-0.3,3.6-0.5,5.5-0.7C692.8,401.9,693.4,402.5,694.2,402.8z"/>
	<path fill="#FFFFFF" d="M704.1,404.4c0,2.9,0.1,5.9,0.1,8.8c-0.7,0.2-1.2,0.6-1.4,1.2c-2.1-0.6-4.2-1.3-6.3-2
		c0-0.5-0.1-0.9-0.4-1.3c1.2-1,2.5-1.9,3.7-3c1.4-1.3,2.6-2.7,4-3.9C703.9,404.3,704,404.4,704.1,404.4z"/>
	<path fill="#FFFFFF" d="M687,400.5c-0.2-0.5-0.5-0.9-1-1.2c0.7-1.2,1.4-2.4,2-3.6c0.4,0,0.8-0.1,1.3-0.1c1.2,1.1,2.4,2.2,3.6,3.3
		c-0.2,0.3-0.3,0.5-0.3,0.8C690.7,399.9,688.9,400.2,687,400.5z"/>
	<path fill="#FFFFFF" d="M714.1,405.3c0.1-1.4,0-2.8,0-4.3c2.3,1.7,4.2,3.7,5.7,6.1c-1.5-0.3-2.9-0.5-4.4-0.5
		C715.2,406,714.8,405.5,714.1,405.3z"/>
	<path fill="#FFFFFF" d="M718.6,413.8c-0.2,0-0.3,0-0.5,0c-0.8-1.6-1.8-3.2-2.9-4.6c0.3-0.4,0.4-0.8,0.4-1.3
		c1.7,0.1,3.4,0.4,5.1,0.7c0.2,0.3,0.4,0.7,0.5,1c-0.7,1.4-1.2,2.9-1.8,4.3C719.3,413.8,718.9,413.8,718.6,413.8z"/>
	<path fill="#FFFFFF" d="M724.4,411.1l-2.6-5.1c0.4-0.2,0.8-0.3,1.3-0.3c1.5,0,2.8,1.3,2.8,2.9C725.9,409.7,725.3,410.6,724.4,411.1
		z"/>
	<path fill="#FFFFFF" d="M710.7,397c0.2-0.4,0.5-0.7,0.9-1c1.3-0.9,3-0.5,3.9,0.9c0.6,0.9,0.6,2.1,0.2,3L710.7,397z"/>
	<path fill="#FFFFFF" d="M685.7,392.9c0.5-1.4,2.2-2.2,3.7-1.6c1,0.4,1.7,1.3,1.9,2.3l-5.7,0.6C685.5,393.8,685.6,393.4,685.7,392.9
		z"/>
	<path fill="#FFFFFF" d="M673.2,396.4c0.1-1.5,1.5-2.7,3.1-2.6c1.1,0.1,2,0.8,2.4,1.7l-5.3,2.2C673.2,397.3,673.1,396.9,673.2,396.4
		z"/>
	<path fill="#FFFFFF" d="M663.4,404.6c-0.5-1.5,0.3-3.1,1.8-3.6c1.1-0.4,2.2-0.1,2.9,0.6l-4,4.1C663.8,405.4,663.5,405,663.4,404.6z
		"/>
	<path fill="#FFFFFF" d="M657.4,417.7c-1.1-1-1.2-2.8-0.1-4c0.8-0.8,1.9-1.1,2.8-0.9l-1.6,5.5C658.2,418.3,657.8,418,657.4,417.7z"
		/>
	<path fill="#FFFFFF" d="M655.2,427.8c0.4-1,1.3-1.7,2.3-1.9l0.6,5.7c-0.4,0.1-0.9,0-1.3-0.1C655.4,430.9,654.6,429.3,655.2,427.8z"
		/>
	<path fill="#FFFFFF" d="M660,437.8l2.1,5.3c-0.4,0.2-0.8,0.2-1.3,0.2c-1.5-0.1-2.6-1.6-2.5-3.1C658.4,439.1,659.1,438.2,660,437.8z
		"/>
	<path fill="#FFFFFF" d="M665.9,452.7c-1.5,0-2.7-1.4-2.7-3c0-1.1,0.7-2.1,1.6-2.5l2.4,5.2C666.8,452.6,666.4,452.7,665.9,452.7z"/>
</g>
<circle fill="#F26722" cx="675.1" cy="405.4" r="1.9"/>
<circle fill="#F26722" cx="694.1" cy="412.6" r="1.9"/>
<circle fill="#F26722" cx="665.1" cy="422.7" r="1.9"/>
</svg>
