<?xml version="1.0" encoding="utf-8"?>
<!-- Generator: Adobe Illustrator 17.1.0, SVG Export Plug-In . SVG Version: 6.00 Build 0)  -->
<!DOCTYPE svg PUBLIC "-//W3C//DTD SVG 1.1//EN" "http://www.w3.org/Graphics/SVG/1.1/DTD/svg11.dtd">
<svg version="1.1" id="Layer_1" xmlns="http://www.w3.org/2000/svg" xmlns:xlink="http://www.w3.org/1999/xlink" x="0px" y="0px"
	 viewBox="0 0 200 200" enable-background="new 0 0 200 200" xml:space="preserve">
<g id="Shape_37_">
	<path id="_x23__1_37_" fill="#84B9E3" d="M132,81.3c-5.9,2.9-13.1,0.4-15.9-5.5c-2.9-5.9-0.4-13.1,5.5-15.9
		c5.9-2.9,13.1-0.4,15.9,5.5C140.3,71.2,137.9,78.4,132,81.3z M142.4,19.7c-1.7-3.4-5.7-4.8-9.1-3.1c-3.4,1.7-4.8,5.7-3.1,9.1
		c1.7,3.4,5.7,4.8,9.1,3.1C142.6,27.1,144,23,142.4,19.7z M114.5,155.5c6.5-3.2,9.2-11,6-17.5c-3.2-6.5-11-9.2-17.5-6
		c-6.5,3.2-9.2,11-6,17.5C100.3,156,108.1,158.6,114.5,155.5z M50.9,150.6c5.4-2.6,7.6-9.1,4.9-14.4c-2.6-5.3-9.1-7.6-14.4-4.9
		c-5.4,2.6-7.6,9.1-5,14.4C39,151,45.5,153.2,50.9,150.6z M95.6,191.1c-1.1-2.2-3.7-3.1-5.9-2c-2.2,1.1-3.1,3.7-2,5.9
		c1.1,2.2,3.7,3.1,5.9,2C95.8,195.9,96.7,193.3,95.6,191.1z M139.7,97c3.5-1.7,5-6,3.3-9.5c-1.7-3.5-6-5-9.5-3.3
		c-3.5,1.7-5,6-3.3,9.5C131.9,97.3,136.2,98.8,139.7,97z M49.5,96.9c8.2-4,11.6-13.9,7.6-22c-4-8.2-13.9-11.5-22-7.5
		c-8.2,4-11.6,13.9-7.6,22C31.5,97.5,41.4,100.9,49.5,96.9z M18.6,134.4c3.2-1.6,4.5-5.4,3-8.6c-1.6-3.2-5.4-4.5-8.6-3
		c-3.2,1.6-4.5,5.4-3,8.6C11.5,134.6,15.4,136,18.6,134.4z M87.7,24c3-1.4,4.2-5,2.7-8c-1.4-3-5-4.2-8-2.7c-3,1.4-4.2,5-2.7,8
		C81.2,24.3,84.8,25.5,87.7,24z M72.5,38.6c2.5-1.2,3.6-4.3,2.4-6.8c-1.2-2.5-4.3-3.6-6.8-2.3c-2.5,1.2-3.6,4.3-2.3,6.8
		C66.9,38.7,70,39.8,72.5,38.6z M143,172.2c1.3-0.6,1.8-2.2,1.2-3.4c-0.6-1.3-2.2-1.8-3.4-1.2c-1.3,0.6-1.8,2.1-1.2,3.4
		C140.2,172.3,141.7,172.9,143,172.2z M188.7,140.5c5.9-2.9,8.4-10,5.5-15.9c-2.9-5.9-10-8.4-15.9-5.5c-5.9,2.9-8.4,10-5.5,16
		C175.6,140.9,182.8,143.4,188.7,140.5z M179.9,56.5c3.7-1.8,5.2-6.2,3.4-9.9c-1.8-3.7-6.2-5.2-9.9-3.4c-3.7,1.8-5.2,6.2-3.4,9.9
		C171.8,56.8,176.2,58.3,179.9,56.5z"/>
	<path id="_x23__2_37_" fill="#2875BA" d="M86,108c-4.4-9-0.7-19.9,8.3-24.3c9-4.4,19.9-0.7,24.3,8.3c4.4,9,0.7,19.9-8.3,24.3
		C101.3,120.8,90.4,117.1,86,108z M72.3,111c5.9-2.9,8.4-10,5.5-16c-2.9-5.9-10-8.4-16-5.5c-5.9,2.9-8.4,10-5.5,16
		C59.2,111.4,66.4,113.9,72.3,111z M83.5,72c6.8-3.3,9.6-11.5,6.3-18.2c-3.3-6.8-11.5-9.6-18.2-6.2c-6.8,3.3-9.6,11.5-6.3,18.2
		C68.6,72.5,76.8,75.3,83.5,72z M125.7,40.6c-2.1-4.2-7.2-6-11.4-3.9c-4.2,2.1-6,7.2-3.9,11.4c2.1,4.2,7.2,6,11.4,3.9
		C126,49.9,127.8,44.8,125.7,40.6z M28.1,110.4c3.7-1.8,5.2-6.2,3.4-9.9c-1.8-3.7-6.2-5.2-9.9-3.4c-3.7,1.8-5.2,6.2-3.4,9.9
		C20,110.6,24.4,112.2,28.1,110.4z M23.4,69.2c3.7-1.8,5.2-6.2,3.4-9.9c-1.8-3.7-6.2-5.2-9.9-3.4c-3.7,1.8-5.2,6.2-3.4,9.9
		C15.3,69.4,19.7,71,23.4,69.2z M168.5,171.3c3.4-1.7,4.8-5.7,3.1-9.1c-1.7-3.4-5.7-4.8-9.1-3.1c-3.4,1.7-4.8,5.7-3.1,9.1
		C161,171.6,165.1,173,168.5,171.3z M90.3,179.6c5.8-2.8,8.2-9.8,5.3-15.6c-2.8-5.8-9.8-8.1-15.6-5.3c-5.8,2.8-8.2,9.8-5.3,15.6
		C77.6,180,84.6,182.4,90.3,179.6z M180.1,65c-5.6,2.8-8,9.6-5.2,15.2c2.8,5.6,9.6,8,15.2,5.2c5.6-2.8,8-9.6,5.2-15.2
		C192.5,64.5,185.7,62.2,180.1,65z M50,29.8c2.4-1.2,3.4-4,2.2-6.4c-1.2-2.4-4-3.4-6.4-2.2c-2.4,1.2-3.4,4-2.2,6.4
		C44.7,30,47.6,31,50,29.8z M57.7,64.4c2.4-1.2,3.4-4.1,2.2-6.5c-1.2-2.4-4.1-3.4-6.5-2.2c-2.4,1.2-3.4,4.1-2.2,6.5
		C52.4,64.5,55.3,65.5,57.7,64.4z M70.9,152.7c2.5-1.2,3.6-4.3,2.3-6.8c-1.2-2.5-4.3-3.6-6.8-2.3c-2.5,1.2-3.6,4.3-2.3,6.8
		C65.3,152.9,68.4,153.9,70.9,152.7z"/>
	<path id="_x23__3_37_" fill="#304094" d="M6.6,94.4c-1.1-2.2-0.2-5,2.1-6.1c2.3-1.1,5-0.2,6.1,2.1c1.1,2.3,0.2,5-2.1,6.1
		C10.5,97.6,7.7,96.7,6.6,94.4z M152.2,160.7c7.2-3.5,10.2-12.2,6.6-19.4c-3.5-7.2-12.2-10.2-19.4-6.6c-7.2,3.5-10.2,12.2-6.6,19.4
		C136.4,161.2,145,164.2,152.2,160.7z M147.1,124.9c-1-2-3.3-2.8-5.3-1.8c-2,1-2.8,3.3-1.8,5.3c1,2,3.3,2.8,5.3,1.8
		C147.2,129.3,148,126.9,147.1,124.9z M74.9,182.3c-1-2-3.3-2.8-5.3-1.8c-2,1-2.8,3.3-1.8,5.3c1,2,3.3,2.8,5.3,1.8
		C75.1,186.7,75.9,184.3,74.9,182.3z M117.9,26.6c-1-2-3.3-2.8-5.3-1.8c-2,1-2.8,3.4-1.8,5.3c1,2,3.3,2.8,5.3,1.8
		C118.1,30.9,118.9,28.6,117.9,26.6z M159.1,79.2c4.1-2,5.8-6.9,3.8-11c-2-4.1-6.9-5.8-11-3.8c-4.1,2-5.8,6.9-3.8,11
		C150.1,79.5,155.1,81.2,159.1,79.2z M48.3,52.2c5.2-2.5,7.4-8.8,4.8-14.1c-2.5-5.2-8.8-7.4-14-4.8c-5.2,2.5-7.4,8.8-4.8,14
		C36.8,52.6,43.1,54.7,48.3,52.2z M170.3,65.3c1.6-0.8,2.2-2.6,1.4-4.2c-0.8-1.6-2.6-2.2-4.2-1.4c-1.6,0.8-2.2,2.6-1.4,4.2
		C166.9,65.4,168.8,66,170.3,65.3z"/>
	<path id="_x23__4_37_" fill="#2669B2" d="M121.8,119.3c-2.5-5.2-0.4-11.5,4.8-14.1c5.2-2.5,11.5-0.4,14.1,4.8
		c2.6,5.2,0.4,11.5-4.8,14C130.7,126.6,124.4,124.5,121.8,119.3z M78.1,136.9c5.2-2.6,7.4-8.8,4.8-14.1c-2.5-5.2-8.8-7.4-14.1-4.8
		c-5.2,2.5-7.4,8.8-4.8,14.1C66.6,137.3,72.9,139.4,78.1,136.9z M129.8,193.1c3.7-1.8,5.2-6.2,3.4-9.9c-1.8-3.7-6.2-5.2-9.9-3.4
		c-3.7,1.8-5.2,6.2-3.4,9.9C121.8,193.4,126.2,194.9,129.8,193.1z M153.5,58.6c6.8-3.3,9.6-11.5,6.3-18.2
		c-3.3-6.8-11.5-9.6-18.2-6.3c-6.8,3.3-9.6,11.5-6.2,18.2C138.6,59.1,146.7,61.9,153.5,58.6z M40.6,128.4c4.8-2.3,6.8-8.1,4.4-12.9
		c-2.3-4.8-8.1-6.8-12.9-4.4c-4.8,2.3-6.8,8.1-4.4,12.9C30.1,128.7,35.9,130.7,40.6,128.4z M30,154.1c3.8-1.9,5.4-6.5,3.5-10.3
		c-1.9-3.8-6.5-5.4-10.3-3.5c-3.8,1.9-5.4,6.5-3.5,10.3C21.5,154.4,26.2,156,30,154.1z M128.4,173.3c4.6-2.3,6.6-7.9,4.3-12.5
		c-2.3-4.6-7.9-6.6-12.5-4.3c-4.6,2.3-6.6,7.9-4.3,12.5C118.1,173.6,123.7,175.5,128.4,173.3z M99.9,46.6c5.2-2.5,7.4-8.8,4.8-14.1
		c-2.6-5.2-8.8-7.4-14-4.8c-5.2,2.5-7.4,8.8-4.8,14C88.4,46.9,94.7,49.1,99.9,46.6z M114.8,20c4.4-2.1,6.2-7.4,4-11.8
		c-2.1-4.4-7.4-6.2-11.8-4c-4.4,2.1-6.2,7.4-4,11.8C105.2,20.3,110.5,22.1,114.8,20z"/>
	<path id="_x23__5_37_" fill="#3CA5DD" d="M99.8,67.8c-1.5-3.1-0.2-6.8,2.9-8.4c3.1-1.5,6.8-0.2,8.4,2.9c1.5,3.1,0.2,6.8-2.9,8.4
		C105.1,72.2,101.3,70.9,99.8,67.8z M156.7,33c1.5,3.1,5.3,4.4,8.4,2.9c3.1-1.5,4.4-5.3,2.9-8.4c-1.5-3.1-5.3-4.4-8.4-2.9
		C156.5,26.1,155.2,29.9,156.7,33z M68.5,15.4c-1.7-3.4-5.7-4.8-9.1-3.1C56,14,54.6,18,56.3,21.4c1.6,3.4,5.7,4.8,9.1,3.1
		C68.8,22.9,70.2,18.8,68.5,15.4z M162.4,131.7c3.7-1.8,5.2-6.2,3.4-9.9c-1.8-3.7-6.2-5.2-9.9-3.4c-3.7,1.8-5.2,6.2-3.4,9.9
		C154.3,132,158.7,133.5,162.4,131.7z M62.2,180.6c7.5-3.7,10.5-12.7,6.9-20.1c-3.7-7.5-12.7-10.6-20.1-6.9
		c-7.5,3.7-10.6,12.7-6.9,20.1C45.7,181.2,54.7,184.2,62.2,180.6z M58.1,123.4c2.3-1.1,3.2-3.8,2.1-6.1c-1.1-2.3-3.8-3.2-6.1-2.1
		c-2.3,1.1-3.2,3.8-2.1,6.1C53.1,123.6,55.9,124.5,58.1,123.4z M109.7,181.8c2.4-1.2,3.4-4.1,2.2-6.5c-1.2-2.4-4.1-3.4-6.5-2.2
		c-2.4,1.2-3.4,4.1-2.2,6.5C104.5,181.9,107.4,182.9,109.7,181.8z M87.8,151.7c3.2-1.6,4.6-5.5,3-8.7c-1.6-3.2-5.5-4.6-8.7-3
		c-3.2,1.6-4.6,5.5-3,8.7C80.6,152,84.5,153.3,87.8,151.7z M64.6,48.9c1.3-0.6,1.8-2.2,1.2-3.4c-0.6-1.3-2.2-1.8-3.4-1.2
		c-1.3,0.6-1.8,2.2-1.2,3.4C61.8,49,63.4,49.6,64.6,48.9z M82.6,85.6c2.8-1.3,3.9-4.7,2.5-7.4c-1.3-2.8-4.7-3.9-7.4-2.6
		c-2.8,1.3-3.9,4.7-2.6,7.4C76.5,85.8,79.8,86.9,82.6,85.6z M151.3,184.5c2.8-1.3,3.9-4.7,2.6-7.4c-1.3-2.8-4.7-3.9-7.4-2.6
		c-2.8,1.3-3.9,4.7-2.5,7.4C145.2,184.8,148.5,185.9,151.3,184.5z M93.7,130.2c2.6-1.2,3.6-4.3,2.4-6.9c-1.2-2.6-4.3-3.6-6.9-2.4
		c-2.6,1.3-3.6,4.3-2.4,6.9C88.1,130.4,91.2,131.5,93.7,130.2z"/>
	<path fill="#F16622" d="M175.8,93.4c3.8,7.7,0.6,17.1-7.2,20.8c-7.7,3.8-17.1,0.6-20.8-7.1c-3.8-7.7-0.6-17.1,7.1-20.8
		C162.7,82.4,172,85.6,175.8,93.4z"/>
	<path fill="#F16622" d="M192.1,106.7c3.7-1.8,5.2-6.2,3.4-9.9c-1.8-3.7-6.2-5.2-9.9-3.4c-3.7,1.8-5.2,6.2-3.4,9.9
		C184.1,106.9,188.5,108.4,192.1,106.7z"/>
</g>
</svg>
