<?xml version="1.0" encoding="utf-8"?>
<!-- Generator: Adobe Illustrator 17.1.0, SVG Export Plug-In . SVG Version: 6.00 Build 0)  -->
<!DOCTYPE svg PUBLIC "-//W3C//DTD SVG 1.1//EN" "http://www.w3.org/Graphics/SVG/1.1/DTD/svg11.dtd">
<svg version="1.1" id="Layer_1" xmlns="http://www.w3.org/2000/svg" xmlns:xlink="http://www.w3.org/1999/xlink" x="0px" y="0px"
	 viewBox="0 0 100 100" enable-background="new 0 0 100 100" xml:space="preserve">
<path fill="#8C8C8C" d="M63.3,22.4v2.8c13.3,5.1,22.8,17.9,22.8,33c0,19.3-15.8,35.1-35.1,35.1c-19.4,0-35.1-15.8-35.1-35.1
	c0-14.9,9.3-27.6,22.5-32.8v-2.9c-14.7,5.3-25.2,19.2-25.2,35.6c0,20.9,17,38,37.9,38s37.9-17,37.9-37.8
	C88.8,41.6,78.2,27.6,63.3,22.4z"/>
<path fill="#8C8C8C" d="M60.2,59.5"/>
<path fill="#8C8C8C" d="M62,48.7c0-6.1-4.9-10.9-10.9-10.9c-6,0-10.8,4.9-10.9,10.7c0,0.3-0.1,2.8-0.1,2.8s-0.1,0.6-0.3,0.8
	l-0.5,0.6c-0.2,0.2-0.3,0.5-0.3,0.9c0,0,0,0.6,0.1,1.3l0,0c0,0,0.4,2.8,1.5,3.7c0,0,1.8,1.1,2.1,1.5c0.3,0.4,0.6,1.1,0.6,2.3
	c0,0,0.4,4.5-1.6,6.3c-0.5,0.4-1,0.7-1.3,0.8l-11.1,5.3l0,0l-2.1,1c-0.5,0.3-0.9,0.8-0.9,1.5c0,0,0,0,0,0.1l0,0c0,0,0,0,0,0.1
	c0,0.1,0,0.2,0,0.2c0,0.1,0,0.2,0.1,0.3s0.2,0.4,0.4,0.7l0,0c0.5,0.6,1.7,2,4.1,3.9c0,0,0,0,0.1,0c5.4,4.3,12.1,6.9,19.5,6.9
	c0.2,0,0.8,0,1,0c7.4,0,14.2-2.5,19.5-6.9c0,0,0,0,0.1,0c2.4-1.9,3.6-3.3,4.1-3.9l0,0c0.2-0.3,0.3-0.5,0.4-0.7
	c0-0.1,0.1-0.2,0.1-0.3c0-0.1,0-0.2,0-0.2s0,0,0-0.1l0,0c0,0,0,0,0-0.1c0-0.6-0.4-1.2-0.9-1.5l-2.1-1l0,0l-11.1-5.3
	c-0.3-0.1-0.8-0.4-1.3-0.8c-2-1.8-1.6-6.3-1.6-6.3c0-1.1,0.3-1.8,0.6-2.3c0.3-0.4,2.1-1.5,2.1-1.5c1.1-0.9,1.5-3.7,1.5-3.7l0,0
	c0.1-0.8,0.1-1.3,0.1-1.3c0-0.4-0.1-0.8-0.3-0.9l-0.5-0.6c-0.2-0.2-0.3-0.8-0.3-0.8"/>
<path fill="#8C8C8C" d="M58,30.6c1.4,0,2.6-1.1,2.6-2.6V17.9c0-1.4-1.1-2.5-2.4-2.5v-2.9c0-4-3.3-7.4-7.4-7.4s-7.4,3.3-7.4,7.4v2.9
	c-1.3,0.1-2.4,1.2-2.4,2.5V28c0,1.4,1.1,2.6,2.6,2.6H58z M52.9,24.5c0,1.1-0.9,2.1-2,2.1c-1.1,0-2-0.9-2-2.1v-3.2
	c0-1.1,0.9-2.1,2-2.1c1.1,0,2,0.9,2,2.1V24.5z M53.7,12.4v2.8h-2.8H48v-2.8l0,0c0-0.6,0-1.2,0.2-1.7c0-0.1,0-0.1,0.1-0.2
	c0-0.1,0-0.2,0.1-0.2c0.1-0.2,0.1-0.3,0.2-0.4c0,0,0,0,0-0.1c0.5-0.8,1.3-1.4,2.3-1.4c1,0.1,1.8,0.6,2.3,1.4c0,0,0,0,0,0.1
	c0.1,0.1,0.1,0.3,0.2,0.4c0,0.1,0,0.2,0.1,0.2c0,0.1,0,0.1,0.1,0.2C53.6,11.2,53.7,11.8,53.7,12.4L53.7,12.4z"/>
</svg>
