<?xml version="1.0" encoding="utf-8"?>
<!-- Generator: Adobe Illustrator 17.1.0, SVG Export Plug-In . SVG Version: 6.00 Build 0)  -->
<!DOCTYPE svg PUBLIC "-//W3C//DTD SVG 1.1//EN" "http://www.w3.org/Graphics/SVG/1.1/DTD/svg11.dtd">
<svg version="1.1" id="Layer_1" xmlns="http://www.w3.org/2000/svg" xmlns:xlink="http://www.w3.org/1999/xlink" x="0px" y="0px"
	 viewBox="0 0 99.2 100" enable-background="new 0 0 99.2 100" xml:space="preserve">
<polygon fill="#FFFFFF" points="82.7,44.6 82,41.4 98.4,37.7 99.2,40.8 "/>
<rect x="80.8" y="15.8" transform="matrix(-0.6231 -0.7821 0.7821 -0.6231 114.875 103.8509)" fill="#FFFFFF" width="3.2" height="16.8"/>
<polygon fill="#FFFFFF" points="73,5.7 70,4.3 62.7,19.4 65.6,20.9 "/>
<rect x="48" fill="#FFFFFF" width="3.2" height="16.8"/>
<polygon fill="#FFFFFF" points="36.4,19.4 29.1,4.3 26.2,5.7 33.5,20.9 "/>
<rect x="8.3" y="22.6" transform="matrix(-0.7817 -0.6237 0.6237 -0.7817 14.615 53.6208)" fill="#FFFFFF" width="16.8" height="3.2"/>
<polygon fill="#FFFFFF" points="17.1,41.4 0.7,37.7 0,40.8 16.4,44.6 "/>
<path fill="#FFFFFF" d="M39.3,91.8L61,87.9c0-0.3,0-0.5,0-0.8V85l-22.8,4.1C38.5,90,38.8,91,39.3,91.8z"/>
<polygon fill="#FFFFFF" points="38.1,87 61.1,82.8 61.1,79.9 38.1,84.1 "/>
<path fill="#FFFFFF" d="M60.6,90.1l-19.9,3.6c0.7,0.7,1.4,1.3,2.3,1.8v4.5h13.3v-4.5C58.3,94.3,59.8,92.4,60.6,90.1z"/>
<path fill="#FFFFFF" d="M75.5,50.5c0-14.3-11.6-25.9-26-25.9c-14.3,0-25.9,11.6-25.9,25.9c0,10.2,5.9,19,14.5,23.3v8.2l23-4.1v-4.1
	C69.6,69.5,75.5,60.7,75.5,50.5z"/>
</svg>
