<?xml version="1.0" encoding="utf-8"?>
<!-- Generator: Adobe Illustrator 17.1.0, SVG Export Plug-In . SVG Version: 6.00 Build 0)  -->
<!DOCTYPE svg PUBLIC "-//W3C//DTD SVG 1.1//EN" "http://www.w3.org/Graphics/SVG/1.1/DTD/svg11.dtd">
<svg version="1.1" id="Your_Icon" xmlns="http://www.w3.org/2000/svg" xmlns:xlink="http://www.w3.org/1999/xlink" x="0px" y="0px"
	 viewBox="0 0 100 100" enable-background="new 0 0 100 100" xml:space="preserve">
<path fill="#999999" d="M22.1,41.3v10.1h6V41.3H22.1z M81.2,54.7H68.5v-6.3H31.5v6.3H18.8v-6.3H5v30.2c0,2.2,1.8,4,4,4H91
	c2.2,0,4-1.8,4-4V48.4H81.2V54.7z M71.8,41.3v10.1h6V41.3H71.8z M91,30.2H74.2v-3.4h-7.4v-5.5c0-2.2-1.8-4-4-4H37.2
	c-2.2,0-4,1.8-4,4v5.5h-7.4v3.4H9c-2.2,0-4,1.8-4,4v10.1h13.8v-6.4h12.8v6.4h36.9v-6.4h12.8v6.4H95V34.3C95,32,93.2,30.2,91,30.2z
	 M61.4,30.2H38.6v-7.5h22.8V30.2z"/>
</svg>
