<?xml version="1.0" encoding="utf-8"?>
<!-- Generator: Adobe Illustrator 17.1.0, SVG Export Plug-In . SVG Version: 6.00 Build 0)  -->
<!DOCTYPE svg PUBLIC "-//W3C//DTD SVG 1.1//EN" "http://www.w3.org/Graphics/SVG/1.1/DTD/svg11.dtd">
<svg version="1.1" id="Layer_1" xmlns="http://www.w3.org/2000/svg" xmlns:xlink="http://www.w3.org/1999/xlink" x="0px" y="0px"
	 viewBox="0 0 167 396.6" enable-background="new 0 0 167 396.6" xml:space="preserve">
<g display="none">
	<path display="inline" fill="#010101" d="M32.8,174.2h51.3c-4.4,6.4-9.5,11.3-14.3,14.9c-8,6.2-15,8.9-15.1,8.9
		c-0.5,0.2-3.8,1.4-8.5,4c0,0,0,0-0.1,0c-5.2,2.8-12.2,7.2-19.1,13.6C13.4,228.1,0,248,0,278h22.2c0-1.9,0.1-3.8,0.2-5.6h72.1
		c0.1,1.8,0.2,3.7,0.2,5.6H117c0-29.9-13.4-49.8-27-62.3c-5.3,4-10.2,7-13.9,9l-0.6,0.3c-2.2,1.2-4.2,2.1-5.7,2.8
		c4.8,3.7,10.1,8.7,14.5,15.2H32.6c4.4-6.5,9.7-11.5,14.5-15.2c7.8-6,14.6-8.6,15.2-8.9c0.5-0.2,3.8-1.4,8.5-4c0,0,0,0,0.1,0
		c5.2-2.8,12.2-7.2,19.1-13.6c13.6-12.5,27-32.3,27-62.3c0-30-13.4-49.9-27-62.3C81.8,83,74.2,86.9,69.9,88.8
		c4.8,3.7,10.1,8.7,14.5,15.2H32.6C37.8,96.5,44,91,49.4,87.1c2.9-2,5.4-3.5,7.6-4.7l7.5-3.4c3.9-1.7,12.4-5.8,21.6-13.3
		c14.8-12.1,31-32.9,31-65.8H94.8c0,2-0.2,4-0.3,5.9h-72C22.4,4,22.2,2,22.2,0H0c0,30,13.4,49.8,27,62.3
		c8.3-6.3,15.9-10.2,20.1-12.1c-4.8-3.7-9.9-8.6-14.3-15h51.4C72.7,52,55.7,58.7,54.6,59.1C52.5,59.9,0,79.8,0,139
		c0,30,13.4,49.8,27,62.3c4.4-3.3,9-6.4,13.9-9c2.5-1.3,4.6-2.3,6.2-3.1C42.4,185.5,37.2,180.6,32.8,174.2z M93.2,14.8
		c-1,4.2-2.3,8-3.9,11.5H27.8c-1.6-3.5-2.9-7.3-3.9-11.5H93.2z M23.8,263.5c0.9-4.2,2.2-8,3.8-11.5h61.7c1.6,3.5,2.9,7.3,3.8,11.5
		C93.2,263.5,23.8,263.5,23.8,263.5z M94.5,144.9h-72c-0.2-1.9-0.3-3.9-0.3-5.9c0-1.9,0.1-3.8,0.2-5.6h72.1c0.1,1.8,0.2,3.7,0.2,5.6
		C94.8,141,94.7,143,94.5,144.9z M89.4,113c1.6,3.5,2.9,7.3,3.8,11.5H23.8c0.9-4.2,2.2-8,3.8-11.5H89.4z M27.8,165.3
		c-1.6-3.5-2.9-7.3-3.9-11.5h69.2c-1,4.2-2.3,8-3.9,11.5H27.8z"/>
</g>
<g>
	<path fill="#999999" d="M46.8,248.6h73.3c-6.3,9.1-13.6,16.1-20.4,21.3c-11.5,8.8-21.4,12.6-21.6,12.7c-0.7,0.3-5.4,2.1-12.2,5.7
		c0,0,0,0-0.1,0c-7.5,4-17.4,10.3-27.3,19.4C19.2,325.5,0,353.9,0,396.6h31.7c0-2.8,0.2-5.4,0.4-8h102.8c0.2,2.6,0.3,5.3,0.3,8H167
		c0-42.7-19.1-71.1-38.5-88.8c-7.6,5.8-14.6,10-19.8,12.8l-0.9,0.5c-3.2,1.7-5.9,3-8.1,4c6.9,5.3,14.4,12.4,20.7,21.7H46.5
		c6.3-9.3,13.8-16.4,20.7-21.7c11.1-8.5,20.8-12.3,21.7-12.7c0.7-0.3,5.4-2.1,12.1-5.6c0,0,0.1,0,0.1,0c7.5-4,17.4-10.3,27.3-19.4
		c19.3-17.8,38.5-46.1,38.5-88.9c0-42.7-19.2-71.1-38.5-88.9c-11.8,9-22.6,14.5-28.7,17.3c6.9,5.3,14.4,12.4,20.7,21.7H46.6
		c7.3-10.8,16.2-18.7,23.9-24.1c4.1-2.9,7.8-5.1,10.8-6.7l10.7-4.8c5.5-2.4,17.7-8.3,30.7-19C143.8,76.6,167,47,167,0h-31.7
		c0,2.9-0.2,5.7-0.5,8.4H32.1c-0.2-2.7-0.4-5.5-0.4-8.4H0c0,42.7,19.2,71.1,38.5,88.9c11.8-9,22.6-14.5,28.7-17.3
		c-6.8-5.2-14.2-12.2-20.4-21.3h73.3c-16.4,23.9-40.6,33.5-42.1,34c-3.1,1.1-78,29.6-78,114c0,42.7,19.2,71.1,38.5,88.9
		c6.2-4.8,12.8-9.1,19.8-12.9c3.5-1.9,6.5-3.4,8.9-4.4C60.4,264.7,53.1,257.7,46.8,248.6z M132.9,21.1c-1.4,6-3.3,11.4-5.6,16.4
		H39.6c-2.3-5-4.2-10.5-5.5-16.4H132.9z M34,375.9c1.3-6,3.2-11.4,5.5-16.4h88.1c2.3,5,4.1,10.5,5.5,16.4L34,375.9z M134.9,206.7
		H32.1c-0.2-2.7-0.4-5.5-0.4-8.4c0-2.8,0.1-5.4,0.3-8h102.8c0.2,2.6,0.3,5.3,0.3,8C135.3,201.2,135.1,204,134.9,206.7z M127.5,161.2
		c2.3,5,4.1,10.5,5.5,16.4H34c1.3-6,3.2-11.4,5.5-16.4H127.5z M39.6,235.9c-2.3-5-4.2-10.5-5.5-16.4h98.8c-1.4,6-3.3,11.4-5.6,16.4
		H39.6z"/>
</g>
<polygon fill="#F26621" points="35.1,206.7 132.1,206.7 129.2,219.4 37.5,219.4 "/>
<path fill="none" stroke="#FFFFFF" stroke-width="4.2804" stroke-miterlimit="10" d="M69.2,269.9c0,0-35.8-22.7-35.5-73
	c0.3-50.5,40.5-71.8,45.9-75"/>
<path fill="none" stroke="#FFFFFF" stroke-width="4.2804" stroke-miterlimit="10" d="M91.6,270.5c0,0,36.9-15,41.5-65.9
	c4.5-50.3-32.7-73.6-37.7-77.3"/>
<path fill="none" stroke="#FFFFFF" stroke-width="4.2804" stroke-miterlimit="10" d="M70.2,70.8c0,0-22.5-14.9-30.1-37
	S33.8,0,33.8,0"/>
<path fill="none" stroke="#FFFFFF" stroke-width="4.2804" stroke-miterlimit="10" d="M95.8,70.8c0,0,23.9-14.9,31.5-37
	C135,11.7,133.7,0,133.7,0"/>
<path fill="none" stroke="#FFFFFF" stroke-width="4.2804" stroke-miterlimit="10" d="M60.1,335.5c0,0-26.5,19-26.5,61"/>
<path fill="none" stroke="#FFFFFF" stroke-width="4.2804" stroke-miterlimit="10" d="M107.3,335.5c0,0,26.5,19,26.5,61"/>
</svg>
