<?xml version="1.0" encoding="utf-8"?>
<!-- Generator: Adobe Illustrator 17.1.0, SVG Export Plug-In . SVG Version: 6.00 Build 0)  -->
<!DOCTYPE svg PUBLIC "-//W3C//DTD SVG 1.1//EN" "http://www.w3.org/Graphics/SVG/1.1/DTD/svg11.dtd">
<svg version="1.1" id="Layer_1" xmlns="http://www.w3.org/2000/svg" xmlns:xlink="http://www.w3.org/1999/xlink" x="0px" y="0px"
	 viewBox="0 0 300 305" enable-background="new 0 0 300 305" xml:space="preserve">
<path id="_x23__1_37_" opacity="0.7" fill="#C6C6C6" d="M197.1,123c-9,4.4-19.8,0.7-24.2-8.3c-4.4-9-0.7-19.8,8.3-24.2
	c9-4.4,19.8-0.7,24.2,8.3C209.8,107.7,206.1,118.6,197.1,123z M212.9,29.4c-2.5-5.1-8.7-7.3-13.8-4.8c-5.1,2.5-7.3,8.7-4.8,13.8
	c2.5,5.1,8.7,7.3,13.8,4.7C213.2,40.7,215.4,34.5,212.9,29.4z M170.6,235.7c9.8-4.8,13.9-16.7,9.1-26.5c-4.8-9.8-16.7-13.9-26.5-9.1
	c-9.8,4.8-13.9,16.7-9.1,26.5C148.9,236.4,160.8,240.5,170.6,235.7z M73.9,228.3c8.1-4,11.5-13.8,7.5-21.9
	c-4-8.1-13.8-11.5-21.9-7.5c-8.1,4-11.5,13.8-7.5,21.9C55.9,228.9,65.8,232.2,73.9,228.3z M141.9,289.8c-1.6-3.3-5.6-4.7-8.9-3.1
	c-3.3,1.6-4.7,5.6-3.1,8.9c1.6,3.3,5.6,4.7,8.9,3.1C142.2,297.1,143.5,293.1,141.9,289.8z M208.8,146.9c5.3-2.6,7.6-9.1,4.9-14.4
	c-2.6-5.3-9.1-7.6-14.4-4.9c-5.4,2.6-7.6,9.1-5,14.4C197,147.3,203.4,149.5,208.8,146.9z M71.9,146.7c12.4-6.1,17.6-21,11.5-33.5
	c-6.1-12.4-21-17.5-33.5-11.5c-12.4,6.1-17.5,21-11.5,33.5C44.5,147.6,59.5,152.8,71.9,146.7z M24.9,203.7c4.9-2.4,6.9-8.3,4.5-13.1
	c-2.4-4.9-8.3-6.9-13.1-4.5c-4.9,2.4-6.9,8.3-4.5,13.1C14.1,204,20,206,24.9,203.7z M129.9,36.1c4.5-2.2,6.4-7.6,4.2-12.1
	c-2.2-4.5-7.6-6.4-12.1-4.1c-4.5,2.2-6.3,7.6-4.1,12.1C120,36.4,125.4,38.3,129.9,36.1z M106.8,58.1c3.9-1.9,5.5-6.5,3.6-10.4
	c-1.9-3.9-6.5-5.4-10.4-3.6c-3.8,1.9-5.4,6.5-3.6,10.4C98.3,58.4,102.9,60,106.8,58.1z M213.8,261.1c1.9-0.9,2.7-3.3,1.8-5.2
	c-0.9-1.9-3.3-2.7-5.2-1.8c-1.9,0.9-2.7,3.3-1.8,5.2C209.6,261.3,211.9,262.1,213.8,261.1z M283.2,212.9c9-4.4,12.7-15.2,8.3-24.2
	c-4.4-9-15.2-12.7-24.2-8.3c-9,4.4-12.7,15.2-8.3,24.2C263.4,213.6,274.2,217.3,283.2,212.9z M269.9,85.3c5.6-2.7,7.9-9.4,5.1-15
	c-2.7-5.6-9.4-7.9-15-5.1c-5.6,2.7-7.9,9.4-5.1,15C257.6,85.7,264.3,88.1,269.9,85.3z"/>
<path opacity="0.7" fill="#737373" d="M127.3,163.6c-6.7-13.7-1-30.2,12.7-36.9c13.7-6.7,30.2-1,36.9,12.7
	c6.7,13.7,1,30.2-12.7,36.9C150.5,183,134,177.3,127.3,163.6z"/>
<path opacity="0.7" fill="#737373" d="M106.4,168.1c9-4.4,12.7-15.2,8.3-24.2c-4.4-9-15.2-12.7-24.2-8.3c-9,4.4-12.7,15.2-8.3,24.2
	C86.6,168.7,97.4,172.4,106.4,168.1z"/>
<path fill="#F26722" d="M123.5,108.8c10.3-5,14.5-17.4,9.5-27.7c-5-10.3-17.4-14.5-27.7-9.5C95,76.6,90.8,89,95.8,99.3
	C100.8,109.6,113.2,113.8,123.5,108.8z"/>
<path opacity="0.7" fill="#737373" d="M187.5,61.1c-3.1-6.4-10.9-9.1-17.3-5.9c-6.4,3.1-9.1,10.9-5.9,17.3
	c3.1,6.4,10.9,9.1,17.3,5.9C188,75.3,190.7,67.6,187.5,61.1z"/>
<path opacity="0.7" fill="#737373" d="M39.3,167.1c5.6-2.7,7.9-9.4,5.1-15c-2.7-5.5-9.4-7.9-15-5.1c-5.6,2.7-7.9,9.5-5.2,15
	C27,167.6,33.7,169.9,39.3,167.1z"/>
<path opacity="0.7" fill="#737373" d="M32.1,104.6c5.6-2.7,7.9-9.5,5.2-15c-2.7-5.6-9.5-7.9-15-5.2c-5.6,2.7-7.9,9.5-5.1,15
	C19.8,105,26.6,107.3,32.1,104.6z"/>
<path opacity="0.7" fill="#737373" d="M252.5,259.7c5.1-2.5,7.3-8.7,4.8-13.8c-2.5-5.1-8.7-7.3-13.8-4.7c-5.1,2.5-7.2,8.7-4.7,13.8
	C241.2,260.1,247.4,262.3,252.5,259.7z"/>
<path opacity="0.7" fill="#737373" d="M133.9,272.2c8.8-4.3,12.4-14.9,8.1-23.7c-4.3-8.8-14.9-12.4-23.6-8.1
	c-8.8,4.3-12.4,14.9-8.1,23.6C114.5,272.9,125.1,276.5,133.9,272.2z"/>
<path opacity="0.7" fill="#737373" d="M270.1,98.2c-8.6,4.2-12.1,14.5-7.9,23.1c4.2,8.6,14.5,12.1,23.1,7.9
	c8.6-4.2,12.1-14.5,7.9-23.1C289,97.6,278.7,94,270.1,98.2z"/>
<path opacity="0.7" fill="#737373" d="M72.5,44.9c3.6-1.8,5.1-6.1,3.3-9.7c-1.8-3.6-6.1-5.1-9.7-3.3c-3.6,1.8-5.1,6.1-3.3,9.7
	C64.6,45.1,68.9,46.6,72.5,44.9z"/>
<path opacity="0.7" fill="#737373" d="M84.3,97.3c3.6-1.8,5.1-6.2,3.4-9.8c-1.8-3.6-6.2-5.1-9.8-3.4c-3.6,1.8-5.1,6.2-3.4,9.8
	C76.2,97.6,80.6,99.1,84.3,97.3z"/>
<path opacity="0.7" fill="#737373" d="M104.3,231.4c3.8-1.9,5.4-6.5,3.5-10.3c-1.9-3.8-6.5-5.4-10.3-3.5c-3.8,1.9-5.4,6.5-3.5,10.3
	C95.9,231.7,100.5,233.3,104.3,231.4z"/>
<path id="_x23__3_37_" opacity="0.7" fill="#2D2D2D" d="M6.7,142.9c-1.7-3.4-0.3-7.6,3.2-9.2c3.4-1.7,7.6-0.2,9.2,3.2
	c1.7,3.4,0.3,7.6-3.2,9.2C12.5,147.7,8.4,146.3,6.7,142.9z M227.8,243.5c10.9-5.3,15.4-18.5,10.1-29.4
	c-5.3-10.9-18.5-15.4-29.4-10.1c-10.9,5.3-15.4,18.5-10.1,29.4C203.7,244.4,216.9,248.9,227.8,243.5z M220,189.3
	c-1.5-3-5.1-4.2-8.1-2.8c-3,1.5-4.2,5.1-2.8,8.1c1.5,3,5.1,4.2,8.1,2.8C220.2,195.9,221.5,192.3,220,189.3z M110.5,276.5
	c-1.5-3-5.1-4.2-8.1-2.8c-3,1.5-4.2,5.1-2.8,8.1c1.5,3,5.1,4.2,8.1,2.8C110.7,283.1,111.9,279.5,110.5,276.5z M175.7,39.9
	c-1.5-3-5.1-4.2-8.1-2.8c-3,1.5-4.2,5.1-2.8,8.1c1.5,3,5.1,4.2,8.1,2.8C176,46.5,177.2,42.9,175.7,39.9z M238.3,119.8
	c6.2-3,8.8-10.5,5.7-16.7c-3-6.2-10.5-8.8-16.7-5.7c-6.2,3-8.8,10.5-5.7,16.7C224.6,120.3,232.1,122.9,238.3,119.8z M70.1,78.8
	c7.9-3.9,11.2-13.4,7.3-21.4C73.5,49.5,64,46.2,56,50.1c-7.9,3.9-11.2,13.4-7.3,21.3C52.6,79.4,62.1,82.6,70.1,78.8z M255.3,98.7
	c2.4-1.2,3.3-4,2.2-6.4c-1.2-2.4-4-3.3-6.4-2.2c-2.4,1.2-3.3,4-2.2,6.4C250.1,98.8,253,99.8,255.3,98.7z"/>
<path id="_x23__4_37_" opacity="0.7" fill="#626262" d="M181.7,180.7c-3.9-7.9-0.6-17.5,7.3-21.3c7.9-3.9,17.5-0.6,21.3,7.3
	c3.9,7.9,0.6,17.5-7.3,21.3C195.1,191.8,185.6,188.6,181.7,180.7z M115.3,207.4c7.9-3.9,11.2-13.4,7.3-21.3
	c-3.9-7.9-13.4-11.2-21.3-7.3c-7.9,3.9-11.2,13.4-7.3,21.3C97.8,208,107.4,211.3,115.3,207.4z M193.8,292.8c5.6-2.7,7.9-9.4,5.1-15
	c-2.7-5.6-9.4-7.9-15-5.1c-5.6,2.7-7.9,9.4-5.1,15C181.6,293.2,188.3,295.5,193.8,292.8z M229.8,88.6c10.3-5,14.5-17.4,9.5-27.7
	c-5-10.3-17.4-14.5-27.7-9.5c-10.3,5-14.5,17.4-9.5,27.7C207.1,89.3,219.5,93.6,229.8,88.6z M58.4,194.5c7.3-3.6,10.3-12.3,6.7-19.6
	c-3.6-7.3-12.3-10.3-19.6-6.7c-7.3,3.6-10.3,12.3-6.7,19.6C42.3,195.1,51.1,198.1,58.4,194.5z M42.2,233.6c5.8-2.8,8.2-9.9,5.4-15.7
	c-2.8-5.8-9.9-8.2-15.7-5.4c-5.8,2.8-8.2,9.9-5.4,15.7C29.4,234.1,36.4,236.5,42.2,233.6z M191.6,262.7c7.1-3.5,10-12,6.5-19
	c-3.5-7.1-12-10-19-6.5c-7.1,3.5-10,12-6.5,19C176,263.2,184.5,266.1,191.6,262.7z M148.3,70.3c7.9-3.9,11.2-13.4,7.3-21.3
	c-3.9-7.9-13.4-11.2-21.3-7.3c-7.9,3.9-11.2,13.4-7.3,21.3C130.8,70.8,140.4,74.1,148.3,70.3z M171,29.9c6.6-3.2,9.4-11.2,6.1-17.8
	c-3.2-6.6-11.2-9.4-17.8-6.1c-6.6,3.2-9.4,11.2-6.1,17.9C156.4,30.4,164.4,33.2,171,29.9z"/>
<path id="_x23__5_37_" opacity="0.7" fill="#AFAFAF" d="M148.2,102.5c-2.3-4.7-0.3-10.4,4.4-12.7c4.7-2.3,10.4-0.4,12.7,4.4
	c2.3,4.7,0.4,10.4-4.4,12.7C156.2,109.1,150.5,107.2,148.2,102.5z M234.7,49.6c2.3,4.7,8,6.7,12.7,4.4c4.7-2.3,6.7-8,4.4-12.7
	c-2.3-4.7-8-6.7-12.7-4.3C234.3,39.2,232.4,44.9,234.7,49.6z M100.7,23c-2.5-5.1-8.7-7.3-13.8-4.7c-5.1,2.5-7.3,8.7-4.7,13.8
	c2.5,5.1,8.7,7.3,13.8,4.7C101.1,34.3,103.2,28.1,100.7,23z M243.2,199.5c5.6-2.7,7.9-9.4,5.1-15c-2.7-5.6-9.4-7.9-15-5.1
	c-5.6,2.7-7.9,9.4-5.1,15C231,199.9,237.7,202.2,243.2,199.5z M91,273.8c11.3-5.5,16-19.2,10.5-30.6c-5.5-11.3-19.2-16-30.6-10.5
	c-11.4,5.6-16,19.2-10.5,30.6C66,274.7,79.7,279.3,91,273.8z M84.9,186.9c3.4-1.7,4.9-5.8,3.2-9.3c-1.7-3.4-5.8-4.8-9.3-3.2
	c-3.4,1.7-4.9,5.8-3.2,9.3C77.4,187.2,81.5,188.6,84.9,186.9z M163.3,275.6c3.6-1.8,5.1-6.2,3.4-9.8c-1.8-3.6-6.2-5.1-9.8-3.4
	c-3.6,1.8-5.1,6.2-3.4,9.8C155.3,275.8,159.7,277.3,163.3,275.6z M130,230c4.9-2.4,7-8.4,4.5-13.3c-2.4-4.9-8.4-7-13.3-4.6
	c-4.9,2.4-7,8.4-4.5,13.3C119.1,230.3,125.1,232.4,130,230z M94.8,73.9c1.9-0.9,2.7-3.3,1.8-5.2c-0.9-1.9-3.3-2.7-5.2-1.8
	c-1.9,0.9-2.7,3.3-1.8,5.2C90.6,74,92.9,74.8,94.8,73.9z M122,129.5c4.2-2,5.9-7.1,3.9-11.3c-2-4.2-7.1-5.9-11.3-3.9
	c-4.2,2-5.9,7.1-3.9,11.3C112.8,129.8,117.8,131.5,122,129.5z M226.4,279.8c4.2-2,5.9-7.1,3.9-11.3c-2-4.2-7.1-5.9-11.3-3.9
	c-4.2,2-5.9,7.1-3.9,11.3C217.1,280.1,222.2,281.9,226.4,279.8z M139,197.3c3.9-1.9,5.5-6.6,3.6-10.5c-1.9-3.9-6.6-5.5-10.5-3.6
	c-3.9,1.9-5.5,6.6-3.6,10.5C130.5,197.6,135.1,199.2,139,197.3z"/>
<path opacity="0.7" fill="#737373" d="M263.7,141.3c5.7,11.7,0.9,25.9-10.9,31.7c-11.7,5.7-25.9,0.9-31.7-10.9
	c-5.7-11.7-0.9-25.9,10.9-31.7C243.8,124.7,257.9,129.6,263.7,141.3z"/>
<path opacity="0.7" fill="#737373" d="M288.5,161.5c5.6-2.7,7.9-9.4,5.1-15c-2.7-5.6-9.4-7.9-15-5.1c-5.6,2.7-7.9,9.4-5.2,15
	C276.2,161.9,282.9,164.2,288.5,161.5z"/>
</svg>
