<?xml version="1.0" encoding="utf-8"?>
<!-- Generator: Adobe Illustrator 17.1.0, SVG Export Plug-In . SVG Version: 6.00 Build 0)  -->
<!DOCTYPE svg PUBLIC "-//W3C//DTD SVG 1.1//EN" "http://www.w3.org/Graphics/SVG/1.1/DTD/svg11.dtd">
<svg version="1.1" id="Layer_1" xmlns="http://www.w3.org/2000/svg" xmlns:xlink="http://www.w3.org/1999/xlink" x="0px" y="0px"
	 viewBox="0 0 94.8 100" enable-background="new 0 0 94.8 100" xml:space="preserve">
<path fill="#FFFFFF" d="M78.3,94.9c0,2.8,2.3,5.1,5.1,5.1h6.3c2.8,0,5.1-2.3,5.1-5.1V44.2c0-2.8-2.3-5.1-5.1-5.1h-6.3
	c-2.8,0-5.1,2.3-5.1,5.1V94.9z"/>
<path fill="#FFFFFF" d="M53.8,74.3v20.7c0,2.8,2.3,5.1,5.1,5.1h6.3c2.8,0,5.1-2.3,5.1-5.1V74.3c0-2.8-2.3-5.1-5.1-5.1h-6.3
	C56.1,69.2,53.8,71.5,53.8,74.3z"/>
<path fill="#FFFFFF" d="M29.3,81.9v13.1c0,2.8,2.3,5.1,5.1,5.1h6.3c2.8,0,5.1-2.3,5.1-5.1V81.9c0-2.8-2.3-5.1-5.1-5.1h-6.3
	C31.6,76.8,29.3,79.1,29.3,81.9z"/>
<path fill="#FFFFFF" d="M34.1,0C15.3,0,0,15.3,0,34.1C0,53,15.3,68.3,34.1,68.3C53,68.3,68.3,53,68.3,34.1C68.3,15.3,53,0,34.1,0z
	 M34.1,59.7C20,59.7,8.6,48.2,8.6,34.1C8.6,20.1,20,8.6,34.1,8.6v25.6L54.9,49C50.3,55.5,42.7,59.7,34.1,59.7z"/>
</svg>
